{"glyphs":{"0":{"ha":890,"x_min":71,"x_max":819,"o":"m 444 -18 q 296 21 365 -18 q 177 129 227 60 q 99 295 127 197 q 71 505 71 393 q 119 767 71 650 q 254 950 168 884 q 444 1017 340 1017 q 634 950 549 1017 q 770 767 720 884 q 819 505 819 649 q 790 295 819 393 q 711 128 762 197 q 592 21 661 60 q 444 -18 523 -18 m 236 504 q 249 328 236 410 q 286 183 261 247 q 351 82 311 119 q 444 45 392 45 q 539 83 498 45 q 605 186 580 121 q 642 332 629 251 q 654 504 654 412 q 642 674 654 595 q 604 818 629 754 q 537 918 578 881 q 444 954 496 954 q 350 916 391 954 q 285 813 309 878 q 248 670 260 749 q 236 504 236 591 z "},"1":{"ha":476,"x_min":36,"x_max":465,"o":"m 78 39 q 116 43 102 41 q 148 52 131 45 q 174 70 165 59 q 190 100 183 81 q 196 147 196 119 l 196 840 l 36 840 l 36 875 q 160 923 105 894 q 286 1003 214 953 l 347 1003 l 347 147 q 354 100 347 119 q 369 70 360 81 q 395 52 378 59 q 427 43 412 45 q 465 39 441 41 l 465 -1 l 78 -1 l 78 39 z "},"2":{"ha":777,"x_min":54,"x_max":721,"o":"m 54 0 l 54 47 l 201 215 q 440 535 375 420 q 505 734 505 650 q 460 862 505 817 q 339 908 414 908 q 204 864 268 908 q 98 733 140 820 l 58 742 q 186 943 95 873 q 393 1014 277 1014 q 590 943 514 1015 q 667 764 667 872 q 624 617 667 696 q 529 478 581 539 q 341 269 477 416 q 285 207 304 229 q 222 138 233 148 l 538 138 q 597 145 572 138 q 638 170 622 153 q 663 203 654 186 q 682 248 673 220 l 721 236 l 688 115 l 660 0 l 54 0 z "},"3":{"ha":761,"x_min":36,"x_max":691,"o":"m 364 -12 q 160 58 250 -12 q 36 260 71 129 l 77 268 q 149 163 107 204 q 232 105 191 122 q 319 89 274 89 q 473 151 412 89 q 534 314 534 212 q 517 409 534 366 q 466 480 500 451 q 378 516 431 509 q 253 505 326 524 l 229 545 l 519 865 l 224 865 q 168 857 190 865 q 134 832 145 849 q 118 796 123 814 q 111 749 113 778 l 72 750 l 75 1003 l 681 1002 l 681 949 l 338 572 q 592 514 493 594 q 689 294 691 434 q 642 133 688 203 q 523 25 596 62 q 364 -12 450 -12 z "},"4":{"ha":791,"x_min":21,"x_max":753,"o":"m 21 221 l 21 285 l 475 1003 l 611 1003 l 611 323 l 753 323 l 753 221 l 611 221 l 611 147 q 617 100 611 119 q 633 70 624 81 q 659 52 642 59 q 691 43 676 45 q 729 39 705 41 l 729 -1 l 342 -1 l 342 39 q 379 43 366 41 q 411 52 393 45 q 438 69 429 58 q 453 100 447 80 q 460 147 460 119 l 460 221 l 21 221 m 122 323 l 460 323 l 460 856 l 122 323 z "},"5":{"ha":734,"x_min":26,"x_max":679,"o":"m 354 -12 q 153 58 241 -12 q 26 244 64 128 l 68 253 q 176 122 111 166 q 310 78 241 78 q 463 152 401 78 q 524 339 524 226 q 470 504 524 442 q 322 566 416 566 q 138 490 225 566 l 79 509 l 149 1003 l 675 1003 l 653 865 l 193 865 l 149 564 q 382 643 243 643 q 598 559 517 642 q 679 340 679 477 q 635 159 679 241 q 516 33 591 78 q 354 -12 442 -12 z "},"6":{"ha":798,"x_min":54,"x_max":746,"o":"m 407 -18 q 152 104 250 -18 q 54 424 54 227 q 124 718 54 588 q 321 926 195 848 q 612 1014 448 1003 l 627 975 q 348 824 450 945 q 222 519 245 702 q 338 601 273 572 q 468 628 402 629 q 667 543 588 627 q 746 321 746 458 q 698 141 746 220 q 574 22 650 63 q 407 -18 497 -18 m 216 416 q 228 270 216 336 q 261 152 239 203 q 321 73 284 101 q 407 45 358 45 q 505 83 463 45 q 566 178 547 121 q 586 302 586 236 q 538 481 586 417 q 407 543 491 545 q 216 440 302 541 l 216 416 z "},"7":{"ha":764,"x_min":45,"x_max":736,"o":"m 205 -1 q 269 274 227 140 q 364 517 311 408 q 472 711 417 626 q 586 865 527 797 l 218 865 q 127 838 155 865 q 83 753 99 811 l 45 760 l 68 884 l 92 1003 l 736 1003 q 566 726 635 865 q 449 404 497 587 q 383 -1 401 221 l 205 -1 z "},"8":{"ha":809,"x_min":61,"x_max":743,"o":"m 400 -16 q 306 -5 353 -16 q 214 27 258 5 q 136 80 170 49 q 81 155 102 111 q 61 253 61 200 q 74 331 61 294 q 108 392 87 367 q 158 439 129 418 q 214 473 186 460 q 273 494 242 486 q 92 745 92 589 q 180 939 92 862 q 403 1015 269 1015 q 551 986 483 1015 q 663 899 620 956 q 705 770 705 842 q 657 629 705 689 q 534 538 608 568 q 743 268 743 434 q 693 117 743 183 q 566 18 644 51 q 400 -16 489 -16 m 195 261 q 252 107 195 172 q 406 41 309 41 q 547 92 492 41 q 603 220 603 143 q 359 457 603 366 l 328 469 q 229 378 263 432 q 195 261 195 323 m 229 793 q 286 665 229 717 q 463 568 342 614 q 543 652 511 602 q 574 764 574 701 q 555 858 574 814 q 495 929 536 901 q 397 957 454 957 q 275 911 321 957 q 229 793 229 865 z "},"9":{"ha":798,"x_min":53,"x_max":745,"o":"m 392 1015 q 647 893 549 1015 q 745 574 745 771 q 704 345 745 451 q 590 162 663 239 q 413 38 517 85 q 186 -17 309 -9 l 172 22 q 451 174 349 52 q 576 478 554 296 q 461 397 526 425 q 330 370 396 368 q 132 455 210 371 q 53 676 53 538 q 101 856 53 777 q 225 975 149 934 q 392 1015 302 1015 m 212 694 q 260 516 212 580 q 392 454 308 453 q 582 557 497 456 l 582 581 q 571 728 582 661 q 537 845 559 794 q 478 924 515 896 q 392 953 441 953 q 294 915 336 953 q 232 819 252 876 q 212 694 212 761 z "}," ":{"ha":349,"x_min":0,"x_max":0,"o":""}," ":{"ha":349,"x_min":0,"x_max":0,"o":""},"!":{"ha":374,"x_min":86,"x_max":288,"o":"m 164 301 q 136 559 155 382 q 104 852 116 736 q 90 1003 92 968 l 285 1003 q 271 848 284 968 q 239 559 258 729 q 211 301 220 389 l 164 301 m 86 87 q 116 159 86 130 q 187 189 146 189 q 258 160 228 189 q 288 87 288 130 q 258 18 288 47 q 187 -11 228 -11 q 116 18 146 -11 q 86 87 86 47 z "},"\"":{"ha":581,"x_min":64,"x_max":524,"o":"m 134 610 q 106 739 124 665 q 76 862 87 812 q 64 933 64 912 q 90 993 64 969 q 150 1017 117 1017 q 210 993 183 1017 q 237 933 237 970 q 226 863 237 912 q 196 740 214 814 q 167 610 178 666 l 134 610 m 350 933 q 376 993 350 969 q 436 1017 403 1017 q 496 993 469 1017 q 524 933 524 970 q 512 863 524 912 q 482 740 500 814 q 453 610 464 666 l 419 610 q 392 739 410 665 q 362 862 374 812 q 350 933 350 912 z "},"#":{"ha":948,"x_min":50,"x_max":888,"o":"m 504 -1 l 566 313 l 288 313 l 227 -1 l 164 -1 l 225 313 l 50 313 l 50 370 l 236 370 l 288 640 l 87 640 l 87 696 l 298 696 l 358 1003 l 421 1003 l 361 696 l 639 696 l 699 1003 l 761 1003 l 701 696 l 888 696 l 888 640 l 690 640 l 639 370 l 850 370 l 850 313 l 628 313 l 567 -1 l 504 -1 m 298 370 l 576 370 l 628 640 l 350 640 l 298 370 z "},"$":{"ha":761,"x_min":54,"x_max":707,"o":"m 304 -142 l 314 -12 q 58 72 184 2 l 56 332 l 96 332 q 174 137 115 204 q 318 53 234 69 l 346 443 l 315 456 q 117 581 180 509 q 56 747 54 652 q 147 941 58 865 q 387 1017 237 1017 l 396 1132 l 457 1132 l 449 1014 q 676 942 561 1001 l 679 693 l 640 693 q 444 949 604 915 l 418 589 q 433 583 420 587 q 453 575 446 578 q 645 448 583 520 q 707 268 707 376 q 679 139 706 195 q 607 50 652 83 q 504 0 561 16 q 379 -17 446 -17 l 374 -17 l 366 -142 l 304 -142 m 186 798 q 227 702 185 745 q 358 615 269 659 l 383 954 q 239 909 293 954 q 186 798 186 865 m 379 47 q 525 94 473 48 q 575 220 576 140 q 531 331 574 286 q 406 416 488 376 l 379 47 z "},"%":{"ha":1076,"x_min":49,"x_max":1023,"o":"m 143 -3 l 847 1003 l 926 1003 l 221 -3 l 143 -3 m 112 597 q 80 632 112 597 q 49 774 49 667 q 112 949 49 880 q 269 1018 175 1018 q 428 949 363 1018 q 492 774 492 880 q 427 597 492 667 q 269 528 363 528 q 112 597 175 528 m 174 774 q 199 631 174 688 q 269 575 224 575 q 340 631 315 575 q 366 774 366 688 q 340 915 366 859 q 269 970 315 970 q 199 915 224 970 q 174 774 174 859 m 644 52 q 612 86 644 52 q 581 228 581 121 q 644 403 581 334 q 802 472 707 472 q 960 404 896 472 q 1023 228 1023 335 q 959 51 1023 121 q 802 -18 895 -18 q 644 52 707 -18 m 730 369 q 718 342 730 369 q 705 228 705 315 q 730 86 705 141 q 802 31 755 31 q 872 85 848 31 q 896 228 896 140 q 871 369 896 314 q 802 424 847 424 q 730 369 755 424 z "},"&":{"ha":961,"x_min":47,"x_max":953,"o":"m 256 524 q 231 550 250 530 q 204 581 212 570 q 179 611 195 591 q 155 647 163 631 q 137 685 146 663 q 123 729 127 706 q 119 777 119 752 q 160 906 119 850 q 264 989 201 962 q 401 1017 327 1017 q 592 959 515 1017 q 668 803 668 902 q 610 659 668 720 q 433 539 553 597 l 665 272 q 701 371 690 326 q 709 426 709 403 q 703 463 709 450 q 682 486 696 477 q 652 498 667 494 q 614 504 637 502 l 614 543 l 911 543 l 911 504 q 863 495 882 501 q 822 475 843 489 q 786 434 802 460 q 760 367 771 408 q 703 229 734 286 l 789 131 q 869 61 835 78 q 953 39 904 43 l 953 -1 l 714 -1 l 618 109 q 347 -17 498 -17 q 267 -8 307 -17 q 186 22 226 1 q 116 72 146 43 q 66 146 85 102 q 47 244 47 191 q 260 519 47 414 l 256 524 m 187 285 q 250 131 187 191 q 400 72 312 72 q 581 151 501 72 l 294 479 q 187 285 187 397 m 258 814 q 260 788 258 801 q 267 763 262 776 q 275 740 271 750 q 288 717 279 730 q 301 696 296 703 q 317 673 305 688 q 333 654 329 659 q 351 632 337 649 q 368 612 366 616 l 397 579 q 496 679 462 627 q 530 796 530 732 q 496 908 530 862 q 397 954 462 954 q 297 913 336 954 q 258 814 258 872 z "},"'":{"ha":389,"x_min":113,"x_max":286,"o":"m 182 610 q 154 739 172 665 q 124 862 136 812 q 113 933 113 912 q 139 993 113 969 q 199 1017 165 1017 q 259 993 232 1017 q 286 933 286 970 q 275 863 286 912 q 244 741 263 814 q 215 610 226 667 l 182 610 z "},"(":{"ha":427,"x_min":85,"x_max":392,"o":"m 383 -171 q 275 -75 327 -136 q 179 70 222 -13 q 111 259 136 152 q 85 479 85 366 q 111 697 85 592 q 179 884 136 803 q 274 1025 222 964 q 383 1121 326 1086 l 392 1093 q 307 959 343 1038 q 253 794 271 880 q 227 631 235 709 q 218 479 218 554 q 226 332 218 408 q 252 167 234 256 q 306 -4 269 78 q 392 -143 342 -87 l 383 -171 z "},")":{"ha":427,"x_min":41,"x_max":349,"o":"m 41 -143 q 128 -4 92 -87 q 182 167 164 78 q 207 332 199 256 q 215 479 215 408 q 207 631 215 554 q 180 794 199 709 q 126 959 162 880 q 41 1093 90 1038 l 50 1121 q 159 1025 107 1086 q 254 884 212 964 q 323 697 297 803 q 349 479 349 592 q 323 259 349 366 q 254 70 297 152 q 159 -75 211 -13 q 50 -171 106 -136 l 41 -143 z "},"*":{"ha":490,"x_min":37,"x_max":436,"o":"m 186 596 q 221 771 209 659 q 156 718 199 757 q 87 652 112 679 l 37 739 q 207 798 130 760 q 37 857 92 846 l 87 943 q 113 912 101 925 q 152 876 124 900 q 222 821 180 852 q 186 1000 202 960 l 288 1000 q 274 956 280 981 q 265 909 269 931 q 252 821 261 887 q 323 881 278 840 q 386 943 368 921 l 436 857 q 422 854 427 855 q 409 850 416 852 q 397 847 401 848 q 384 843 393 846 q 370 838 375 840 q 352 831 366 836 q 330 823 338 826 q 301 811 322 819 q 267 798 281 803 q 356 763 299 782 q 436 739 412 743 l 386 652 q 253 771 338 703 q 288 596 265 647 l 186 596 z "},"+":{"ha":851,"x_min":82,"x_max":770,"o":"m 82 431 l 82 490 l 293 490 q 366 492 351 490 q 387 498 382 493 q 394 516 393 503 q 395 574 395 530 q 395 579 395 577 q 395 584 395 581 q 395 589 395 587 l 395 799 l 457 799 l 457 587 q 458 518 457 533 q 464 498 459 503 q 486 492 468 494 q 557 490 504 490 l 770 490 l 770 431 l 557 431 q 486 429 504 431 q 464 422 469 427 q 458 403 459 418 q 457 335 457 388 l 457 125 l 395 125 l 395 335 q 387 422 395 415 q 293 431 377 431 l 82 431 z "},",":{"ha":380,"x_min":85,"x_max":296,"o":"m 97 -118 q 164 -74 142 -98 q 187 -29 187 -50 q 167 -5 187 -11 q 108 26 132 2 q 85 86 85 51 q 115 154 85 126 q 184 182 144 182 q 263 146 231 182 q 296 54 296 110 q 244 -72 296 -12 q 107 -153 192 -132 l 97 -118 z "},"-":{"ha":642,"x_min":72,"x_max":570,"o":"m 72 431 l 72 490 l 570 490 l 570 431 l 72 431 z "},".":{"ha":368,"x_min":83,"x_max":285,"o":"m 184 -11 q 113 19 143 -11 q 83 89 83 48 q 113 161 83 131 q 184 191 143 191 q 255 160 225 191 q 285 89 285 130 q 255 19 285 48 q 184 -11 225 -11 z "},"/":{"ha":615,"x_min":47,"x_max":561,"o":"m 47 -122 l 494 1084 l 561 1084 l 114 -122 l 47 -122 z "},":":{"ha":359,"x_min":83,"x_max":285,"o":"m 184 -11 q 113 19 143 -11 q 83 89 83 48 q 113 161 83 131 q 184 191 143 191 q 255 160 225 191 q 285 89 285 130 q 255 19 285 48 q 184 -11 225 -11 m 83 596 q 113 667 83 637 q 184 697 142 697 q 255 667 225 697 q 285 596 285 637 q 255 526 285 555 q 184 496 225 496 q 113 526 143 496 q 83 596 83 555 z "},";":{"ha":370,"x_min":85,"x_max":296,"o":"m 192 497 q 120 527 151 497 q 90 597 90 557 q 120 669 90 639 q 192 699 150 699 q 262 669 233 699 q 292 597 292 639 q 262 527 292 557 q 192 497 233 497 m 85 86 q 115 154 85 126 q 184 182 144 182 q 263 146 231 182 q 296 54 296 110 q 244 -72 296 -12 q 107 -153 192 -132 l 97 -118 q 164 -74 142 -98 q 187 -29 187 -50 q 167 -5 187 -11 q 108 26 132 2 q 85 86 85 51 z "},"<":{"ha":630,"x_min":47,"x_max":558,"o":"m 558 144 l 47 436 l 47 494 l 558 786 l 558 713 l 121 465 l 558 216 l 558 144 z "},"=":{"ha":791,"x_min":78,"x_max":713,"o":"m 78 533 l 78 595 l 713 595 l 713 533 l 78 533 m 78 326 l 78 386 l 713 386 l 713 326 l 78 326 z "},">":{"ha":639,"x_min":72,"x_max":583,"o":"m 72 144 l 72 216 l 510 465 l 72 713 l 72 786 l 583 494 l 583 436 l 72 144 z "},"?":{"ha":730,"x_min":71,"x_max":657,"o":"m 334 286 q 283 408 283 351 q 310 506 283 463 q 387 597 337 549 q 433 646 416 627 q 471 694 450 665 q 502 753 492 724 q 511 815 511 783 q 471 918 511 880 q 366 956 431 956 q 221 889 278 956 q 164 693 164 823 l 121 689 l 71 928 q 219 991 138 965 q 372 1017 299 1017 q 514 989 450 1017 q 617 906 578 961 q 657 779 657 851 q 645 707 657 743 q 617 645 633 671 q 575 589 601 618 q 532 545 550 561 q 490 509 514 528 q 422 445 448 473 q 384 390 397 416 q 368 340 372 363 q 366 286 364 318 l 334 286 m 239 87 q 269 160 239 130 q 339 189 298 189 q 409 160 380 189 q 439 87 439 130 q 409 18 439 47 q 339 -11 380 -11 q 268 18 298 -11 q 239 87 239 47 z "},"@":{"ha":1198,"x_min":62,"x_max":1129,"o":"m 603 -106 q 381 -61 483 -106 q 210 59 279 -16 q 101 236 140 135 q 62 450 62 338 q 89 627 62 541 q 165 784 115 712 q 283 909 216 855 q 440 993 351 963 q 625 1023 528 1023 q 838 982 741 1023 q 997 870 935 940 q 1095 712 1060 801 q 1129 526 1129 623 q 1107 376 1129 448 q 1046 250 1085 304 q 950 163 1008 195 q 827 131 893 131 q 702 170 753 131 q 654 288 652 209 q 550 184 604 219 q 447 149 496 149 q 354 190 391 149 q 311 305 317 231 q 340 484 304 380 q 405 612 366 556 q 485 702 443 669 q 569 752 527 735 q 652 770 612 769 q 731 750 698 770 q 779 696 764 730 q 868 762 836 731 l 904 762 l 793 347 q 791 231 771 267 q 856 195 811 195 q 930 219 893 195 q 998 287 968 244 q 1048 393 1029 329 q 1067 528 1067 456 q 1037 689 1067 611 q 954 829 1008 767 q 813 929 899 892 q 624 966 728 966 q 458 939 536 966 q 319 864 379 912 q 214 751 258 815 q 146 610 170 687 q 123 452 123 533 q 159 258 123 350 q 256 99 194 167 q 408 -10 317 31 q 604 -50 499 -50 q 846 8 731 -50 l 852 -52 q 603 -106 746 -106 m 475 482 q 445 357 449 413 q 456 271 440 301 q 505 241 472 240 q 616 323 557 243 q 722 557 675 404 l 743 629 q 726 682 742 661 q 679 704 710 703 q 568 645 625 705 q 475 482 511 585 z "},"A":{"ha":998,"x_min":-7,"x_max":1010,"o":"m 637 39 q 674 43 661 41 q 703 52 688 45 q 723 68 718 58 q 728 95 729 78 q 718 136 728 113 l 635 346 l 285 346 l 203 136 q 193 95 193 112 q 197 67 192 77 q 216 52 202 58 q 245 43 231 45 q 283 39 259 41 l 283 -1 l -7 -1 l -7 39 q 78 63 45 42 q 136 146 111 84 l 473 1003 l 538 1003 l 879 146 q 933 62 904 83 q 1010 39 962 42 l 1010 -1 l 637 -1 l 637 39 m 309 407 l 611 407 l 458 793 l 309 407 z "},"B":{"ha":891,"x_min":35,"x_max":852,"o":"m 35 -1 l 35 39 q 73 42 58 40 q 104 52 87 45 q 129 70 120 58 q 144 100 138 81 q 150 147 150 119 l 150 854 q 142 910 150 888 q 116 942 134 932 q 81 957 98 953 q 35 962 64 960 l 35 1003 l 507 1003 q 722 929 637 1003 q 807 743 807 856 q 759 605 807 662 q 639 517 711 547 q 794 427 736 490 q 852 271 852 363 q 804 122 852 185 q 679 29 756 60 q 505 -1 601 -1 l 35 -1 m 301 60 l 468 60 q 640 112 587 60 q 693 268 693 163 q 634 428 693 375 q 472 481 576 481 l 301 481 l 301 60 m 301 546 l 479 546 q 608 599 568 546 q 648 743 648 652 q 469 942 648 942 l 301 942 l 301 546 z "},"C":{"ha":887,"x_min":43,"x_max":856,"o":"m 493 -18 q 322 17 404 -18 q 178 117 241 53 q 79 277 116 181 q 43 488 43 374 q 102 759 43 639 q 270 948 161 880 q 518 1017 378 1017 q 818 945 648 1017 l 821 673 l 782 673 q 685 881 755 808 q 517 954 614 954 q 349 894 420 954 q 242 735 277 834 q 207 511 207 635 q 233 338 207 418 q 302 201 258 257 q 407 113 347 144 q 534 81 467 81 q 702 131 625 81 q 822 260 778 181 l 856 233 q 822 165 843 199 q 769 98 802 132 q 697 39 736 64 q 605 -2 659 14 q 493 -18 552 -18 z "},"D":{"ha":958,"x_min":35,"x_max":914,"o":"m 35 -1 l 35 39 q 73 42 58 40 q 104 52 87 45 q 129 70 120 58 q 144 100 138 81 q 150 147 150 119 l 150 854 q 142 910 150 888 q 116 942 134 932 q 81 957 98 953 q 35 962 64 960 l 35 1003 l 449 1003 q 624 966 540 1003 q 773 866 709 930 q 876 707 837 802 q 914 505 914 613 q 876 298 914 394 q 772 137 837 201 q 624 35 708 72 q 449 -1 540 -1 l 35 -1 m 301 61 l 410 61 q 587 119 510 61 q 706 279 665 177 q 746 507 747 380 q 704 728 745 630 q 586 883 663 826 q 410 940 509 940 l 301 940 l 301 61 z "},"E":{"ha":829,"x_min":35,"x_max":799,"o":"m 35 39 q 81 45 64 41 q 116 59 98 49 q 142 92 134 70 q 150 147 150 113 l 150 854 q 142 910 150 888 q 116 942 134 932 q 81 957 98 953 q 35 962 64 960 l 35 1003 l 766 1003 l 772 954 l 791 732 l 750 728 q 683 889 730 838 q 536 940 636 940 l 301 940 l 301 547 l 479 547 q 535 555 513 547 q 568 579 557 563 q 584 614 579 596 q 590 659 588 631 l 631 659 l 631 374 l 590 374 q 584 419 588 401 q 568 453 579 437 q 535 478 557 470 q 479 486 513 486 l 301 486 l 301 61 l 533 61 q 631 79 590 61 q 697 130 673 96 q 735 203 722 164 q 757 294 749 241 l 799 292 l 778 46 l 774 -1 l 35 -1 l 35 39 z "},"F":{"ha":812,"x_min":35,"x_max":785,"o":"m 35 39 q 73 42 58 40 q 104 52 87 45 q 129 70 120 58 q 144 100 138 81 q 150 147 150 119 l 150 854 q 142 910 150 888 q 116 942 134 932 q 81 957 98 953 q 35 962 64 960 l 35 1003 l 757 1003 l 762 956 l 785 732 l 743 729 q 721 815 734 779 q 683 881 707 851 q 620 925 659 910 q 528 940 581 940 l 301 940 l 301 549 l 469 549 q 526 556 503 549 q 559 581 548 564 q 575 614 570 597 q 582 659 580 631 l 621 659 l 621 374 l 582 374 q 575 419 580 402 q 559 454 570 437 q 526 478 548 471 q 469 486 503 486 l 301 486 l 301 147 q 308 100 301 120 q 324 70 314 81 q 351 52 334 58 q 383 42 368 45 q 421 39 398 40 l 421 -1 l 35 -1 l 35 39 z "},"G":{"ha":972,"x_min":43,"x_max":964,"o":"m 708 354 q 694 407 708 386 q 653 440 681 429 q 592 456 625 451 q 510 463 559 461 l 510 503 l 964 503 l 964 463 q 918 456 935 460 q 884 441 900 452 q 860 409 867 431 q 852 354 852 388 l 852 98 l 860 93 q 856 90 859 92 q 852 87 854 88 l 852 83 l 844 82 q 705 11 787 41 q 525 -18 624 -18 q 373 4 446 -18 q 240 70 300 26 q 136 175 180 114 q 67 317 92 236 q 43 492 43 399 q 105 760 43 640 q 280 948 168 880 q 533 1017 393 1017 q 842 945 678 1017 l 842 684 l 804 684 q 707 882 782 809 q 533 954 633 954 q 361 895 436 954 q 248 735 287 835 q 208 514 208 635 q 250 279 208 387 q 368 109 292 172 q 536 46 444 46 q 708 97 626 46 l 708 354 z "},"H":{"ha":1027,"x_min":35,"x_max":993,"o":"m 614 39 q 660 45 642 41 q 695 59 678 49 q 720 92 712 70 q 728 147 728 113 l 728 473 l 300 473 l 300 147 q 306 100 300 119 q 321 70 312 81 q 346 52 330 58 q 377 42 362 45 q 414 39 391 40 l 414 -1 l 35 -1 l 35 39 q 71 42 57 40 q 101 51 85 45 q 127 69 118 58 q 142 100 136 80 q 149 147 149 119 l 149 854 q 140 911 149 889 q 114 943 132 932 q 80 957 96 954 q 35 962 63 960 l 35 1003 l 414 1003 l 414 962 q 368 957 385 960 q 334 942 351 953 q 308 910 316 932 q 300 854 300 888 l 300 536 l 728 536 l 728 854 q 720 910 728 888 q 695 942 712 931 q 661 957 678 953 q 614 962 643 960 l 614 1003 l 993 1003 l 993 962 q 948 957 964 960 q 913 943 931 954 q 887 911 895 932 q 879 854 879 889 l 879 147 q 885 100 879 119 q 901 69 892 80 q 926 51 909 58 q 957 42 943 45 q 993 39 970 40 l 993 -1 l 614 -1 l 614 39 z "},"I":{"ha":465,"x_min":41,"x_max":424,"o":"m 41 39 q 89 44 71 41 q 125 59 106 48 q 152 91 143 69 q 160 147 160 113 l 160 854 q 152 910 160 888 q 125 942 143 932 q 89 957 106 953 q 41 962 71 960 l 41 1003 l 424 1003 l 424 962 q 376 957 394 960 q 340 942 358 953 q 314 910 322 931 q 306 854 306 888 l 306 147 q 312 101 306 120 q 328 70 318 81 q 353 52 337 59 q 385 42 370 45 q 424 39 401 40 l 424 -1 l 41 -1 l 41 39 z "},"J":{"ha":464,"x_min":-64,"x_max":431,"o":"m -64 -153 q 23 -128 -15 -145 q 84 -84 60 -111 q 124 -27 109 -57 q 148 43 140 3 q 159 119 156 83 q 161 201 161 155 l 161 854 q 155 902 161 882 q 139 932 149 922 q 112 950 130 943 q 81 959 95 957 q 43 962 66 961 l 43 1003 l 431 1003 l 431 962 q 383 957 401 960 q 348 942 366 953 q 321 910 330 932 q 313 854 313 888 l 313 201 q 286 11 313 90 q 210 -113 260 -69 q 96 -174 161 -157 q -52 -183 31 -191 l -64 -153 z "},"K":{"ha":968,"x_min":35,"x_max":977,"o":"m 726 -1 l 311 503 l 302 509 l 304 510 l 304 511 l 314 519 l 656 869 q 690 921 687 901 q 673 950 693 941 q 610 961 652 959 l 610 1003 l 942 1003 l 942 961 q 887 952 912 958 q 820 920 862 945 q 734 852 778 895 l 450 570 l 811 132 q 893 60 857 77 q 977 39 930 42 l 977 -1 l 726 -1 m 35 -1 l 35 39 q 73 42 58 40 q 104 52 87 45 q 129 70 120 58 q 144 100 138 81 q 150 147 150 119 l 150 854 q 142 910 150 888 q 116 942 134 932 q 81 957 98 953 q 35 962 64 960 l 35 1003 l 419 1003 l 419 962 q 372 957 389 960 q 336 942 354 953 q 310 910 318 932 q 301 854 301 888 l 301 147 q 310 91 301 113 q 336 59 318 69 q 372 44 354 48 q 419 39 390 41 l 419 -1 l 35 -1 z "},"L":{"ha":772,"x_min":35,"x_max":732,"o":"m 35 39 q 71 43 58 41 q 101 52 84 45 q 126 69 117 58 q 141 100 135 80 q 147 147 147 119 l 147 854 q 139 911 147 889 q 113 943 131 932 q 79 957 96 954 q 35 962 63 960 l 35 1003 l 404 1003 l 404 962 q 359 957 376 960 q 325 942 342 953 q 299 910 307 932 q 292 854 292 888 l 292 61 l 468 61 q 566 79 525 61 q 631 130 606 96 q 669 203 656 164 q 690 294 682 241 l 732 292 l 711 46 l 707 -1 l 35 -1 l 35 39 z "},"M":{"ha":1219,"x_min":35,"x_max":1185,"o":"m 570 -1 l 240 815 l 240 147 q 250 93 240 115 q 279 60 259 71 q 320 45 298 50 q 376 39 342 41 l 376 -1 l 41 -1 l 41 39 q 97 45 75 41 q 139 60 119 50 q 168 93 159 71 q 178 147 178 115 l 178 852 q 168 908 178 886 q 136 940 157 930 q 93 955 115 951 q 35 961 71 959 l 35 1002 l 322 1002 l 633 239 l 920 996 l 920 1003 l 1185 1003 l 1185 962 q 1138 957 1156 960 q 1102 942 1120 953 q 1076 910 1084 931 q 1068 854 1068 888 l 1068 147 q 1076 92 1068 113 q 1102 60 1084 71 q 1138 45 1120 49 q 1185 39 1155 41 l 1185 -1 l 804 -1 l 804 39 q 851 45 834 41 q 885 59 867 49 q 911 92 903 70 q 920 147 920 113 l 920 817 l 611 9 l 608 -1 l 570 -1 z "},"N":{"ha":1010,"x_min":35,"x_max":983,"o":"m 803 -1 l 222 808 l 222 147 q 231 92 222 113 q 258 59 239 70 q 294 45 277 49 q 342 40 312 42 l 342 -1 l 35 -1 l 35 40 q 82 45 65 42 q 118 59 100 49 q 145 91 137 69 q 154 147 154 113 l 154 854 q 148 902 154 882 q 132 932 141 922 q 105 949 122 943 q 73 958 87 956 q 35 961 59 960 l 35 1003 l 273 1003 l 798 265 l 799 854 q 793 901 799 882 q 777 931 787 920 q 751 948 768 942 q 719 957 734 955 q 679 961 703 960 l 679 1003 l 983 1003 l 983 962 q 937 957 954 960 q 901 942 919 953 q 875 910 883 932 q 867 854 867 888 l 867 -1 l 803 -1 z "},"O":{"ha":1009,"x_min":43,"x_max":965,"o":"m 504 -17 q 326 23 411 -17 q 179 133 241 64 q 80 299 117 201 q 43 504 43 396 q 80 709 43 613 q 179 872 117 805 q 327 978 242 939 q 504 1017 411 1017 q 681 978 596 1017 q 828 872 765 939 q 928 709 890 805 q 965 504 965 613 q 928 299 965 396 q 828 133 890 201 q 681 23 766 64 q 504 -17 596 -17 m 212 504 q 232 330 212 412 q 289 183 252 247 q 381 82 325 120 q 504 45 437 45 q 661 110 593 45 q 764 278 729 174 q 799 505 799 382 q 764 728 799 627 q 661 892 729 829 q 504 954 593 954 q 381 918 437 954 q 289 819 325 881 q 232 675 252 756 q 212 504 212 594 z "},"P":{"ha":848,"x_min":35,"x_max":822,"o":"m 35 39 q 73 42 58 40 q 104 52 87 45 q 129 70 120 58 q 144 100 138 81 q 150 147 150 119 l 150 854 q 142 910 150 888 q 116 942 134 932 q 81 957 98 953 q 35 962 64 960 l 35 1003 l 489 1003 q 728 914 635 1003 q 822 693 822 825 q 773 526 822 599 q 644 416 725 454 q 463 378 562 378 l 302 378 l 302 147 q 309 101 302 120 q 324 70 315 81 q 350 52 334 59 q 381 42 366 45 q 419 39 396 40 l 419 -1 l 35 -1 l 35 39 m 302 441 l 441 441 q 602 513 541 441 q 663 693 663 584 q 606 870 663 800 q 452 940 549 940 l 302 940 l 302 441 z "},"Q":{"ha":1021,"x_min":43,"x_max":1074,"o":"m 503 -17 q 323 18 408 -22 q 177 128 238 58 q 79 297 115 199 q 43 504 43 395 q 80 709 43 613 q 179 872 117 805 q 327 978 242 939 q 504 1017 411 1017 q 733 951 627 1017 q 902 768 838 886 q 965 505 965 650 q 895 233 965 352 q 711 47 825 113 q 800 -73 755 -31 q 904 -115 844 -115 q 1038 -45 983 -115 l 1074 -54 q 986 -180 1040 -132 q 854 -228 931 -228 q 783 -215 816 -228 q 725 -181 749 -201 q 679 -129 701 -161 q 643 -67 657 -96 q 611 3 628 -38 q 503 -17 555 -15 m 210 504 q 296 170 210 303 q 327 282 286 234 q 437 330 368 330 q 499 318 470 330 q 551 288 529 305 q 596 239 573 270 q 635 183 620 208 q 671 119 650 158 q 766 284 732 182 q 800 505 800 387 q 765 728 800 627 q 661 892 730 829 q 504 954 593 954 q 380 918 437 954 q 287 819 324 881 q 230 675 250 756 q 210 504 210 593 m 390 75 q 504 45 444 45 q 589 61 549 45 q 564 126 573 102 q 538 180 554 149 q 507 228 522 212 q 471 255 492 243 q 425 267 450 267 q 381 255 401 267 q 352 224 361 244 q 341 181 342 205 q 352 129 340 157 q 390 75 365 100 z "},"R":{"ha":926,"x_min":35,"x_max":953,"o":"m 35 39 q 73 42 58 40 q 104 52 87 45 q 129 70 120 58 q 144 100 138 81 q 150 147 150 119 l 150 854 q 142 910 150 888 q 116 942 134 932 q 81 957 98 953 q 35 962 64 960 l 35 1003 l 493 1003 q 718 928 629 1003 q 806 733 806 852 q 743 559 806 631 q 581 467 681 488 l 804 138 q 877 61 844 79 q 953 39 909 42 l 953 -1 l 724 -1 l 425 453 l 301 453 l 301 147 q 307 101 301 120 q 323 70 313 81 q 349 52 332 59 q 380 42 365 45 q 418 39 395 40 l 418 -1 l 35 -1 l 35 39 m 301 513 l 473 513 q 599 570 551 513 q 647 726 647 627 q 595 885 647 827 q 446 943 543 943 l 301 943 l 301 513 z "},"S":{"ha":754,"x_min":40,"x_max":707,"o":"m 372 -17 q 45 72 212 -17 l 41 332 l 83 332 q 122 198 94 254 q 191 109 151 141 q 275 62 231 77 q 370 47 319 47 q 520 94 467 47 q 572 220 574 140 q 563 275 572 249 q 535 322 554 300 q 495 360 517 343 q 441 395 474 378 q 379 426 408 412 q 307 456 350 439 q 104 581 168 509 q 41 747 40 652 q 135 941 43 865 q 382 1017 227 1017 q 675 942 527 1017 l 677 693 l 639 693 q 380 954 595 954 q 231 910 286 954 q 175 798 175 866 q 239 682 174 734 q 447 575 304 631 q 644 448 581 520 q 707 268 707 376 q 688 162 706 210 q 639 81 670 114 q 566 26 608 48 q 475 -7 524 3 q 372 -17 427 -17 z "},"T":{"ha":905,"x_min":25,"x_max":879,"o":"m 257 39 q 304 44 286 41 q 340 59 322 48 q 367 91 358 69 q 375 147 375 113 l 375 940 l 283 940 q 186 925 227 940 q 122 880 145 910 q 86 817 98 850 q 66 734 73 783 l 25 737 l 37 953 l 41 1003 l 863 1003 l 867 953 l 879 737 l 839 734 q 819 817 831 783 q 784 880 807 850 q 720 925 760 910 q 623 940 680 940 l 526 940 l 526 147 q 532 101 526 120 q 548 70 538 81 q 574 52 557 59 q 606 42 590 45 q 644 39 621 40 l 644 -1 l 257 -1 l 257 39 z "},"U":{"ha":993,"x_min":24,"x_max":971,"o":"m 504 -18 q 369 5 432 -18 q 253 75 305 28 q 171 200 201 121 q 140 382 140 279 l 140 854 q 132 910 140 888 q 106 942 124 932 q 70 957 87 953 q 24 962 53 960 l 24 1003 l 408 1003 l 408 962 q 361 957 379 960 q 326 942 344 953 q 300 910 308 932 q 292 854 292 888 l 292 380 q 355 151 292 230 q 533 72 419 72 q 630 89 586 72 q 710 140 675 106 q 766 232 746 174 q 786 367 786 290 l 786 854 q 778 909 786 888 q 751 941 769 930 q 714 955 732 951 q 665 961 696 959 l 665 1003 l 971 1003 l 971 961 q 931 957 947 960 q 899 948 916 955 q 872 931 882 942 q 856 901 863 920 q 850 854 850 882 l 850 358 q 823 193 850 266 q 749 75 796 121 q 640 5 702 29 q 504 -18 577 -18 z "},"V":{"ha":1021,"x_min":0,"x_max":1015,"o":"m 374 962 q 291 940 313 959 q 293 865 270 921 l 558 207 l 808 864 q 819 900 817 885 q 816 926 821 916 q 804 943 811 937 q 783 953 798 949 q 757 959 769 957 q 725 962 745 961 l 725 1003 l 1015 1003 l 1015 962 q 928 937 960 958 q 873 857 897 916 l 545 -1 l 484 -1 l 134 857 q 78 940 107 920 q 0 962 48 959 l 0 1003 l 374 1003 l 374 962 z "},"W":{"ha":1441,"x_min":8,"x_max":1443,"o":"m 144 857 q 93 938 123 918 q 8 962 62 958 l 8 1003 l 383 1003 l 383 962 q 346 958 359 960 q 317 949 332 956 q 296 932 302 943 q 291 904 291 922 q 300 861 291 886 l 521 237 l 686 725 l 640 857 q 587 938 619 918 q 497 962 555 958 l 497 1003 l 882 1003 l 882 962 q 844 959 859 961 q 815 949 829 956 q 794 932 800 943 q 788 904 788 922 q 796 861 787 886 l 1018 233 l 1234 863 q 1242 905 1242 888 q 1236 933 1242 923 q 1216 949 1230 943 q 1186 958 1201 956 q 1147 961 1171 960 l 1147 1003 l 1443 1003 l 1443 962 q 1398 956 1415 960 q 1361 942 1381 952 q 1326 910 1341 931 q 1300 856 1312 889 l 1007 7 l 1006 -1 l 942 -1 l 721 628 l 511 9 l 509 -1 l 444 -1 l 444 1 l 144 857 z "},"X":{"ha":989,"x_min":12,"x_max":970,"o":"m 575 39 q 620 44 604 41 q 648 57 636 47 q 656 83 659 66 q 636 127 653 100 l 456 421 l 256 125 q 235 82 238 98 q 243 57 231 65 q 272 45 255 48 q 318 40 288 42 l 318 -1 l 17 -1 l 17 39 q 110 62 71 42 q 186 136 149 81 l 419 479 l 182 864 q 142 915 162 895 q 98 944 121 935 q 58 957 75 954 q 12 962 40 960 l 12 1003 l 407 1003 l 407 962 q 362 956 378 960 q 334 943 345 952 q 326 917 323 934 q 346 873 329 900 l 524 586 l 720 872 q 743 917 739 899 q 736 943 747 935 q 708 956 724 952 q 663 961 692 959 l 663 1003 l 965 1003 l 965 962 q 919 956 937 960 q 878 943 901 952 q 835 914 855 933 q 794 865 814 895 l 559 529 l 800 139 q 874 62 836 81 q 970 39 911 43 l 970 -1 l 575 -1 l 575 39 z "},"Y":{"ha":983,"x_min":-4,"x_max":986,"o":"m 164 861 q 129 912 147 892 q 88 942 111 932 q 45 956 65 952 q -4 962 26 960 l -4 1003 l 395 1003 l 395 961 q 348 955 366 959 q 318 941 331 951 q 307 910 305 930 q 323 860 309 890 l 525 456 l 749 869 q 766 917 764 899 q 754 944 768 935 q 725 956 741 953 q 677 962 709 960 l 677 1003 l 986 1003 l 986 962 q 936 956 956 960 q 893 942 916 952 q 852 912 871 932 q 817 861 833 892 l 562 393 l 562 147 q 571 91 562 113 q 597 59 579 69 q 634 44 616 48 q 681 39 652 41 l 681 -1 l 293 -1 l 293 39 q 340 44 322 41 q 376 59 358 48 q 402 91 394 69 q 411 147 411 113 l 411 382 l 164 861 z "},"Z":{"ha":827,"x_min":31,"x_max":794,"o":"m 31 -1 l 589 940 l 319 940 q 239 927 274 940 q 180 895 203 915 q 140 842 157 874 q 113 777 123 810 q 97 700 104 743 l 56 701 l 77 956 l 81 1003 l 794 1003 l 235 60 l 507 60 q 589 72 553 60 q 649 105 625 85 q 689 158 672 126 q 715 224 706 191 q 730 300 724 257 l 774 298 l 751 45 l 747 -1 l 31 -1 z "},"[":{"ha":414,"x_min":100,"x_max":379,"o":"m 100 -149 l 100 1084 l 379 1084 l 379 1050 q 257 1018 290 1034 q 224 979 224 1002 l 224 -52 q 245 -82 224 -73 q 344 -106 266 -91 q 379 -114 366 -111 l 379 -149 l 100 -149 z "},"\\":{"ha":605,"x_min":68,"x_max":582,"o":"m 582 -122 l 515 -122 l 68 1084 l 135 1084 l 582 -122 z "},"]":{"ha":414,"x_min":35,"x_max":314,"o":"m 314 -149 l 35 -149 l 35 -114 q 71 -106 47 -111 q 174 -79 157 -89 q 191 -52 191 -70 l 191 979 q 157 1018 191 1002 q 35 1050 124 1034 l 35 1084 l 314 1084 l 314 -149 z "},"^":{"ha":629,"x_min":58,"x_max":571,"o":"m 542 777 l 315 869 l 87 777 l 58 806 l 309 1010 l 314 1015 l 315 1015 l 321 1010 l 571 806 l 542 777 z "},"_":{"ha":791,"x_min":58,"x_max":728,"o":"m 58 -49 l 58 21 l 728 21 l 728 -49 l 58 -49 z "},"`":{"ha":868,"x_min":-18,"x_max":252,"o":"m 216 807 l -18 1021 l -18 1044 l 153 1044 l 252 807 l 216 807 z "},"a":{"ha":651,"x_min":32,"x_max":639,"o":"m 240 -12 q 90 43 147 -12 q 32 180 32 98 q 83 314 32 258 q 224 393 134 370 q 427 400 315 416 l 427 475 q 387 577 427 544 q 286 611 348 611 q 175 582 230 611 q 79 490 120 553 l 45 501 q 149 645 73 587 q 325 704 226 703 q 498 646 426 705 q 570 488 570 586 l 570 129 q 573 90 570 102 q 589 78 577 78 q 619 90 599 78 l 639 64 q 592 11 623 32 q 524 -11 561 -11 q 457 13 483 -11 q 428 72 432 37 q 240 -12 352 -12 m 175 199 q 204 107 175 144 q 292 71 233 71 q 427 146 373 71 l 427 343 q 243 320 312 360 q 175 199 175 279 z "},"b":{"ha":715,"x_min":-50,"x_max":675,"o":"m 68 864 q 54 925 68 905 q 15 947 39 945 q -45 946 -10 949 l -50 983 l 212 1031 l 212 606 q 411 705 294 705 q 600 612 525 705 q 675 354 675 518 q 651 197 675 267 q 586 83 627 127 q 491 14 545 38 q 376 -9 437 -9 q 172 66 262 -9 l 106 -1 l 68 -1 l 68 864 m 212 271 q 251 110 214 167 q 358 53 288 53 q 476 124 433 53 q 519 319 519 195 q 477 535 519 454 q 354 616 435 616 q 212 532 271 616 l 212 271 z "},"c":{"ha":658,"x_min":36,"x_max":625,"o":"m 347 -11 q 228 14 284 -11 q 129 85 171 39 q 61 198 86 130 q 36 349 36 267 q 128 606 36 506 q 364 705 220 705 q 604 628 487 705 l 606 441 l 567 441 q 371 642 507 642 q 234 566 282 642 q 186 372 186 490 q 243 168 186 249 q 399 86 301 86 q 505 117 456 86 q 591 203 555 148 l 625 195 q 523 48 595 107 q 347 -11 450 -11 z "},"d":{"ha":801,"x_min":40,"x_max":760,"o":"m 539 -1 q 507 90 514 50 q 304 -14 423 -14 q 115 80 191 -14 q 40 338 40 174 q 64 494 40 425 q 129 609 88 564 q 224 677 170 654 q 339 701 278 701 q 501 656 427 701 l 501 864 q 475 938 501 923 q 390 946 449 952 l 385 983 l 647 1031 l 647 143 q 674 61 647 81 q 760 37 701 41 l 760 -1 l 539 -1 m 196 372 q 238 157 196 238 q 361 75 279 75 q 501 157 441 75 l 501 454 q 458 591 495 543 q 357 639 420 639 q 239 568 282 639 q 196 372 196 497 z "},"e":{"ha":676,"x_min":41,"x_max":635,"o":"m 357 -11 q 236 14 293 -11 q 136 85 179 39 q 67 199 92 130 q 41 349 41 267 q 128 607 41 508 q 347 705 214 705 q 557 608 481 705 q 629 359 633 511 l 191 359 q 252 159 195 231 q 400 87 309 87 q 602 200 520 87 l 635 192 q 534 49 609 109 q 357 -11 460 -11 m 192 419 l 484 419 q 440 581 478 517 q 343 646 402 646 q 268 613 301 646 q 216 530 235 580 q 192 419 197 479 z "},"f":{"ha":488,"x_min":17,"x_max":595,"o":"m 17 37 q 99 61 73 41 q 125 143 125 81 l 125 636 l 25 636 l 25 697 l 125 697 q 203 936 131 854 q 383 1018 275 1018 q 500 988 441 1018 q 595 901 559 958 l 494 838 l 475 847 q 433 931 461 902 q 367 958 405 960 q 295 915 323 957 q 268 804 268 872 l 268 697 l 458 697 l 458 636 l 268 636 l 268 143 q 274 99 268 117 q 288 69 279 80 q 313 52 297 58 q 344 42 329 45 q 383 37 359 39 l 383 -1 l 17 -1 l 17 37 z "},"g":{"ha":712,"x_min":36,"x_max":686,"o":"m 347 -302 q 199 -283 268 -302 q 83 -221 130 -263 q 36 -121 36 -178 q 63 -41 36 -76 q 136 16 91 -7 q 70 69 91 36 q 49 136 49 102 q 78 216 49 181 q 158 273 107 252 q 64 460 64 344 q 104 590 64 533 q 208 676 145 648 q 340 705 271 705 q 482 672 416 705 q 568 753 510 728 q 686 761 627 778 l 672 644 l 653 644 q 529 642 591 677 q 619 460 619 573 q 577 329 619 386 q 473 242 536 271 q 340 214 410 214 q 208 243 267 214 q 157 180 157 216 q 185 139 157 156 q 268 121 213 123 l 467 111 q 618 59 564 107 q 673 -71 673 12 q 583 -241 673 -180 q 347 -302 492 -302 m 154 -96 q 213 -200 154 -158 q 374 -241 273 -241 q 519 -205 468 -241 q 571 -114 571 -168 q 537 -46 571 -72 q 437 -17 503 -20 l 248 -7 l 200 -3 q 154 -96 154 -41 m 211 458 q 247 325 211 376 q 340 273 282 273 q 435 325 399 273 q 471 458 471 376 q 435 594 471 543 q 340 646 399 646 q 247 594 282 646 q 211 458 211 543 z "},"h":{"ha":806,"x_min":11,"x_max":793,"o":"m 18 37 q 62 43 45 39 q 95 58 79 47 q 118 90 111 68 q 125 143 125 111 l 125 864 q 112 925 125 905 q 75 947 98 945 q 20 946 52 949 l 11 982 l 268 1031 l 268 600 q 472 705 351 705 q 551 691 513 705 q 620 651 589 677 q 671 581 652 625 q 690 481 690 536 l 690 143 q 697 90 690 111 q 720 58 705 68 q 751 43 735 47 q 793 37 767 39 l 793 -1 l 452 -1 l 452 37 q 526 61 503 41 q 549 143 549 81 l 549 467 q 510 568 549 532 q 419 603 472 603 q 268 524 337 603 l 268 143 q 293 61 268 81 q 372 37 317 41 l 372 -1 l 18 -1 l 18 37 z "},"i":{"ha":395,"x_min":26,"x_max":392,"o":"m 26 37 q 74 44 56 39 q 108 59 92 48 q 132 91 124 70 q 139 143 139 111 l 139 553 q 132 605 139 585 q 108 637 124 626 q 74 653 92 648 q 28 660 56 658 l 28 697 l 279 697 l 279 143 q 307 61 279 82 q 392 37 334 41 l 392 -1 l 26 -1 l 26 37 m 96 924 q 125 992 96 964 q 195 1021 154 1021 q 264 992 235 1021 q 293 924 293 964 q 264 855 293 884 q 195 827 235 827 q 125 856 155 827 q 96 924 96 884 z "},"j":{"ha":369,"x_min":-36,"x_max":283,"o":"m -36 -228 q 37 -172 7 -205 q 84 -105 68 -138 q 109 -28 100 -73 q 120 51 118 17 q 122 134 122 85 l 122 553 q 115 606 122 585 q 92 638 108 627 q 59 653 76 649 q 14 660 41 658 l 14 697 l 264 697 l 264 134 q 249 -11 264 52 q 209 -116 234 -75 q 145 -187 183 -157 q 68 -231 108 -216 q -22 -254 28 -246 l -36 -228 m 86 933 q 115 1002 86 973 q 184 1031 144 1031 q 254 1002 225 1031 q 283 933 283 973 q 254 865 283 893 q 184 836 224 836 q 115 865 144 836 q 86 933 86 894 z "},"k":{"ha":765,"x_min":-3,"x_max":771,"o":"m 524 -1 l 269 357 l 254 375 l 254 143 q 280 61 254 81 q 363 37 307 41 l 363 -1 l 4 -1 l 4 37 q 50 44 33 39 q 82 59 66 48 q 105 90 98 69 q 113 143 113 111 l 113 864 q 99 925 113 905 q 62 947 85 945 q 5 946 38 949 l -3 982 l 254 1031 l 254 380 l 471 558 q 522 616 522 600 q 395 656 522 646 l 395 697 l 720 697 l 720 676 l 399 415 l 604 131 q 680 60 644 77 q 771 37 716 42 l 771 -1 l 524 -1 z "},"l":{"ha":402,"x_min":11,"x_max":385,"o":"m 20 37 q 105 61 78 41 q 132 143 132 81 l 132 864 q 118 924 132 905 q 79 946 104 944 q 20 945 54 948 l 11 981 l 272 1031 l 272 143 q 280 90 272 111 q 304 58 288 68 q 339 43 321 47 q 385 37 356 39 l 385 -1 l 20 -1 l 20 37 z "},"m":{"ha":1161,"x_min":14,"x_max":1149,"o":"m 808 37 q 882 61 859 41 q 904 143 904 81 l 904 467 q 872 567 904 533 q 789 600 840 600 q 650 525 718 600 q 653 481 653 491 l 653 143 q 660 89 653 110 q 680 57 666 68 q 709 43 694 47 q 749 37 724 39 l 749 -1 l 416 -1 l 416 37 q 490 61 467 41 q 513 143 513 81 l 513 467 q 481 566 513 532 q 399 600 450 600 q 261 524 328 600 l 261 143 q 268 90 261 111 q 289 58 274 68 q 320 43 304 47 q 363 37 336 39 l 363 -1 l 14 -1 l 14 37 q 58 43 41 39 q 91 58 75 47 q 114 90 106 69 q 121 143 121 111 l 121 553 q 96 634 121 612 q 14 660 71 656 l 14 697 l 261 697 l 261 599 q 456 705 344 705 q 566 674 517 705 q 636 581 614 642 q 844 705 724 705 q 987 647 929 705 q 1044 481 1044 589 l 1044 143 q 1070 61 1044 81 q 1149 37 1095 41 l 1149 -1 l 808 -1 l 808 37 z "},"n":{"ha":795,"x_min":14,"x_max":782,"o":"m 440 37 q 514 61 491 41 q 536 143 536 81 l 536 467 q 500 568 536 532 q 411 603 464 603 q 260 522 330 603 l 260 143 q 282 61 260 81 q 355 37 304 41 l 355 -1 l 14 -1 l 14 37 q 92 61 66 41 q 117 143 117 82 l 117 553 q 109 607 117 586 q 86 639 102 629 q 54 654 70 650 q 14 660 39 658 l 14 697 l 260 697 l 260 599 q 355 679 302 652 q 465 705 409 705 q 543 691 505 705 q 611 651 581 677 q 660 580 642 624 q 679 481 679 536 l 679 143 q 704 61 679 81 q 782 37 728 41 l 782 -1 l 440 -1 l 440 37 z "},"o":{"ha":736,"x_min":36,"x_max":700,"o":"m 368 -11 q 240 15 300 -11 q 134 87 179 41 q 62 202 89 134 q 36 350 36 270 q 62 497 36 430 q 134 610 89 565 q 240 680 179 655 q 368 705 300 705 q 604 607 507 705 q 700 350 700 508 q 654 160 700 243 q 533 33 608 77 q 368 -11 458 -11 m 195 350 q 205 236 195 290 q 237 141 216 183 q 292 74 258 98 q 368 49 326 49 q 465 92 425 49 q 524 202 505 135 q 543 350 543 269 q 524 496 543 430 q 465 604 505 562 q 368 646 425 646 q 271 604 311 646 q 213 496 231 562 q 195 350 195 431 z "},"p":{"ha":740,"x_min":-18,"x_max":700,"o":"m -18 -250 q 66 -224 40 -245 q 93 -143 93 -203 l 93 553 q 85 605 93 585 q 62 637 78 626 q 28 653 46 648 q -18 660 10 658 l -18 697 l 237 697 l 237 606 q 436 705 319 705 q 625 612 550 705 q 700 354 700 518 q 676 197 700 267 q 611 83 652 127 q 516 14 570 38 q 401 -9 463 -9 q 237 37 314 -9 l 237 -143 q 265 -226 237 -205 q 350 -250 293 -247 l 350 -288 l -18 -288 l -18 -250 m 237 271 q 276 110 239 167 q 383 53 313 53 q 502 124 458 53 q 545 319 545 195 q 503 535 545 454 q 379 616 460 616 q 237 532 296 616 l 237 271 z "},"q":{"ha":733,"x_min":40,"x_max":764,"o":"m 382 -249 q 429 -243 410 -247 q 466 -228 448 -239 q 492 -194 484 -216 q 501 -139 501 -172 l 501 82 q 304 -17 418 -17 q 115 77 191 -17 q 40 335 40 171 q 64 492 40 422 q 129 606 88 562 q 224 675 170 651 q 339 699 278 699 q 529 633 442 699 l 606 697 l 646 697 l 646 -139 q 654 -195 646 -173 q 680 -228 663 -216 q 716 -243 698 -239 q 764 -249 735 -247 l 764 -288 l 382 -288 l 382 -249 m 196 370 q 238 154 196 235 q 361 72 279 72 q 501 154 441 72 l 501 452 q 458 588 495 540 q 357 636 420 636 q 239 565 282 636 q 196 370 196 494 z "},"r":{"ha":570,"x_min":24,"x_max":545,"o":"m 24 37 q 106 61 79 41 q 132 143 132 82 l 132 553 q 106 634 132 614 q 24 660 81 655 l 24 697 l 273 697 l 273 507 q 319 596 292 556 q 381 663 346 635 q 457 699 416 690 q 545 696 498 708 l 524 551 l 504 551 q 450 564 477 563 q 397 554 422 564 q 349 521 372 544 q 310 465 326 498 q 283 385 293 433 q 273 279 273 336 l 273 143 q 299 61 273 81 q 382 37 326 41 l 382 -1 l 24 -1 l 24 37 z "},"s":{"ha":591,"x_min":49,"x_max":553,"o":"m 307 -12 q 49 57 201 -12 l 53 257 l 92 257 q 310 47 147 47 q 401 75 368 47 q 435 153 435 102 q 433 174 435 164 q 427 192 432 183 q 418 208 422 201 q 404 223 414 215 q 389 236 394 231 q 368 249 383 241 q 345 260 352 256 q 317 272 338 264 q 289 284 297 281 q 256 297 280 288 q 187 327 214 314 q 131 358 160 339 q 86 396 102 376 q 59 442 70 415 q 49 501 49 469 q 118 648 49 593 q 298 704 188 704 q 528 647 409 704 l 524 460 l 486 460 q 296 646 444 646 q 202 620 237 646 q 167 549 167 593 q 171 522 167 534 q 185 499 175 510 q 206 481 196 488 q 236 463 216 473 q 271 447 257 453 q 314 429 285 441 q 361 410 343 417 q 439 377 408 393 q 498 336 471 360 q 539 279 526 313 q 553 203 553 246 q 484 45 553 103 q 307 -12 414 -12 z "},"t":{"ha":487,"x_min":3,"x_max":461,"o":"m 273 -11 q 148 43 192 -11 q 103 184 103 96 l 103 631 l 3 631 l 3 672 l 18 675 q 130 744 80 693 q 208 876 179 795 l 248 876 l 248 697 l 437 697 l 437 631 l 248 631 l 248 200 q 267 115 248 143 q 332 86 287 86 q 429 134 380 86 l 461 125 q 273 -11 393 -11 z "},"u":{"ha":846,"x_min":31,"x_max":806,"o":"m 350 -9 q 271 4 309 -9 q 202 45 233 18 q 152 116 171 72 q 134 215 134 160 l 134 553 q 126 607 134 586 q 103 639 119 629 q 71 654 87 650 q 31 660 56 658 l 31 697 l 277 697 l 277 229 q 313 129 277 163 q 403 94 349 94 q 561 178 491 94 l 561 553 q 537 636 561 615 q 464 660 514 656 l 464 697 l 703 697 l 703 143 q 708 98 703 117 q 722 68 713 79 q 745 50 730 57 q 772 41 759 43 q 806 37 785 39 l 806 -1 l 596 -1 q 566 104 574 45 q 467 20 522 50 q 350 -9 411 -9 z "},"v":{"ha":779,"x_min":9,"x_max":771,"o":"m 134 555 q 80 636 107 617 q 9 660 54 655 l 9 697 l 353 697 l 353 660 q 309 653 325 657 q 282 638 293 648 q 273 610 272 628 q 286 566 275 593 l 437 201 l 583 566 q 593 606 593 589 q 590 632 594 623 q 572 648 585 642 q 547 656 559 654 q 513 660 534 658 l 513 697 l 771 697 l 771 660 q 734 653 749 658 q 703 638 719 649 q 672 608 686 628 q 646 555 659 587 l 425 -1 l 366 -1 l 134 555 z "},"w":{"ha":1156,"x_min":18,"x_max":1139,"o":"m 139 555 q 92 636 118 616 q 18 660 66 655 l 18 697 l 370 697 l 370 660 q 333 655 347 658 q 305 647 319 653 q 286 630 291 640 q 281 603 281 620 q 289 561 281 585 l 400 227 l 550 697 l 675 697 l 831 218 l 947 561 q 955 603 956 585 q 949 631 955 621 q 929 647 943 641 q 901 655 915 653 q 865 659 886 658 l 865 697 l 1139 697 l 1139 660 q 1087 649 1107 656 q 1049 619 1068 642 q 1015 555 1029 596 l 822 -1 l 757 -1 l 571 549 l 396 8 l 395 -1 l 330 -1 l 139 555 z "},"x":{"ha":800,"x_min":20,"x_max":781,"o":"m 421 37 q 463 43 448 39 q 487 55 477 47 q 491 80 496 64 q 468 121 486 96 l 363 273 l 253 119 q 230 78 235 94 q 234 54 224 62 q 256 43 243 46 q 294 37 269 40 l 294 -1 l 29 -1 l 29 37 q 112 59 78 41 q 184 131 145 78 l 328 325 l 164 564 q 95 636 127 617 q 20 660 64 655 l 20 697 l 378 697 l 378 660 q 335 655 350 659 q 311 644 320 652 q 306 621 302 635 q 325 583 309 606 l 437 419 l 551 583 q 571 622 568 607 q 564 645 574 637 q 537 656 553 653 q 494 660 522 659 l 494 697 l 762 697 l 762 660 q 686 637 717 655 q 615 566 654 620 l 472 367 l 633 132 q 704 59 672 77 q 781 37 736 41 l 781 -1 l 421 -1 l 421 37 z "},"y":{"ha":798,"x_min":17,"x_max":785,"o":"m 66 -233 l 89 -123 l 111 -110 q 268 -146 203 -162 q 361 -53 332 -130 l 371 -26 l 138 555 q 87 636 113 616 q 17 660 61 655 l 17 697 l 358 697 l 358 660 q 315 653 330 657 q 290 638 300 648 q 279 610 279 629 q 292 564 280 592 l 444 168 l 595 562 q 596 636 616 618 q 522 659 576 655 l 522 697 l 785 697 l 785 660 q 713 635 741 655 q 661 555 685 616 l 425 -58 q 66 -233 305 -368 z "},"z":{"ha":642,"x_min":29,"x_max":608,"o":"m 29 -1 l 404 636 l 260 636 q 177 624 211 636 q 124 586 144 612 q 94 531 104 560 q 77 457 84 502 l 37 460 l 53 653 l 57 697 l 608 697 l 232 60 l 392 60 q 505 104 470 60 q 554 239 539 148 l 593 236 l 579 45 l 574 -1 l 29 -1 z "},"{":{"ha":450,"x_min":78,"x_max":440,"o":"m 78 490 l 89 490 q 139 518 127 496 q 151 600 151 540 q 145 761 151 656 q 139 907 139 867 q 192 1036 139 989 q 355 1083 245 1083 q 440 1080 427 1083 l 440 1039 q 304 1015 344 1041 q 264 928 264 988 q 275 778 264 886 q 286 621 286 670 q 196 467 286 511 q 286 313 286 422 q 275 156 286 264 q 264 5 264 47 q 304 -82 264 -56 q 440 -107 344 -109 l 440 -147 q 355 -150 385 -150 q 192 -103 244 -150 q 139 26 139 -57 q 145 173 139 66 q 151 335 151 280 q 139 415 151 395 q 89 441 127 435 l 78 441 l 78 490 z "},"|":{"ha":493,"x_min":214,"x_max":275,"o":"m 214 -97 l 214 1099 l 275 1099 l 275 -97 l 214 -97 z "},"}":{"ha":448,"x_min":5,"x_max":368,"o":"m 368 441 l 357 441 q 307 415 319 435 q 294 335 294 395 q 301 173 294 280 q 307 26 307 66 q 254 -103 307 -57 q 90 -150 201 -150 q 5 -147 61 -150 l 5 -107 q 142 -82 102 -109 q 182 5 182 -56 q 171 156 182 47 q 160 313 160 264 q 250 467 160 422 q 160 621 160 511 q 171 778 160 670 q 182 928 182 886 q 142 1015 182 988 q 5 1039 102 1041 l 5 1080 q 90 1083 19 1083 q 254 1036 201 1083 q 307 907 307 989 q 301 761 307 867 q 294 600 294 656 q 307 518 294 540 q 357 490 319 496 l 368 490 l 368 441 z "},"~":{"ha":852,"x_min":135,"x_max":710,"o":"m 710 446 q 554 397 616 397 q 422 425 503 397 q 300 452 342 452 q 225 439 262 452 q 135 397 188 426 l 135 463 q 298 511 217 511 q 427 485 347 511 q 549 458 506 458 q 620 471 583 458 q 710 511 656 483 l 710 446 z "},"¡":{"ha":374,"x_min":86,"x_max":288,"o":"m 211 431 q 239 173 220 342 q 271 -116 258 3 q 285 -271 284 -235 l 90 -271 q 104 -119 92 -235 q 136 173 116 -3 q 164 431 155 349 l 211 431 m 86 644 q 116 714 86 684 q 187 743 146 743 q 258 714 228 743 q 288 644 288 684 q 258 573 288 602 q 187 543 229 543 q 116 573 146 543 q 86 644 86 602 z "},"¢":{"ha":686,"x_min":50,"x_max":639,"o":"m 335 -131 l 346 -11 q 135 93 220 -5 q 50 349 50 191 q 142 606 50 506 q 378 705 234 705 q 408 704 399 705 l 419 833 l 479 833 l 467 694 q 618 628 541 678 l 619 441 l 581 441 q 461 624 538 581 l 414 86 q 519 117 470 86 q 606 203 569 149 l 639 195 q 552 61 612 117 q 406 -8 492 5 l 395 -131 l 335 -131 m 200 372 q 241 194 200 270 q 354 94 282 118 l 403 640 q 385 642 397 642 q 248 566 296 642 q 200 372 200 490 z "},"£":{"ha":783,"x_min":47,"x_max":768,"o":"m 47 43 q 200 400 200 229 q 199 435 200 424 l 75 435 l 75 497 l 187 497 q 157 589 178 534 q 122 690 136 644 q 109 778 109 736 q 200 952 109 886 q 425 1017 292 1019 q 688 945 555 1015 l 690 673 l 654 673 q 561 884 623 812 q 416 954 499 956 q 303 911 345 954 q 261 796 261 868 q 296 643 261 743 q 339 497 332 544 l 602 497 l 602 435 l 343 435 q 339 398 342 416 q 332 365 336 380 q 320 331 329 350 q 306 299 311 311 q 288 267 301 288 q 268 237 274 246 q 245 205 262 229 q 222 176 227 182 q 196 144 216 169 q 171 113 176 119 q 275 138 224 132 q 358 139 326 143 q 437 128 391 134 q 514 121 483 121 q 640 151 586 117 q 732 272 694 185 l 768 265 q 726 139 750 192 q 678 56 702 85 q 625 9 654 26 q 573 -13 596 -8 q 521 -18 549 -18 q 433 -8 481 -18 q 344 11 385 1 q 257 27 303 21 q 157 26 211 34 q 47 -7 104 18 l 47 43 z "},"¤":{"ha":815,"x_min":68,"x_max":746,"o":"m 407 134 q 225 196 306 134 l 121 94 l 68 147 l 171 249 q 107 433 107 331 q 172 618 107 536 l 72 717 l 122 770 l 224 668 q 407 732 304 732 q 590 668 510 732 l 693 768 l 745 715 l 643 615 q 705 433 705 534 q 643 250 705 334 l 746 149 l 693 96 l 591 197 q 407 134 509 134 m 257 585 q 227 553 257 585 q 196 433 196 522 q 257 282 196 345 q 407 218 319 218 q 555 282 494 218 q 616 433 616 345 q 555 585 616 522 q 407 648 493 648 q 257 585 319 648 z "},"¥":{"ha":1025,"x_min":17,"x_max":1007,"o":"m 184 221 l 184 282 l 432 282 l 432 382 l 429 386 l 184 386 l 184 447 l 399 447 l 184 861 q 149 912 168 892 q 109 942 131 932 q 66 956 86 952 q 17 962 47 960 l 17 1003 l 415 1003 l 415 961 q 369 955 386 959 q 339 941 351 951 q 328 910 326 930 q 345 860 330 890 l 546 456 l 770 869 q 787 917 785 899 q 775 944 789 935 q 746 956 762 953 q 699 962 730 960 l 699 1003 l 1007 1003 l 1007 962 q 957 956 977 960 q 915 942 937 952 q 873 912 892 932 q 838 861 854 892 l 612 447 l 828 447 l 828 386 l 583 386 l 583 282 l 828 282 l 828 221 l 583 221 l 583 147 q 592 91 583 113 q 618 59 600 69 q 654 44 636 48 q 701 39 672 41 l 701 -1 l 314 -1 l 314 39 q 361 44 343 41 q 397 59 379 48 q 424 91 415 69 q 432 147 432 113 l 432 221 l 184 221 z "},"¦":{"ha":493,"x_min":214,"x_max":275,"o":"m 214 -1 l 214 437 l 275 437 l 275 -1 l 214 -1 m 214 566 l 214 1003 l 275 1003 l 275 566 l 214 566 z "},"§":{"ha":625,"x_min":81,"x_max":546,"o":"m 317 -155 q 83 -96 208 -155 l 83 75 l 123 75 q 197 -54 145 -13 q 317 -96 250 -96 q 406 -68 372 -96 q 439 5 439 -40 q 401 80 439 51 q 279 140 364 109 q 130 221 179 175 q 81 335 81 267 q 110 430 81 387 q 191 496 139 472 q 81 654 81 554 q 144 786 81 732 q 310 839 207 839 q 522 783 414 839 l 522 607 l 484 607 q 420 736 467 694 q 307 779 374 779 q 224 756 259 779 q 189 692 189 732 q 226 624 189 652 q 353 564 263 595 q 499 476 452 527 q 546 355 546 425 q 521 261 546 302 q 452 196 496 220 q 545 36 545 134 q 480 -104 545 -53 q 317 -155 416 -155 m 189 374 q 227 305 189 334 q 355 243 264 276 q 365 239 358 241 q 374 236 371 237 q 424 269 406 245 q 441 326 441 292 q 404 400 441 370 q 283 458 366 431 q 215 432 240 454 q 189 374 189 409 z "},"¨":{"ha":868,"x_min":197,"x_max":659,"o":"m 562 811 q 494 839 522 811 q 467 905 467 866 q 495 971 467 944 q 562 999 523 999 q 630 971 601 999 q 659 905 659 944 q 630 839 659 866 q 562 811 602 811 m 197 905 q 226 971 197 944 q 293 999 254 999 q 360 971 332 999 q 389 905 389 944 q 361 839 389 866 q 293 811 333 811 q 225 839 254 811 q 197 905 197 866 z "},"©":{"ha":1255,"x_min":138,"x_max":1117,"o":"m 873 49 q 817 16 873 49 q 628 -17 761 -17 q 382 49 495 -17 q 203 228 269 115 q 138 473 138 341 q 203 719 138 606 q 382 896 269 831 q 628 961 495 961 q 873 896 761 961 q 1052 719 986 831 q 1117 473 1117 606 q 1052 228 1117 341 q 873 49 986 115 m 208 473 q 263 260 208 357 q 415 106 318 163 q 629 50 512 50 q 842 107 745 50 q 993 260 938 163 q 1047 473 1048 357 q 992 688 1047 590 q 842 842 938 785 q 629 899 746 899 q 463 865 542 899 q 329 774 385 831 q 241 638 273 717 q 208 473 208 560 m 375 465 q 450 680 375 597 q 640 762 525 762 q 822 714 728 762 l 822 557 l 781 557 q 732 672 765 635 q 644 708 700 708 q 522 643 568 708 q 476 482 476 578 q 527 316 476 383 q 652 249 577 249 q 740 278 698 249 q 808 354 782 307 l 844 335 q 771 228 827 277 q 632 178 715 178 q 535 198 582 178 q 453 254 489 218 q 396 345 418 290 q 375 465 375 400 z "},"ª":{"ha":651,"x_min":32,"x_max":639,"o":"m 240 -12 q 90 43 147 -12 q 32 180 32 98 q 83 314 32 258 q 224 393 134 370 q 427 400 315 416 l 427 475 q 387 577 427 544 q 286 611 348 611 q 175 582 230 611 q 79 490 120 553 l 45 501 q 149 645 73 587 q 325 704 226 703 q 498 646 426 705 q 570 488 570 586 l 570 129 q 573 90 570 102 q 589 78 577 78 q 619 90 599 78 l 639 64 q 592 11 623 32 q 524 -11 561 -11 q 457 13 483 -11 q 428 72 432 37 q 240 -12 352 -12 m 175 199 q 204 107 175 144 q 292 71 233 71 q 427 146 373 71 l 427 343 q 243 320 312 360 q 175 199 175 279 z "},"«":{"ha":640,"x_min":58,"x_max":575,"o":"m 307 115 l 58 387 l 307 660 l 382 660 l 174 387 l 382 115 l 307 115 m 252 387 l 500 660 l 575 660 l 367 387 l 575 115 l 500 115 l 252 387 z "},"¬":{"ha":852,"x_min":0,"x_max":0,"o":""},"®":{"ha":712,"x_min":79,"x_max":632,"o":"m 357 463 q 160 544 241 463 q 79 739 79 625 q 160 935 79 854 q 357 1017 241 1017 q 551 935 471 1017 q 632 739 632 854 q 551 544 632 625 q 357 463 471 463 m 131 739 q 196 578 131 644 q 357 511 262 511 q 516 578 451 511 q 582 739 582 644 q 516 901 582 835 q 357 968 451 968 q 197 901 262 968 q 131 739 131 835 m 225 589 l 225 615 q 238 616 230 616 q 248 618 245 617 q 254 620 250 618 q 259 623 258 621 q 261 629 260 625 q 262 639 262 633 l 262 851 q 256 869 262 866 q 225 873 250 872 l 225 901 l 367 901 q 440 877 411 901 q 469 814 469 852 q 451 760 469 783 q 404 729 433 737 l 467 640 q 474 630 471 634 q 480 624 477 627 q 487 620 482 622 q 493 618 492 618 q 502 617 495 618 q 513 615 509 616 l 513 589 l 431 589 l 342 720 l 321 721 l 321 639 q 322 627 321 631 q 327 621 323 623 q 332 617 330 618 q 341 616 334 616 q 351 615 349 616 l 351 589 l 225 589 m 321 757 l 366 757 q 399 771 387 757 q 411 811 411 785 q 354 867 411 867 l 321 867 l 321 757 z "},"¯":{"ha":868,"x_min":228,"x_max":672,"o":"m 228 859 l 228 920 l 672 920 l 672 859 l 228 859 z "},"°":{"ha":540,"x_min":66,"x_max":473,"o":"m 268 615 q 124 675 182 615 q 66 815 66 735 q 124 957 66 897 q 268 1017 182 1017 q 414 957 355 1017 q 473 815 473 897 q 414 675 473 735 q 268 615 355 615 m 149 815 q 182 729 149 766 q 268 692 216 692 q 357 729 321 692 q 392 815 392 766 q 357 902 392 866 q 268 937 322 937 q 182 902 215 937 q 149 815 149 866 z "},"±":{"ha":862,"x_min":86,"x_max":774,"o":"m 115 89 l 115 150 l 747 150 l 747 89 l 115 89 m 86 497 l 86 557 l 297 557 q 370 558 354 557 q 392 566 387 560 q 398 581 397 570 q 399 631 399 593 q 399 656 399 647 l 399 865 l 461 865 l 461 654 q 462 585 461 600 q 468 566 463 570 q 561 557 475 557 l 774 557 l 774 497 l 561 497 q 490 495 508 497 q 468 489 473 494 q 462 470 463 485 q 461 401 461 454 l 461 192 l 399 192 l 399 401 q 398 468 399 452 q 392 489 397 484 q 297 497 382 497 l 86 497 z "},"²":{"ha":505,"x_min":50,"x_max":473,"o":"m 50 504 l 50 546 l 140 647 q 282 836 243 768 q 322 953 322 903 q 297 1024 322 1000 q 232 1048 273 1048 q 151 1021 187 1048 q 92 940 114 993 l 52 950 q 130 1083 72 1035 q 264 1131 188 1131 q 388 1086 338 1131 q 437 972 437 1041 q 426 912 437 943 q 400 856 415 882 q 347 789 385 831 q 281 717 310 747 q 191 625 252 687 l 178 606 l 301 606 q 375 614 347 606 q 415 635 404 623 q 436 669 427 647 l 473 659 l 452 582 l 428 504 l 50 504 z "},"³":{"ha":524,"x_min":54,"x_max":469,"o":"m 264 494 q 131 542 189 494 q 54 675 74 590 l 96 685 q 237 575 145 575 q 322 610 290 575 q 355 700 355 646 q 311 798 355 768 q 192 803 267 827 l 168 843 l 334 1022 l 231 1022 q 142 1006 163 1022 q 118 953 121 989 l 79 953 l 79 1122 l 463 1122 l 463 1078 l 273 867 q 415 821 361 871 q 468 690 469 770 q 408 551 467 607 q 264 494 349 494 z "},"´":{"ha":868,"x_min":201,"x_max":471,"o":"m 201 814 l 300 1053 l 471 1053 l 471 1028 l 236 814 l 201 814 z "},"µ":{"ha":852,"x_min":0,"x_max":0,"o":""},"¶":{"ha":865,"x_min":139,"x_max":739,"o":"m 453 376 q 294 414 365 376 q 181 523 222 451 q 139 690 139 595 q 165 818 139 759 q 234 917 191 877 q 334 980 277 958 q 453 1003 391 1003 l 628 1003 l 628 -1 l 558 -1 l 558 376 l 453 376 m 669 -1 l 669 1003 l 739 1003 l 739 -1 l 669 -1 z "},"·":{"ha":368,"x_min":89,"x_max":290,"o":"m 191 379 q 119 409 149 379 q 89 479 89 439 q 119 551 89 521 q 191 581 149 581 q 261 551 231 581 q 290 479 290 521 q 261 409 290 439 q 191 379 231 379 z "},"¸":{"ha":868,"x_min":286,"x_max":536,"o":"m 421 -264 q 286 -207 339 -264 l 286 -161 q 334 -187 312 -178 q 370 -196 355 -195 q 396 -191 385 -196 q 412 -176 407 -185 q 416 -154 416 -166 q 296 -96 416 -96 l 390 41 l 467 41 l 403 -47 q 499 -84 462 -55 q 536 -163 536 -113 q 504 -236 536 -210 q 421 -264 471 -262 z "},"¹":{"ha":353,"x_min":43,"x_max":317,"o":"m 68 536 q 122 554 106 540 q 139 615 139 568 l 139 1007 l 43 1007 l 43 1046 q 119 1074 86 1057 q 199 1122 151 1090 l 244 1122 l 244 615 q 261 554 244 569 q 317 536 279 540 l 317 503 l 68 503 l 68 536 z "},"º":{"ha":736,"x_min":36,"x_max":700,"o":"m 368 -11 q 240 15 300 -11 q 134 87 179 41 q 62 202 89 134 q 36 350 36 270 q 62 497 36 430 q 134 610 89 565 q 240 680 179 655 q 368 705 300 705 q 604 607 507 705 q 700 350 700 508 q 654 160 700 243 q 533 33 608 77 q 368 -11 458 -11 m 195 350 q 205 236 195 290 q 237 141 216 183 q 292 74 258 98 q 368 49 326 49 q 465 92 425 49 q 524 202 505 135 q 543 350 543 269 q 524 496 543 430 q 465 604 505 562 q 368 646 425 646 q 271 604 311 646 q 213 496 231 562 q 195 350 195 431 z "},"»":{"ha":639,"x_min":66,"x_max":583,"o":"m 335 115 l 260 115 l 468 387 l 260 660 l 335 660 l 583 387 l 335 115 m 66 115 l 275 387 l 66 660 l 142 660 l 390 387 l 142 115 l 66 115 z "},"¼":{"ha":1071,"x_min":43,"x_max":1035,"o":"m 68 425 q 122 443 106 429 q 139 504 139 457 l 139 896 l 43 896 l 43 935 q 119 962 86 945 q 199 1011 151 979 l 244 1011 l 244 504 q 261 443 244 458 q 317 425 279 429 l 317 392 l 68 392 l 68 425 m 147 -26 l 839 1047 l 892 1022 l 200 -53 l 147 -26 m 575 126 l 575 176 l 850 614 l 947 614 l 947 211 l 1035 211 l 1035 126 l 947 126 q 966 53 949 70 q 1018 33 982 37 l 1018 -5 l 766 -5 l 766 33 q 794 38 784 35 q 814 50 804 41 q 830 78 825 59 q 836 126 836 96 l 575 126 m 663 211 l 836 211 l 836 488 l 663 211 z "},"½":{"ha":1131,"x_min":43,"x_max":1099,"o":"m 68 425 q 122 443 106 429 q 139 504 139 457 l 139 896 l 43 896 l 43 935 q 119 962 86 945 q 199 1011 151 979 l 244 1011 l 244 504 q 261 443 244 458 q 317 425 279 429 l 317 392 l 68 392 l 68 425 m 144 -26 l 836 1047 l 889 1022 l 197 -53 l 144 -26 m 675 -4 l 675 37 l 765 139 q 908 328 868 260 q 947 444 947 395 q 923 516 947 491 q 857 541 898 541 q 776 513 812 541 q 717 432 739 485 l 676 441 q 755 574 696 526 q 889 623 813 623 q 1013 577 964 623 q 1063 464 1063 532 q 1057 416 1063 439 q 1034 365 1051 393 q 1002 316 1017 337 q 952 257 987 295 q 892 194 916 218 q 815 117 868 170 l 803 97 l 926 97 q 1001 106 972 97 q 1040 127 1029 115 q 1061 161 1052 139 l 1099 150 l 1076 74 l 1053 -4 l 675 -4 z "},"¾":{"ha":1221,"x_min":54,"x_max":1171,"o":"m 264 383 q 131 431 189 383 q 54 564 74 479 l 96 574 q 237 464 145 464 q 322 499 290 464 q 355 589 355 534 q 311 686 355 657 q 192 692 267 715 l 168 732 l 334 911 l 231 911 q 142 895 163 911 q 118 842 121 878 l 79 842 l 79 1011 l 463 1011 l 463 966 l 273 755 q 415 709 361 760 q 468 579 469 659 q 408 439 467 496 q 264 383 349 383 m 285 -26 l 977 1047 l 1029 1022 l 338 -53 l 285 -26 m 711 126 l 711 176 l 986 614 l 1083 614 l 1083 211 l 1171 211 l 1171 126 l 1083 126 q 1089 78 1084 96 q 1105 50 1095 59 q 1126 38 1116 41 q 1154 33 1136 35 l 1154 -5 l 903 -5 l 903 33 q 930 38 920 35 q 950 50 940 41 q 966 78 961 59 q 972 126 972 96 l 711 126 m 799 211 l 972 211 l 972 488 l 799 211 z "},"¿":{"ha":672,"x_min":72,"x_max":659,"o":"m 396 450 q 446 328 446 387 q 419 231 446 273 q 342 139 393 189 q 296 90 313 110 q 259 41 279 71 q 228 -18 238 12 q 218 -79 218 -47 q 258 -182 218 -144 q 364 -220 298 -220 q 509 -154 452 -220 q 566 43 566 -87 l 608 47 l 659 -192 q 510 -255 591 -229 q 357 -281 430 -281 q 155 -216 238 -281 q 72 -43 72 -151 q 84 29 72 -7 q 112 92 96 65 q 154 147 128 119 q 197 192 179 176 q 239 228 215 208 q 322 312 294 275 q 358 379 351 349 q 364 450 366 408 l 396 450 m 290 648 q 320 718 290 688 q 390 747 349 747 q 461 718 431 747 q 490 648 490 688 q 461 577 490 606 q 390 547 431 547 q 319 577 349 547 q 290 648 290 606 z "},"À":{"ha":998,"x_min":-7,"x_max":1010,"o":"m 637 39 q 674 43 661 41 q 703 52 688 45 q 723 68 718 58 q 728 95 729 78 q 718 136 728 113 l 635 346 l 285 346 l 203 136 q 193 95 193 112 q 197 67 192 77 q 216 52 202 58 q 245 43 231 45 q 283 39 259 41 l 283 -1 l -7 -1 l -7 39 q 78 63 45 42 q 136 146 111 84 l 473 1003 l 538 1003 l 879 146 q 933 62 904 83 q 1010 39 962 42 l 1010 -1 l 637 -1 l 637 39 m 262 1314 l 262 1337 l 433 1337 l 532 1100 l 497 1100 l 262 1314 m 309 407 l 611 407 l 458 793 l 309 407 z "},"Á":{"ha":998,"x_min":-7,"x_max":1010,"o":"m 637 39 q 674 43 661 41 q 703 52 688 45 q 723 68 718 58 q 728 95 729 78 q 718 136 728 113 l 635 346 l 285 346 l 203 136 q 193 95 193 112 q 197 67 192 77 q 216 52 202 58 q 245 43 231 45 q 283 39 259 41 l 283 -1 l -7 -1 l -7 39 q 78 63 45 42 q 136 146 111 84 l 473 1003 l 538 1003 l 879 146 q 933 62 904 83 q 1010 39 962 42 l 1010 -1 l 637 -1 l 637 39 m 309 407 l 611 407 l 458 793 l 309 407 m 481 1107 l 579 1346 l 750 1346 l 750 1321 l 515 1107 l 481 1107 z "},"Â":{"ha":998,"x_min":-7,"x_max":1010,"o":"m 637 39 q 674 43 661 41 q 703 52 688 45 q 723 68 718 58 q 728 95 729 78 q 718 136 728 113 l 635 346 l 285 346 l 203 136 q 193 95 193 112 q 197 67 192 77 q 216 52 202 58 q 245 43 231 45 q 283 39 259 41 l 283 -1 l -7 -1 l -7 39 q 78 63 45 42 q 136 146 111 84 l 473 1003 l 538 1003 l 879 146 q 933 62 904 83 q 1010 39 962 42 l 1010 -1 l 637 -1 l 637 39 m 269 1122 l 492 1310 l 517 1310 l 741 1122 l 710 1097 l 503 1196 l 297 1097 l 269 1122 m 309 407 l 611 407 l 458 793 l 309 407 z "},"Ã":{"ha":998,"x_min":-7,"x_max":1010,"o":"m 637 39 q 674 43 661 41 q 703 52 688 45 q 723 68 718 58 q 728 95 729 78 q 718 136 728 113 l 635 346 l 285 346 l 203 136 q 193 95 193 112 q 197 67 192 77 q 216 52 202 58 q 245 43 231 45 q 283 39 259 41 l 283 -1 l -7 -1 l -7 39 q 78 63 45 42 q 136 146 111 84 l 473 1003 l 538 1003 l 879 146 q 933 62 904 83 q 1010 39 962 42 l 1010 -1 l 637 -1 l 637 39 m 265 1131 q 275 1187 266 1158 q 302 1241 285 1216 q 348 1283 319 1267 q 412 1299 377 1299 q 515 1271 454 1299 q 607 1243 577 1243 q 717 1320 675 1243 l 749 1320 q 700 1186 742 1232 q 597 1141 657 1141 q 528 1156 564 1141 q 460 1184 492 1170 q 403 1198 428 1198 q 297 1131 345 1198 l 265 1131 m 309 407 l 611 407 l 458 793 l 309 407 z "},"Ä":{"ha":998,"x_min":-7,"x_max":1010,"o":"m 637 39 q 674 43 661 41 q 703 52 688 45 q 723 68 718 58 q 728 95 729 78 q 718 136 728 113 l 635 346 l 285 346 l 203 136 q 193 95 193 112 q 197 67 192 77 q 216 52 202 58 q 245 43 231 45 q 283 39 259 41 l 283 -1 l -7 -1 l -7 39 q 78 63 45 42 q 136 146 111 84 l 473 1003 l 538 1003 l 879 146 q 933 62 904 83 q 1010 39 962 42 l 1010 -1 l 637 -1 l 637 39 m 272 1198 q 301 1264 272 1237 q 368 1292 330 1292 q 436 1264 408 1292 q 464 1198 464 1237 q 436 1132 464 1159 q 368 1104 408 1104 q 300 1132 329 1104 q 272 1198 272 1159 m 309 407 l 611 407 l 458 793 l 309 407 m 542 1198 q 570 1264 542 1237 q 637 1292 598 1292 q 705 1264 676 1292 q 733 1198 733 1237 q 705 1132 733 1159 q 637 1104 677 1104 q 570 1132 597 1104 q 542 1198 542 1159 z "},"Å":{"ha":998,"x_min":-7,"x_max":1010,"o":"m 637 39 q 674 43 661 41 q 703 52 688 45 q 723 68 718 58 q 728 95 729 78 q 718 136 728 113 l 635 346 l 285 346 l 203 136 q 193 95 193 112 q 197 67 192 77 q 216 52 202 58 q 245 43 231 45 q 283 39 259 41 l 283 -1 l -7 -1 l -7 39 q 78 63 45 42 q 136 146 111 84 l 473 1003 l 538 1003 l 879 146 q 933 62 904 83 q 1010 39 962 42 l 1010 -1 l 637 -1 l 637 39 m 309 407 l 611 407 l 458 793 l 309 407 m 370 1239 q 409 1332 370 1293 q 503 1371 448 1371 q 596 1332 556 1371 q 636 1239 636 1293 q 596 1147 636 1186 q 503 1108 557 1108 q 409 1147 448 1108 q 370 1239 370 1185 m 456 1285 q 447 1275 456 1285 q 437 1239 437 1265 q 457 1193 437 1213 q 503 1174 476 1174 q 549 1193 529 1174 q 568 1239 568 1213 q 549 1285 568 1265 q 503 1305 529 1305 q 456 1285 475 1305 z "},"Æ":{"ha":1394,"x_min":4,"x_max":1365,"o":"m 4 37 q 48 45 30 40 q 87 60 66 50 q 128 90 109 70 q 167 139 148 109 l 636 873 q 656 918 653 900 q 646 944 659 935 q 617 956 633 953 q 572 962 602 960 l 572 1002 l 1333 1002 l 1337 954 l 1357 732 l 1317 728 q 1292 818 1307 781 q 1253 884 1278 855 q 1191 926 1229 913 q 1101 940 1154 940 l 868 940 l 868 547 l 1044 547 q 1131 575 1109 547 q 1157 659 1154 604 l 1196 659 l 1196 375 l 1157 375 q 1131 458 1154 430 q 1044 486 1109 486 l 868 486 l 868 61 l 1099 61 q 1181 73 1145 61 q 1240 105 1217 85 q 1280 156 1263 125 q 1307 219 1297 187 q 1322 293 1316 252 l 1365 292 l 1343 46 l 1339 0 l 599 0 l 599 37 q 647 44 629 39 q 682 59 665 48 q 707 92 699 70 q 715 147 715 113 l 715 353 l 380 353 l 237 129 q 217 84 220 102 q 225 58 214 67 q 254 44 237 48 q 301 37 271 40 l 301 0 l 4 0 l 4 37 m 419 414 l 715 414 l 715 879 l 419 414 z "},"Ç":{"ha":887,"x_min":43,"x_max":856,"o":"m 498 -264 q 364 -207 417 -264 l 364 -161 q 412 -187 390 -178 q 448 -196 433 -195 q 474 -191 463 -196 q 490 -176 485 -185 q 494 -154 494 -166 q 374 -96 494 -96 l 431 -14 q 280 38 351 -2 q 157 141 210 78 q 74 294 104 204 q 43 488 43 384 q 102 759 43 639 q 270 948 161 880 q 518 1017 378 1017 q 818 945 648 1017 l 821 673 l 782 673 q 685 881 755 808 q 517 954 614 954 q 349 894 420 954 q 242 735 277 834 q 207 511 207 635 q 233 338 207 418 q 302 201 258 257 q 407 113 347 144 q 534 81 467 81 q 702 131 625 81 q 822 260 778 181 l 856 233 q 823 166 843 199 q 770 100 802 134 q 701 41 739 66 q 611 -1 663 16 q 501 -18 559 -17 l 481 -47 q 576 -84 539 -55 q 614 -163 614 -113 q 581 -236 614 -210 q 498 -264 548 -262 z "},"È":{"ha":829,"x_min":35,"x_max":799,"o":"m 35 39 q 81 45 64 41 q 116 59 98 49 q 142 92 134 70 q 150 147 150 113 l 150 854 q 142 910 150 888 q 116 942 134 932 q 81 957 98 953 q 35 962 64 960 l 35 1003 l 766 1003 l 772 954 l 791 732 l 750 728 q 683 889 730 838 q 536 940 636 940 l 301 940 l 301 547 l 479 547 q 535 555 513 547 q 568 579 557 563 q 584 614 579 596 q 590 659 588 631 l 631 659 l 631 374 l 590 374 q 584 419 588 401 q 568 453 579 437 q 535 478 557 470 q 479 486 513 486 l 301 486 l 301 61 l 533 61 q 631 79 590 61 q 697 130 673 96 q 735 203 722 164 q 757 294 749 241 l 799 292 l 778 46 l 774 -1 l 35 -1 l 35 39 m 192 1315 l 192 1339 l 363 1339 l 461 1101 l 427 1101 l 192 1315 z "},"É":{"ha":829,"x_min":35,"x_max":799,"o":"m 35 39 q 81 45 64 41 q 116 59 98 49 q 142 92 134 70 q 150 147 150 113 l 150 854 q 142 910 150 888 q 116 942 134 932 q 81 957 98 953 q 35 962 64 960 l 35 1003 l 766 1003 l 772 954 l 791 732 l 750 728 q 683 889 730 838 q 536 940 636 940 l 301 940 l 301 547 l 479 547 q 535 555 513 547 q 568 579 557 563 q 584 614 579 596 q 590 659 588 631 l 631 659 l 631 374 l 590 374 q 584 419 588 401 q 568 453 579 437 q 535 478 557 470 q 479 486 513 486 l 301 486 l 301 61 l 533 61 q 631 79 590 61 q 697 130 673 96 q 735 203 722 164 q 757 294 749 241 l 799 292 l 778 46 l 774 -1 l 35 -1 l 35 39 m 410 1108 l 509 1348 l 679 1348 l 679 1322 l 444 1108 l 410 1108 z "},"Ê":{"ha":829,"x_min":35,"x_max":799,"o":"m 35 39 q 81 45 64 41 q 116 59 98 49 q 142 92 134 70 q 150 147 150 113 l 150 854 q 142 910 150 888 q 116 942 134 932 q 81 957 98 953 q 35 962 64 960 l 35 1003 l 766 1003 l 772 954 l 791 732 l 750 728 q 683 889 730 838 q 536 940 636 940 l 301 940 l 301 547 l 479 547 q 535 555 513 547 q 568 579 557 563 q 584 614 579 596 q 590 659 588 631 l 631 659 l 631 374 l 590 374 q 584 419 588 401 q 568 453 579 437 q 535 478 557 470 q 479 486 513 486 l 301 486 l 301 61 l 533 61 q 631 79 590 61 q 697 130 673 96 q 735 203 722 164 q 757 294 749 241 l 799 292 l 778 46 l 774 -1 l 35 -1 l 35 39 m 199 1124 l 421 1311 l 446 1311 l 669 1124 l 639 1099 l 432 1197 l 227 1099 l 199 1124 z "},"Ë":{"ha":829,"x_min":35,"x_max":799,"o":"m 35 39 q 81 45 64 41 q 116 59 98 49 q 142 92 134 70 q 150 147 150 113 l 150 854 q 142 910 150 888 q 116 942 134 932 q 81 957 98 953 q 35 962 64 960 l 35 1003 l 766 1003 l 772 954 l 791 732 l 750 728 q 683 889 730 838 q 536 940 636 940 l 301 940 l 301 547 l 479 547 q 535 555 513 547 q 568 579 557 563 q 584 614 579 596 q 590 659 588 631 l 631 659 l 631 374 l 590 374 q 584 419 588 401 q 568 453 579 437 q 535 478 557 470 q 479 486 513 486 l 301 486 l 301 61 l 533 61 q 631 79 590 61 q 697 130 673 96 q 735 203 722 164 q 757 294 749 241 l 799 292 l 778 46 l 774 -1 l 35 -1 l 35 39 m 201 1200 q 230 1266 201 1238 q 297 1293 258 1293 q 365 1266 337 1293 q 393 1200 393 1238 q 365 1133 393 1160 q 297 1105 337 1105 q 230 1133 258 1105 q 201 1200 201 1160 m 471 1200 q 499 1266 471 1238 q 567 1293 527 1293 q 634 1266 606 1293 q 663 1200 663 1238 q 634 1133 663 1160 q 567 1105 606 1105 q 499 1133 527 1105 q 471 1200 471 1160 z "},"Ì":{"ha":465,"x_min":-5,"x_max":424,"o":"m 41 39 q 89 44 71 41 q 125 59 106 48 q 152 91 143 69 q 160 147 160 113 l 160 854 q 152 910 160 888 q 125 942 143 932 q 89 957 106 953 q 41 962 71 960 l 41 1003 l 424 1003 l 424 962 q 376 957 394 960 q 340 942 358 953 q 314 910 322 931 q 306 854 306 888 l 306 147 q 312 101 306 120 q 328 70 318 81 q 353 52 337 59 q 385 42 370 45 q 424 39 401 40 l 424 -1 l 41 -1 l 41 39 m -5 1310 l -5 1333 l 163 1333 l 260 1099 l 227 1099 l -5 1310 z "},"Í":{"ha":465,"x_min":41,"x_max":473,"o":"m 41 39 q 89 44 71 41 q 125 59 106 48 q 152 91 143 69 q 160 147 160 113 l 160 854 q 152 910 160 888 q 125 942 143 932 q 89 957 106 953 q 41 962 71 960 l 41 1003 l 424 1003 l 424 962 q 376 957 394 960 q 340 942 358 953 q 314 910 322 931 q 306 854 306 888 l 306 147 q 312 101 306 120 q 328 70 318 81 q 353 52 337 59 q 385 42 370 45 q 424 39 401 40 l 424 -1 l 41 -1 l 41 39 m 210 1103 l 306 1336 l 473 1336 l 473 1312 l 243 1103 l 210 1103 z "},"Î":{"ha":465,"x_min":4,"x_max":464,"o":"m 41 39 q 89 44 71 41 q 125 59 106 48 q 152 91 143 69 q 160 147 160 113 l 160 854 q 152 910 160 888 q 125 942 143 932 q 89 957 106 953 q 41 962 71 960 l 41 1003 l 424 1003 l 424 962 q 376 957 394 960 q 340 942 358 953 q 314 910 322 931 q 306 854 306 888 l 306 147 q 312 101 306 120 q 328 70 318 81 q 353 52 337 59 q 385 42 370 45 q 424 39 401 40 l 424 -1 l 41 -1 l 41 39 m 4 1118 l 221 1301 l 245 1301 l 464 1118 l 435 1095 l 232 1190 l 32 1095 l 4 1118 z "},"Ï":{"ha":465,"x_min":4,"x_max":460,"o":"m 41 39 q 89 44 71 41 q 125 59 106 48 q 152 91 143 69 q 160 147 160 113 l 160 854 q 152 910 160 888 q 125 942 143 932 q 89 957 106 953 q 41 962 71 960 l 41 1003 l 424 1003 l 424 962 q 376 957 394 960 q 340 942 358 953 q 314 910 322 931 q 306 854 306 888 l 306 147 q 312 101 306 120 q 328 70 318 81 q 353 52 337 59 q 385 42 370 45 q 424 39 401 40 l 424 -1 l 41 -1 l 41 39 m 4 1196 q 32 1260 4 1233 q 98 1287 60 1287 q 166 1260 138 1287 q 195 1196 195 1234 q 166 1129 195 1156 q 98 1103 138 1103 q 32 1129 60 1103 q 4 1196 4 1156 m 271 1196 q 299 1260 271 1233 q 366 1287 327 1287 q 432 1260 404 1287 q 460 1196 460 1233 q 432 1129 460 1156 q 366 1103 405 1103 q 298 1129 326 1103 q 271 1196 271 1156 z "},"Ð":{"ha":990,"x_min":28,"x_max":946,"o":"m 46 -1 l 46 39 q 84 43 70 41 q 115 52 98 45 q 142 69 133 58 q 158 100 151 80 q 164 147 164 119 l 164 464 l 28 464 l 28 534 l 164 534 l 164 854 q 158 902 164 882 q 142 932 151 922 q 115 949 133 943 q 84 958 98 956 q 46 962 71 960 l 46 1003 l 476 1003 q 654 966 568 1003 q 804 866 739 930 q 907 707 869 802 q 946 505 946 613 q 921 335 946 416 q 852 194 897 255 q 749 89 808 134 q 621 22 690 45 q 476 -1 551 -1 l 46 -1 m 315 69 l 446 69 q 624 126 548 69 q 739 281 700 182 q 778 507 779 380 q 738 726 777 631 q 623 877 699 821 q 446 932 547 932 l 315 932 l 315 534 l 561 534 l 561 464 l 315 464 l 315 69 z "},"Ñ":{"ha":1010,"x_min":35,"x_max":983,"o":"m 803 -1 l 222 808 l 222 147 q 231 92 222 113 q 258 59 239 70 q 294 45 277 49 q 342 40 312 42 l 342 -1 l 35 -1 l 35 40 q 82 45 65 42 q 118 59 100 49 q 145 91 137 69 q 154 147 154 113 l 154 854 q 148 902 154 882 q 132 932 141 922 q 105 949 122 943 q 73 958 87 956 q 35 961 59 960 l 35 1003 l 273 1003 l 798 265 l 799 854 q 793 901 799 882 q 777 931 787 920 q 751 948 768 942 q 719 957 734 955 q 679 961 703 960 l 679 1003 l 983 1003 l 983 962 q 937 957 954 960 q 901 942 919 953 q 875 910 883 932 q 867 854 867 888 l 867 -1 l 803 -1 m 269 1131 q 279 1187 270 1158 q 306 1241 289 1216 q 352 1283 323 1267 q 416 1299 381 1299 q 519 1271 458 1299 q 611 1243 581 1243 q 721 1320 680 1243 l 753 1320 q 704 1186 746 1232 q 602 1141 661 1141 q 532 1156 568 1141 q 464 1184 496 1170 q 407 1198 432 1198 q 301 1131 349 1198 l 269 1131 z "},"Ò":{"ha":1009,"x_min":43,"x_max":965,"o":"m 504 -17 q 326 23 411 -17 q 179 133 241 64 q 80 299 117 201 q 43 504 43 396 q 80 709 43 613 q 179 872 117 805 q 327 978 242 939 q 504 1017 411 1017 q 681 978 596 1017 q 828 872 765 939 q 928 709 890 805 q 965 504 965 613 q 928 299 965 396 q 828 133 890 201 q 681 23 766 64 q 504 -17 596 -17 m 212 504 q 232 330 212 412 q 289 183 252 247 q 381 82 325 120 q 504 45 437 45 q 661 110 593 45 q 764 278 729 174 q 799 505 799 382 q 764 728 799 627 q 661 892 729 829 q 504 954 593 954 q 381 918 437 954 q 289 819 325 881 q 232 675 252 756 q 212 504 212 594 m 264 1314 l 264 1337 l 435 1337 l 533 1100 l 498 1100 l 264 1314 z "},"Ó":{"ha":1009,"x_min":43,"x_max":965,"o":"m 504 -17 q 326 23 411 -17 q 179 133 241 64 q 80 299 117 201 q 43 504 43 396 q 80 709 43 613 q 179 872 117 805 q 327 978 242 939 q 504 1017 411 1017 q 681 978 596 1017 q 828 872 765 939 q 928 709 890 805 q 965 504 965 613 q 928 299 965 396 q 828 133 890 201 q 681 23 766 64 q 504 -17 596 -17 m 212 504 q 232 330 212 412 q 289 183 252 247 q 381 82 325 120 q 504 45 437 45 q 661 110 593 45 q 764 278 729 174 q 799 505 799 382 q 764 728 799 627 q 661 892 729 829 q 504 954 593 954 q 381 918 437 954 q 289 819 325 881 q 232 675 252 756 q 212 504 212 594 m 482 1107 l 581 1346 l 751 1346 l 751 1321 l 517 1107 l 482 1107 z "},"Ô":{"ha":1009,"x_min":43,"x_max":965,"o":"m 504 -17 q 326 23 411 -17 q 179 133 241 64 q 80 299 117 201 q 43 504 43 396 q 80 709 43 613 q 179 872 117 805 q 327 978 242 939 q 504 1017 411 1017 q 681 978 596 1017 q 828 872 765 939 q 928 709 890 805 q 965 504 965 613 q 928 299 965 396 q 828 133 890 201 q 681 23 766 64 q 504 -17 596 -17 m 212 504 q 232 330 212 412 q 289 183 252 247 q 381 82 325 120 q 504 45 437 45 q 661 110 593 45 q 764 278 729 174 q 799 505 799 382 q 764 728 799 627 q 661 892 729 829 q 504 954 593 954 q 381 918 437 954 q 289 819 325 881 q 232 675 252 756 q 212 504 212 594 m 271 1122 l 493 1310 l 518 1310 l 742 1122 l 711 1097 l 504 1196 l 298 1097 l 271 1122 z "},"Õ":{"ha":1009,"x_min":43,"x_max":965,"o":"m 504 -17 q 326 23 411 -17 q 179 133 241 64 q 80 299 117 201 q 43 504 43 396 q 80 709 43 613 q 179 872 117 805 q 327 978 242 939 q 504 1017 411 1017 q 681 978 596 1017 q 828 872 765 939 q 928 709 890 805 q 965 504 965 613 q 928 299 965 396 q 828 133 890 201 q 681 23 766 64 q 504 -17 596 -17 m 212 504 q 232 330 212 412 q 289 183 252 247 q 381 82 325 120 q 504 45 437 45 q 661 110 593 45 q 764 278 729 174 q 799 505 799 382 q 764 728 799 627 q 661 892 729 829 q 504 954 593 954 q 381 918 437 954 q 289 819 325 881 q 232 675 252 756 q 212 504 212 594 m 267 1131 q 277 1187 267 1158 q 303 1241 286 1216 q 350 1283 321 1267 q 414 1299 378 1299 q 517 1271 455 1299 q 608 1243 578 1243 q 718 1320 677 1243 l 750 1320 q 701 1186 743 1232 q 599 1141 659 1141 q 529 1156 565 1141 q 461 1184 493 1170 q 404 1198 429 1198 q 298 1131 347 1198 l 267 1131 z "},"Ö":{"ha":1009,"x_min":43,"x_max":965,"o":"m 504 -17 q 326 23 411 -17 q 179 133 241 64 q 80 299 117 201 q 43 504 43 396 q 80 709 43 613 q 179 872 117 805 q 327 978 242 939 q 504 1017 411 1017 q 681 978 596 1017 q 828 872 765 939 q 928 709 890 805 q 965 504 965 613 q 928 299 965 396 q 828 133 890 201 q 681 23 766 64 q 504 -17 596 -17 m 212 504 q 232 330 212 412 q 289 183 252 247 q 381 82 325 120 q 504 45 437 45 q 661 110 593 45 q 764 278 729 174 q 799 505 799 382 q 764 728 799 627 q 661 892 729 829 q 504 954 593 954 q 381 918 437 954 q 289 819 325 881 q 232 675 252 756 q 212 504 212 594 m 273 1198 q 302 1264 273 1237 q 370 1292 331 1292 q 437 1264 409 1292 q 465 1198 465 1237 q 437 1132 465 1159 q 370 1104 410 1104 q 302 1132 330 1104 q 273 1198 273 1159 m 543 1198 q 571 1264 543 1237 q 639 1292 600 1292 q 706 1264 677 1292 q 734 1198 734 1237 q 706 1132 734 1159 q 639 1104 678 1104 q 571 1132 599 1104 q 543 1198 543 1159 z "},"×":{"ha":683,"x_min":81,"x_max":610,"o":"m 81 682 l 122 724 l 272 575 q 324 525 311 535 q 345 514 337 514 q 361 521 351 513 q 401 559 371 529 q 414 572 409 568 l 562 721 l 606 676 l 457 528 q 408 477 418 488 q 399 460 399 467 q 409 439 398 453 q 458 387 420 425 l 610 237 l 567 196 l 416 346 q 366 394 380 382 q 345 406 352 406 q 327 396 339 406 q 278 349 315 386 l 129 200 l 86 244 l 233 393 q 290 460 290 448 q 231 532 290 472 l 81 682 z "},"Ø":{"ha":1050,"x_min":65,"x_max":985,"o":"m 524 -18 q 285 56 393 -18 l 205 -69 l 126 -69 l 232 97 q 110 273 154 168 q 65 504 65 378 q 102 709 65 613 q 200 872 138 805 q 347 978 262 939 q 524 1017 431 1017 q 765 943 656 1017 l 844 1069 l 924 1069 l 818 901 q 940 728 896 831 q 985 504 985 625 q 948 294 985 392 q 848 127 911 195 q 701 21 785 60 q 524 -18 616 -18 m 235 504 q 301 207 235 332 l 708 854 q 524 947 630 947 q 370 883 437 947 q 269 719 303 819 q 235 504 235 618 m 342 146 q 524 54 418 54 q 679 117 611 54 q 782 282 747 180 q 817 505 817 385 q 750 793 817 671 l 342 146 z "},"Ù":{"ha":993,"x_min":24,"x_max":971,"o":"m 504 -18 q 369 5 432 -18 q 253 75 305 28 q 171 200 201 121 q 140 382 140 279 l 140 854 q 132 910 140 888 q 106 942 124 932 q 70 957 87 953 q 24 962 53 960 l 24 1003 l 408 1003 l 408 962 q 361 957 379 960 q 326 942 344 953 q 300 910 308 932 q 292 854 292 888 l 292 380 q 355 151 292 230 q 533 72 419 72 q 630 89 586 72 q 710 140 675 106 q 766 232 746 174 q 786 367 786 290 l 786 854 q 778 909 786 888 q 751 941 769 930 q 714 955 732 951 q 665 961 696 959 l 665 1003 l 971 1003 l 971 961 q 931 957 947 960 q 899 948 916 955 q 872 931 882 942 q 856 901 863 920 q 850 854 850 882 l 850 358 q 823 193 850 266 q 749 75 796 121 q 640 5 702 29 q 504 -18 577 -18 m 272 1318 l 272 1341 l 443 1341 l 542 1104 l 507 1104 l 272 1318 z "},"Ú":{"ha":993,"x_min":24,"x_max":971,"o":"m 504 -18 q 369 5 432 -18 q 253 75 305 28 q 171 200 201 121 q 140 382 140 279 l 140 854 q 132 910 140 888 q 106 942 124 932 q 70 957 87 953 q 24 962 53 960 l 24 1003 l 408 1003 l 408 962 q 361 957 379 960 q 326 942 344 953 q 300 910 308 932 q 292 854 292 888 l 292 380 q 355 151 292 230 q 533 72 419 72 q 630 89 586 72 q 710 140 675 106 q 766 232 746 174 q 786 367 786 290 l 786 854 q 778 909 786 888 q 751 941 769 930 q 714 955 732 951 q 665 961 696 959 l 665 1003 l 971 1003 l 971 961 q 931 957 947 960 q 899 948 916 955 q 872 931 882 942 q 856 901 863 920 q 850 854 850 882 l 850 358 q 823 193 850 266 q 749 75 796 121 q 640 5 702 29 q 504 -18 577 -18 m 490 1111 l 589 1350 l 760 1350 l 760 1325 l 525 1111 l 490 1111 z "},"Û":{"ha":993,"x_min":24,"x_max":971,"o":"m 504 -18 q 369 5 432 -18 q 253 75 305 28 q 171 200 201 121 q 140 382 140 279 l 140 854 q 132 910 140 888 q 106 942 124 932 q 70 957 87 953 q 24 962 53 960 l 24 1003 l 408 1003 l 408 962 q 361 957 379 960 q 326 942 344 953 q 300 910 308 932 q 292 854 292 888 l 292 380 q 355 151 292 230 q 533 72 419 72 q 630 89 586 72 q 710 140 675 106 q 766 232 746 174 q 786 367 786 290 l 786 854 q 778 909 786 888 q 751 941 769 930 q 714 955 732 951 q 665 961 696 959 l 665 1003 l 971 1003 l 971 961 q 931 957 947 960 q 899 948 916 955 q 872 931 882 942 q 856 901 863 920 q 850 854 850 882 l 850 358 q 823 193 850 266 q 749 75 796 121 q 640 5 702 29 q 504 -18 577 -18 m 279 1126 l 501 1314 l 526 1314 l 750 1126 l 720 1101 l 513 1200 l 307 1101 l 279 1126 z "},"Ü":{"ha":993,"x_min":24,"x_max":971,"o":"m 504 -18 q 369 5 432 -18 q 253 75 305 28 q 171 200 201 121 q 140 382 140 279 l 140 854 q 132 910 140 888 q 106 942 124 932 q 70 957 87 953 q 24 962 53 960 l 24 1003 l 408 1003 l 408 962 q 361 957 379 960 q 326 942 344 953 q 300 910 308 932 q 292 854 292 888 l 292 380 q 355 151 292 230 q 533 72 419 72 q 630 89 586 72 q 710 140 675 106 q 766 232 746 174 q 786 367 786 290 l 786 854 q 778 909 786 888 q 751 941 769 930 q 714 955 732 951 q 665 961 696 959 l 665 1003 l 971 1003 l 971 961 q 931 957 947 960 q 899 948 916 955 q 872 931 882 942 q 856 901 863 920 q 850 854 850 882 l 850 358 q 823 193 850 266 q 749 75 796 121 q 640 5 702 29 q 504 -18 577 -18 m 282 1203 q 311 1269 282 1242 q 378 1296 339 1296 q 446 1269 418 1296 q 473 1203 473 1242 q 446 1136 473 1164 q 378 1108 418 1108 q 311 1136 339 1108 q 282 1203 282 1164 m 551 1203 q 579 1269 551 1242 q 647 1296 607 1296 q 714 1269 686 1296 q 743 1203 743 1242 q 715 1136 743 1164 q 647 1108 686 1108 q 579 1136 607 1108 q 551 1203 551 1164 z "},"Ý":{"ha":983,"x_min":-4,"x_max":986,"o":"m 164 861 q 129 912 147 892 q 88 942 111 932 q 45 956 65 952 q -4 962 26 960 l -4 1003 l 395 1003 l 395 961 q 348 955 366 959 q 318 941 331 951 q 307 910 305 930 q 323 860 309 890 l 525 456 l 749 869 q 766 917 764 899 q 754 944 768 935 q 725 956 741 953 q 677 962 709 960 l 677 1003 l 986 1003 l 986 962 q 936 956 956 960 q 893 942 916 952 q 852 912 871 932 q 817 861 833 892 l 562 393 l 562 147 q 571 91 562 113 q 597 59 579 69 q 634 44 616 48 q 681 39 652 41 l 681 -1 l 293 -1 l 293 39 q 340 44 322 41 q 376 59 358 48 q 402 91 394 69 q 411 147 411 113 l 411 382 l 164 861 m 472 1107 l 571 1346 l 742 1346 l 742 1321 l 507 1107 l 472 1107 z "},"Þ":{"ha":875,"x_min":41,"x_max":821,"o":"m 441 256 q 600 328 539 256 q 661 507 661 399 q 604 685 661 614 q 450 755 547 755 l 306 755 l 306 256 l 441 256 m 41 -1 l 41 39 q 89 44 71 41 q 125 59 106 48 q 152 91 143 69 q 160 147 160 113 l 160 854 q 152 910 160 888 q 125 942 143 932 q 89 957 106 953 q 41 962 71 960 l 41 1003 l 424 1003 l 424 962 q 376 957 394 960 q 340 942 358 953 q 314 910 322 931 q 306 854 306 888 l 306 817 l 489 817 q 728 728 635 817 q 821 507 821 640 q 772 342 821 414 q 643 232 724 270 q 461 195 562 195 l 306 195 l 306 147 q 312 101 306 120 q 328 70 318 81 q 353 52 337 59 q 385 42 370 45 q 424 39 401 40 l 424 -1 l 41 -1 z "},"ß":{"ha":842,"x_min":-7,"x_max":799,"o":"m -7 39 q 41 45 24 41 q 77 59 58 49 q 104 92 96 70 q 113 147 113 113 l 113 742 q 133 858 113 807 q 185 941 153 909 q 262 994 217 973 q 352 1023 307 1015 q 447 1031 397 1031 q 651 974 571 1031 q 730 832 730 918 q 715 763 730 794 q 679 713 701 732 q 630 677 656 694 q 582 646 604 659 q 545 616 560 633 q 530 581 530 600 q 545 544 530 562 q 584 510 560 526 q 636 477 608 494 q 693 437 665 460 q 745 388 722 415 q 784 322 769 361 q 799 236 799 283 q 727 59 799 127 q 541 -9 655 -9 q 323 61 421 -9 l 326 111 q 504 59 431 54 q 614 106 576 64 q 652 210 652 148 q 635 278 652 246 q 592 330 618 309 q 537 373 567 351 q 482 414 507 395 q 439 460 456 433 q 422 519 422 488 q 441 586 422 553 q 486 644 460 618 q 539 696 513 669 q 584 758 566 723 q 603 831 603 793 q 561 930 603 890 q 444 970 519 970 q 309 908 359 970 q 258 736 258 847 l 258 -1 l -7 -1 l -7 39 z "},"à":{"ha":651,"x_min":32,"x_max":639,"o":"m 240 -12 q 90 43 147 -12 q 32 180 32 98 q 83 314 32 258 q 224 393 134 370 q 427 400 315 416 l 427 475 q 387 577 427 544 q 286 611 348 611 q 175 582 230 611 q 79 490 120 553 l 45 501 q 149 645 73 587 q 325 704 226 703 q 498 646 426 705 q 570 488 570 586 l 570 129 q 573 90 570 102 q 589 78 577 78 q 619 90 599 78 l 639 64 q 592 11 623 32 q 524 -11 561 -11 q 457 13 483 -11 q 428 72 432 37 q 240 -12 352 -12 m 86 1010 l 86 1034 l 257 1034 l 355 796 l 321 796 l 86 1010 m 175 199 q 204 107 175 144 q 292 71 233 71 q 427 146 373 71 l 427 343 q 243 320 312 360 q 175 199 175 279 z "},"á":{"ha":651,"x_min":32,"x_max":639,"o":"m 240 -12 q 90 43 147 -12 q 32 180 32 98 q 83 314 32 258 q 224 393 134 370 q 427 400 315 416 l 427 475 q 387 577 427 544 q 286 611 348 611 q 175 582 230 611 q 79 490 120 553 l 45 501 q 149 645 73 587 q 325 704 226 703 q 498 646 426 705 q 570 488 570 586 l 570 129 q 573 90 570 102 q 589 78 577 78 q 619 90 599 78 l 639 64 q 592 11 623 32 q 524 -11 561 -11 q 457 13 483 -11 q 428 72 432 37 q 240 -12 352 -12 m 175 199 q 204 107 175 144 q 292 71 233 71 q 427 146 373 71 l 427 343 q 243 320 312 360 q 175 199 175 279 m 304 803 l 403 1042 l 574 1042 l 574 1017 l 339 803 l 304 803 z "},"â":{"ha":651,"x_min":32,"x_max":639,"o":"m 240 -12 q 90 43 147 -12 q 32 180 32 98 q 83 314 32 258 q 224 393 134 370 q 427 400 315 416 l 427 475 q 387 577 427 544 q 286 611 348 611 q 175 582 230 611 q 79 490 120 553 l 45 501 q 149 645 73 587 q 325 704 226 703 q 498 646 426 705 q 570 488 570 586 l 570 129 q 573 90 570 102 q 589 78 577 78 q 619 90 599 78 l 639 64 q 592 11 623 32 q 524 -11 561 -11 q 457 13 483 -11 q 428 72 432 37 q 240 -12 352 -12 m 100 814 l 317 996 l 340 996 l 558 814 l 528 790 l 328 886 l 127 790 l 100 814 m 175 199 q 204 107 175 144 q 292 71 233 71 q 427 146 373 71 l 427 343 q 243 320 312 360 q 175 199 175 279 z "},"ã":{"ha":651,"x_min":32,"x_max":639,"o":"m 240 -12 q 90 43 147 -12 q 32 180 32 98 q 83 314 32 258 q 224 393 134 370 q 427 400 315 416 l 427 475 q 387 577 427 544 q 286 611 348 611 q 175 582 230 611 q 79 490 120 553 l 45 501 q 149 645 73 587 q 325 704 226 703 q 498 646 426 705 q 570 488 570 586 l 570 129 q 573 90 570 102 q 589 78 577 78 q 619 90 599 78 l 639 64 q 592 11 623 32 q 524 -11 561 -11 q 457 13 483 -11 q 428 72 432 37 q 240 -12 352 -12 m 89 827 q 129 941 90 888 q 236 994 168 994 q 339 966 277 994 q 431 939 401 939 q 541 1015 499 939 l 572 1015 q 523 883 566 928 q 421 838 481 838 q 351 852 387 838 q 283 880 315 866 q 227 895 252 895 q 121 827 169 895 l 89 827 m 175 199 q 204 107 175 144 q 292 71 233 71 q 427 146 373 71 l 427 343 q 243 320 312 360 q 175 199 175 279 z "},"ä":{"ha":651,"x_min":32,"x_max":639,"o":"m 240 -12 q 90 43 147 -12 q 32 180 32 98 q 83 314 32 258 q 224 393 134 370 q 427 400 315 416 l 427 475 q 387 577 427 544 q 286 611 348 611 q 175 582 230 611 q 79 490 120 553 l 45 501 q 149 645 73 587 q 325 704 226 703 q 498 646 426 705 q 570 488 570 586 l 570 129 q 573 90 570 102 q 589 78 577 78 q 619 90 599 78 l 639 64 q 592 11 623 32 q 524 -11 561 -11 q 457 13 483 -11 q 428 72 432 37 q 240 -12 352 -12 m 96 895 q 124 960 96 933 q 192 987 153 987 q 260 960 232 987 q 288 895 288 933 q 260 828 288 855 q 192 800 232 800 q 124 828 153 800 q 96 895 96 855 m 175 199 q 204 107 175 144 q 292 71 233 71 q 427 146 373 71 l 427 343 q 243 320 312 360 q 175 199 175 279 m 366 895 q 393 960 366 933 q 461 987 421 987 q 528 960 500 987 q 557 895 557 933 q 529 828 557 855 q 461 800 500 800 q 393 828 421 800 q 366 895 366 855 z "},"å":{"ha":651,"x_min":32,"x_max":639,"o":"m 240 -12 q 90 43 147 -12 q 32 180 32 98 q 83 314 32 258 q 224 393 134 370 q 427 400 315 416 l 427 475 q 387 577 427 544 q 286 611 348 611 q 175 582 230 611 q 79 490 120 553 l 45 501 q 149 645 73 587 q 325 704 226 703 q 498 646 426 705 q 570 488 570 586 l 570 129 q 573 90 570 102 q 589 78 577 78 q 619 90 599 78 l 639 64 q 592 11 623 32 q 524 -11 561 -11 q 457 13 483 -11 q 428 72 432 37 q 240 -12 352 -12 m 175 199 q 204 107 175 144 q 292 71 233 71 q 427 146 373 71 l 427 343 q 243 320 312 360 q 175 199 175 279 m 193 936 q 232 1029 193 990 q 326 1068 271 1068 q 420 1029 380 1068 q 460 936 460 989 q 420 844 460 883 q 326 806 380 806 q 232 844 271 806 q 193 936 193 883 m 280 983 q 271 972 280 983 q 261 936 261 962 q 280 890 261 909 q 326 871 300 871 q 372 890 353 871 q 392 936 392 910 q 372 983 392 962 q 326 1003 353 1003 q 280 983 299 1003 z "},"æ":{"ha":1059,"x_min":32,"x_max":1017,"o":"m 254 -12 q 95 43 159 -12 q 32 183 32 99 q 85 319 32 261 q 226 398 138 378 q 425 397 313 418 q 427 404 427 400 l 427 481 q 383 579 427 545 q 279 614 339 614 q 169 583 222 614 q 78 490 116 553 l 43 501 q 145 647 70 591 q 319 704 220 703 q 432 684 379 705 q 521 623 486 662 q 729 708 604 708 q 939 611 863 708 q 1011 363 1015 514 l 572 363 q 633 162 576 234 q 782 90 690 90 q 983 203 902 90 l 1017 195 q 917 52 991 111 q 739 -8 842 -8 q 599 25 665 -8 q 490 121 534 59 q 391 25 451 62 q 254 -12 331 -12 m 175 204 q 209 110 175 144 q 302 75 242 75 q 461 171 394 75 q 424 345 426 250 q 242 327 309 368 q 175 204 175 286 m 574 422 l 865 422 q 822 584 860 520 q 725 648 784 648 q 650 616 683 648 q 598 533 616 583 q 574 422 579 483 z "},"ç":{"ha":658,"x_min":36,"x_max":625,"o":"m 363 -264 q 228 -207 281 -264 l 228 -161 q 275 -187 254 -178 q 312 -196 297 -195 q 338 -191 327 -196 q 353 -176 349 -185 q 358 -154 358 -166 q 237 -96 358 -96 l 298 -7 q 110 107 184 12 q 36 349 36 202 q 128 606 36 506 q 364 705 220 705 q 604 628 487 705 l 606 441 l 567 441 q 371 642 507 642 q 234 566 282 642 q 186 372 186 490 q 243 168 186 249 q 399 86 301 86 q 505 117 456 86 q 591 203 555 148 l 625 195 q 530 55 596 112 q 371 -9 465 -3 l 345 -47 q 441 -84 404 -55 q 478 -163 478 -113 q 445 -236 478 -210 q 363 -264 412 -262 z "},"è":{"ha":676,"x_min":41,"x_max":635,"o":"m 357 -11 q 236 14 293 -11 q 136 85 179 39 q 67 199 92 130 q 41 349 41 267 q 128 607 41 508 q 347 705 214 705 q 557 608 481 705 q 629 359 633 511 l 191 359 q 252 159 195 231 q 400 87 309 87 q 602 200 520 87 l 635 192 q 534 49 609 109 q 357 -11 460 -11 m 106 1008 l 106 1032 l 277 1032 l 375 794 l 340 794 l 106 1008 m 192 419 l 484 419 q 440 581 478 517 q 343 646 402 646 q 268 613 301 646 q 216 530 235 580 q 192 419 197 479 z "},"é":{"ha":676,"x_min":41,"x_max":635,"o":"m 357 -11 q 236 14 293 -11 q 136 85 179 39 q 67 199 92 130 q 41 349 41 267 q 128 607 41 508 q 347 705 214 705 q 557 608 481 705 q 629 359 633 511 l 191 359 q 252 159 195 231 q 400 87 309 87 q 602 200 520 87 l 635 192 q 534 49 609 109 q 357 -11 460 -11 m 192 419 l 484 419 q 440 581 478 517 q 343 646 402 646 q 268 613 301 646 q 216 530 235 580 q 192 419 197 479 m 325 802 l 424 1040 l 595 1040 l 595 1015 l 359 802 l 325 802 z "},"ê":{"ha":676,"x_min":41,"x_max":635,"o":"m 357 -11 q 236 14 293 -11 q 136 85 179 39 q 67 199 92 130 q 41 349 41 267 q 128 607 41 508 q 347 705 214 705 q 557 608 481 705 q 629 359 633 511 l 191 359 q 252 159 195 231 q 400 87 309 87 q 602 200 520 87 l 635 192 q 534 49 609 109 q 357 -11 460 -11 m 121 812 l 336 994 l 361 994 l 578 812 l 549 787 l 347 884 l 147 787 l 121 812 m 192 419 l 484 419 q 440 581 478 517 q 343 646 402 646 q 268 613 301 646 q 216 530 235 580 q 192 419 197 479 z "},"ë":{"ha":676,"x_min":41,"x_max":635,"o":"m 357 -11 q 236 14 293 -11 q 136 85 179 39 q 67 199 92 130 q 41 349 41 267 q 128 607 41 508 q 347 705 214 705 q 557 608 481 705 q 629 359 633 511 l 191 359 q 252 159 195 231 q 400 87 309 87 q 602 200 520 87 l 635 192 q 534 49 609 109 q 357 -11 460 -11 m 117 893 q 145 959 117 932 q 212 986 174 986 q 280 959 252 986 q 309 893 309 932 q 280 826 309 854 q 212 799 252 799 q 145 826 173 799 q 117 893 117 854 m 192 419 l 484 419 q 440 581 478 517 q 343 646 402 646 q 268 613 301 646 q 216 530 235 580 q 192 419 197 479 m 386 893 q 414 959 386 932 q 482 986 442 986 q 549 959 521 986 q 578 893 578 932 q 550 826 578 854 q 482 799 522 799 q 414 826 442 799 q 386 893 386 854 z "},"ì":{"ha":416,"x_min":-41,"x_max":392,"o":"m 26 37 q 74 44 56 39 q 108 59 92 48 q 132 91 124 70 q 139 143 139 111 l 139 553 q 132 605 139 585 q 108 637 124 626 q 74 653 92 648 q 28 660 56 658 l 28 697 l 279 697 l 279 143 q 307 61 279 82 q 392 37 334 41 l 392 -1 l 26 -1 l 26 37 m -41 1003 l -41 1025 l 125 1025 l 220 794 l 186 794 l -41 1003 z "},"í":{"ha":416,"x_min":26,"x_max":432,"o":"m 26 37 q 74 44 56 39 q 108 59 92 48 q 132 91 124 70 q 139 143 139 111 l 139 553 q 132 605 139 585 q 108 637 124 626 q 74 653 92 648 q 28 660 56 658 l 28 697 l 279 697 l 279 143 q 307 61 279 82 q 392 37 334 41 l 392 -1 l 26 -1 l 26 37 m 171 802 l 267 1034 l 432 1034 l 432 1010 l 204 802 l 171 802 z "},"î":{"ha":416,"x_min":-26,"x_max":418,"o":"m 26 37 q 74 44 56 39 q 108 59 92 48 q 132 91 124 70 q 139 143 139 111 l 139 553 q 132 605 139 585 q 108 637 124 626 q 74 653 92 648 q 28 660 56 658 l 28 697 l 279 697 l 279 143 q 307 61 279 82 q 392 37 334 41 l 392 -1 l 26 -1 l 26 37 m -26 812 l 183 989 l 207 989 l 418 812 l 389 789 l 193 882 l 0 789 l -26 812 z "},"ï":{"ha":390,"x_min":-31,"x_max":418,"o":"m 26 37 q 74 44 56 39 q 108 59 92 48 q 132 91 124 70 q 139 143 139 111 l 139 553 q 132 605 139 585 q 108 637 124 626 q 74 653 92 648 q 28 660 56 658 l 28 697 l 279 697 l 279 143 q 307 61 279 82 q 392 37 334 41 l 392 -1 l 26 -1 l 26 37 m -31 890 q -3 954 -31 928 q 62 981 24 981 q 128 954 101 981 q 155 890 155 928 q 128 825 155 852 q 62 799 101 799 q -3 826 24 799 q -31 890 -31 852 m 232 890 q 259 954 232 928 q 325 981 286 981 q 390 954 363 981 q 418 890 418 928 q 390 826 418 852 q 325 799 363 799 q 259 825 286 799 q 232 890 232 852 z "},"ð":{"ha":740,"x_min":36,"x_max":703,"o":"m 186 755 l 183 832 l 323 939 q 122 1015 235 1000 l 140 1055 q 387 989 275 1045 l 574 1132 l 578 1055 l 446 954 q 634 743 566 873 q 703 456 703 612 q 657 205 703 314 q 530 37 612 96 q 340 -20 448 -22 q 222 11 278 -17 q 125 85 167 38 q 60 201 84 133 q 36 350 36 270 q 62 498 36 430 q 131 612 87 566 q 231 684 174 659 q 350 710 288 710 q 521 637 454 710 q 374 899 479 804 l 186 755 m 187 350 q 205 198 187 267 q 262 85 224 130 q 351 41 300 41 q 441 85 403 41 q 499 197 480 128 q 518 350 518 267 q 499 498 518 431 q 441 609 480 566 q 351 652 403 652 q 262 608 300 652 q 206 497 224 565 q 187 350 187 430 z "},"ñ":{"ha":795,"x_min":14,"x_max":782,"o":"m 440 37 q 514 61 491 41 q 536 143 536 81 l 536 467 q 500 568 536 532 q 411 603 464 603 q 260 522 330 603 l 260 143 q 282 61 260 81 q 355 37 304 41 l 355 -1 l 14 -1 l 14 37 q 92 61 66 41 q 117 143 117 82 l 117 553 q 109 607 117 586 q 86 639 102 629 q 54 654 70 650 q 14 660 39 658 l 14 697 l 260 697 l 260 599 q 355 679 302 652 q 465 705 409 705 q 543 691 505 705 q 611 651 581 677 q 660 580 642 624 q 679 481 679 536 l 679 143 q 704 61 679 81 q 782 37 728 41 l 782 -1 l 440 -1 l 440 37 m 154 825 q 194 940 155 887 q 301 993 233 993 q 404 965 342 993 q 496 937 466 937 q 606 1014 564 937 l 637 1014 q 588 881 631 926 q 486 836 546 836 q 416 850 452 836 q 349 879 380 865 q 292 893 317 893 q 186 825 234 893 l 154 825 z "},"ò":{"ha":736,"x_min":36,"x_max":700,"o":"m 368 -11 q 240 15 300 -11 q 134 87 179 41 q 62 202 89 134 q 36 350 36 270 q 62 497 36 430 q 134 610 89 565 q 240 680 179 655 q 368 705 300 705 q 604 607 507 705 q 700 350 700 508 q 654 160 700 243 q 533 33 608 77 q 368 -11 458 -11 m 126 1003 l 126 1026 l 297 1026 l 396 789 l 361 789 l 126 1003 m 195 350 q 205 236 195 290 q 237 141 216 183 q 292 74 258 98 q 368 49 326 49 q 465 92 425 49 q 524 202 505 135 q 543 350 543 269 q 524 496 543 430 q 465 604 505 562 q 368 646 425 646 q 271 604 311 646 q 213 496 231 562 q 195 350 195 431 z "},"ó":{"ha":736,"x_min":36,"x_max":700,"o":"m 368 -11 q 240 15 300 -11 q 134 87 179 41 q 62 202 89 134 q 36 350 36 270 q 62 497 36 430 q 134 610 89 565 q 240 680 179 655 q 368 705 300 705 q 604 607 507 705 q 700 350 700 508 q 654 160 700 243 q 533 33 608 77 q 368 -11 458 -11 m 195 350 q 205 236 195 290 q 237 141 216 183 q 292 74 258 98 q 368 49 326 49 q 465 92 425 49 q 524 202 505 135 q 543 350 543 269 q 524 496 543 430 q 465 604 505 562 q 368 646 425 646 q 271 604 311 646 q 213 496 231 562 q 195 350 195 431 m 346 796 l 444 1035 l 615 1035 l 615 1010 l 380 796 l 346 796 z "},"ô":{"ha":736,"x_min":36,"x_max":700,"o":"m 368 -11 q 240 15 300 -11 q 134 87 179 41 q 62 202 89 134 q 36 350 36 270 q 62 497 36 430 q 134 610 89 565 q 240 680 179 655 q 368 705 300 705 q 604 607 507 705 q 700 350 700 508 q 654 160 700 243 q 533 33 608 77 q 368 -11 458 -11 m 135 811 l 357 999 l 382 999 l 606 811 l 575 786 l 368 885 l 163 786 l 135 811 m 195 350 q 205 236 195 290 q 237 141 216 183 q 292 74 258 98 q 368 49 326 49 q 465 92 425 49 q 524 202 505 135 q 543 350 543 269 q 524 496 543 430 q 465 604 505 562 q 368 646 425 646 q 271 604 311 646 q 213 496 231 562 q 195 350 195 431 z "},"õ":{"ha":736,"x_min":36,"x_max":700,"o":"m 368 -11 q 240 15 300 -11 q 134 87 179 41 q 62 202 89 134 q 36 350 36 270 q 62 497 36 430 q 134 610 89 565 q 240 680 179 655 q 368 705 300 705 q 604 607 507 705 q 700 350 700 508 q 654 160 700 243 q 533 33 608 77 q 368 -11 458 -11 m 129 819 q 170 934 130 881 q 277 987 209 987 q 379 960 318 987 q 471 932 441 932 q 581 1008 539 932 l 612 1008 q 563 876 606 921 q 461 831 521 831 q 391 845 427 831 q 323 873 355 859 q 267 888 292 888 q 211 871 235 888 q 161 819 186 854 l 129 819 m 195 350 q 205 236 195 290 q 237 141 216 183 q 292 74 258 98 q 368 49 326 49 q 465 92 425 49 q 524 202 505 135 q 543 350 543 269 q 524 496 543 430 q 465 604 505 562 q 368 646 425 646 q 271 604 311 646 q 213 496 231 562 q 195 350 195 431 z "},"ö":{"ha":736,"x_min":36,"x_max":700,"o":"m 368 -11 q 240 15 300 -11 q 134 87 179 41 q 62 202 89 134 q 36 350 36 270 q 62 497 36 430 q 134 610 89 565 q 240 680 179 655 q 368 705 300 705 q 604 607 507 705 q 700 350 700 508 q 654 160 700 243 q 533 33 608 77 q 368 -11 458 -11 m 138 888 q 166 954 138 926 q 233 981 195 981 q 301 954 273 981 q 329 888 329 926 q 301 821 329 848 q 233 793 273 793 q 166 821 195 793 q 138 888 138 848 m 195 350 q 205 236 195 290 q 237 141 216 183 q 292 74 258 98 q 368 49 326 49 q 465 92 425 49 q 524 202 505 135 q 543 350 543 269 q 524 496 543 430 q 465 604 505 562 q 368 646 425 646 q 271 604 311 646 q 213 496 231 562 q 195 350 195 431 m 407 888 q 435 954 407 926 q 503 981 463 981 q 570 954 541 981 q 599 888 599 926 q 570 821 599 848 q 503 793 542 793 q 435 821 463 793 q 407 888 407 848 z "},"÷":{"ha":791,"x_min":78,"x_max":713,"o":"m 78 431 l 78 492 l 713 492 l 713 431 l 78 431 m 337 179 q 325 192 337 179 q 313 237 313 205 q 337 295 313 270 q 395 321 361 321 q 452 296 428 321 q 476 237 476 271 q 452 179 476 203 q 395 154 428 154 q 337 179 361 154 m 313 685 q 337 743 313 717 q 395 768 361 768 q 452 744 428 768 q 476 685 476 719 q 452 626 476 651 q 395 602 428 602 q 337 627 361 602 q 313 685 313 652 z "},"ø":{"ha":737,"x_min":37,"x_max":701,"o":"m 53 -74 l 149 74 q 67 194 96 123 q 37 350 37 264 q 64 497 37 430 q 135 610 90 565 q 241 680 180 655 q 370 705 302 705 q 532 664 455 705 l 599 765 l 675 765 l 585 627 q 670 508 640 578 q 701 350 701 437 q 655 160 701 243 q 534 33 610 77 q 370 -11 459 -11 q 200 36 277 -11 l 129 -74 l 53 -74 m 196 350 q 221 183 196 256 l 482 586 q 370 646 437 646 q 273 604 313 646 q 214 496 233 562 q 196 350 196 431 m 253 117 q 370 49 298 49 q 466 92 426 49 q 526 202 507 135 q 545 350 545 269 q 517 521 545 447 l 253 117 z "},"ù":{"ha":846,"x_min":31,"x_max":806,"o":"m 350 -9 q 271 4 309 -9 q 202 45 233 18 q 152 116 171 72 q 134 215 134 160 l 134 553 q 126 607 134 586 q 103 639 119 629 q 71 654 87 650 q 31 660 56 658 l 31 697 l 277 697 l 277 229 q 313 129 277 163 q 403 94 349 94 q 561 178 491 94 l 561 553 q 537 636 561 615 q 464 660 514 656 l 464 697 l 703 697 l 703 143 q 708 98 703 117 q 722 68 713 79 q 745 50 730 57 q 772 41 759 43 q 806 37 785 39 l 806 -1 l 596 -1 q 566 104 574 45 q 467 20 522 50 q 350 -9 411 -9 m 160 1008 l 160 1032 l 330 1032 l 429 794 l 395 794 l 160 1008 z "},"ú":{"ha":846,"x_min":31,"x_max":806,"o":"m 350 -9 q 271 4 309 -9 q 202 45 233 18 q 152 116 171 72 q 134 215 134 160 l 134 553 q 126 607 134 586 q 103 639 119 629 q 71 654 87 650 q 31 660 56 658 l 31 697 l 277 697 l 277 229 q 313 129 277 163 q 403 94 349 94 q 561 178 491 94 l 561 553 q 537 636 561 615 q 464 660 514 656 l 464 697 l 703 697 l 703 143 q 708 98 703 117 q 722 68 713 79 q 745 50 730 57 q 772 41 759 43 q 806 37 785 39 l 806 -1 l 596 -1 q 566 104 574 45 q 467 20 522 50 q 350 -9 411 -9 m 378 802 l 476 1040 l 647 1040 l 647 1015 l 412 802 l 378 802 z "},"û":{"ha":846,"x_min":31,"x_max":806,"o":"m 350 -9 q 271 4 309 -9 q 202 45 233 18 q 152 116 171 72 q 134 215 134 160 l 134 553 q 126 607 134 586 q 103 639 119 629 q 71 654 87 650 q 31 660 56 658 l 31 697 l 277 697 l 277 229 q 313 129 277 163 q 403 94 349 94 q 561 178 491 94 l 561 553 q 537 636 561 615 q 464 660 514 656 l 464 697 l 703 697 l 703 143 q 708 98 703 117 q 722 68 713 79 q 745 50 730 57 q 772 41 759 43 q 806 37 785 39 l 806 -1 l 596 -1 q 566 104 574 45 q 467 20 522 50 q 350 -9 411 -9 m 174 812 l 390 996 l 414 996 l 632 812 l 602 789 l 400 885 l 201 789 l 174 812 z "},"ü":{"ha":846,"x_min":31,"x_max":806,"o":"m 350 -9 q 271 4 309 -9 q 202 45 233 18 q 152 116 171 72 q 134 215 134 160 l 134 553 q 126 607 134 586 q 103 639 119 629 q 71 654 87 650 q 31 660 56 658 l 31 697 l 277 697 l 277 229 q 313 129 277 163 q 403 94 349 94 q 561 178 491 94 l 561 553 q 537 636 561 615 q 464 660 514 656 l 464 697 l 703 697 l 703 143 q 708 98 703 117 q 722 68 713 79 q 745 50 730 57 q 772 41 759 43 q 806 37 785 39 l 806 -1 l 596 -1 q 566 104 574 45 q 467 20 522 50 q 350 -9 411 -9 m 170 893 q 198 959 170 932 q 265 986 227 986 q 333 959 305 986 q 361 893 361 932 q 333 826 361 854 q 265 799 305 799 q 198 826 226 799 q 170 893 170 854 m 439 893 q 467 959 439 932 q 534 986 494 986 q 602 959 573 986 q 631 893 631 932 q 602 826 631 854 q 534 799 574 799 q 467 826 494 799 q 439 893 439 854 z "},"ý":{"ha":798,"x_min":17,"x_max":785,"o":"m 66 -233 l 89 -123 l 111 -110 q 268 -146 203 -162 q 361 -53 332 -130 l 371 -26 l 138 555 q 87 636 113 616 q 17 660 61 655 l 17 697 l 358 697 l 358 660 q 315 653 330 657 q 290 638 300 648 q 279 610 279 629 q 292 564 280 592 l 444 168 l 595 562 q 596 636 616 618 q 522 659 576 655 l 522 697 l 785 697 l 785 660 q 713 635 741 655 q 661 555 685 616 l 425 -58 q 66 -233 305 -368 m 396 802 l 494 1040 l 665 1040 l 665 1015 l 431 802 l 396 802 z "},"þ":{"ha":736,"x_min":-22,"x_max":700,"o":"m -16 -250 q 70 -225 42 -247 q 97 -143 97 -204 l 97 864 q 84 924 97 905 q 46 946 71 944 q -14 945 21 948 l -22 981 l 239 1031 l 239 607 q 436 705 321 705 q 625 612 550 705 q 700 354 700 518 q 676 197 700 267 q 611 83 652 127 q 516 14 570 38 q 401 -9 463 -9 q 239 36 313 -9 l 239 -143 q 266 -225 239 -204 q 350 -250 294 -247 l 350 -288 l -16 -288 l -16 -250 m 239 237 q 282 101 245 149 q 383 53 319 53 q 502 124 458 53 q 545 319 545 195 q 503 535 545 454 q 379 616 460 616 q 239 534 298 616 l 239 237 z "},"ÿ":{"ha":798,"x_min":17,"x_max":785,"o":"m 66 -233 l 89 -123 l 111 -110 q 268 -146 203 -162 q 361 -53 332 -130 l 371 -26 l 138 555 q 87 636 113 616 q 17 660 61 655 l 17 697 l 358 697 l 358 660 q 315 653 330 657 q 290 638 300 648 q 279 610 279 629 q 292 564 280 592 l 444 168 l 595 562 q 596 636 616 618 q 522 659 576 655 l 522 697 l 785 697 l 785 660 q 713 635 741 655 q 661 555 685 616 l 425 -58 q 66 -233 305 -368 m 187 893 q 216 959 187 932 q 283 986 245 986 q 351 959 323 986 q 379 893 379 932 q 351 826 379 854 q 283 799 323 799 q 216 826 244 799 q 187 893 187 854 m 457 893 q 485 959 457 932 q 553 986 513 986 q 620 959 591 986 q 648 893 648 932 q 620 826 648 854 q 553 799 592 799 q 485 826 513 799 q 457 893 457 854 z "},"Ā":{"ha":998,"x_min":-7,"x_max":1010,"o":"m 637 39 q 674 43 661 41 q 703 52 688 45 q 723 68 718 58 q 728 95 729 78 q 718 136 728 113 l 635 346 l 285 346 l 203 136 q 193 95 193 112 q 197 67 192 77 q 216 52 202 58 q 245 43 231 45 q 283 39 259 41 l 283 -1 l -7 -1 l -7 39 q 78 63 45 42 q 136 146 111 84 l 473 1003 l 538 1003 l 879 146 q 933 62 904 83 q 1010 39 962 42 l 1010 -1 l 637 -1 l 637 39 m 283 1152 l 283 1213 l 728 1213 l 728 1152 l 283 1152 m 309 407 l 611 407 l 458 793 l 309 407 z "},"ā":{"ha":651,"x_min":32,"x_max":639,"o":"m 240 -12 q 90 43 147 -12 q 32 180 32 98 q 83 314 32 258 q 224 393 134 370 q 427 400 315 416 l 427 475 q 387 577 427 544 q 286 611 348 611 q 175 582 230 611 q 79 490 120 553 l 45 501 q 149 645 73 587 q 325 704 226 703 q 498 646 426 705 q 570 488 570 586 l 570 129 q 573 90 570 102 q 589 78 577 78 q 619 90 599 78 l 639 64 q 592 11 623 32 q 524 -11 561 -11 q 457 13 483 -11 q 428 72 432 37 q 240 -12 352 -12 m 107 847 l 107 908 l 551 908 l 551 847 l 107 847 m 175 199 q 204 107 175 144 q 292 71 233 71 q 427 146 373 71 l 427 343 q 243 320 312 360 q 175 199 175 279 z "},"Ă":{"ha":998,"x_min":-7,"x_max":1010,"o":"m 637 39 q 674 43 661 41 q 703 52 688 45 q 723 68 718 58 q 728 95 729 78 q 718 136 728 113 l 635 346 l 285 346 l 203 136 q 193 95 193 112 q 197 67 192 77 q 216 52 202 58 q 245 43 231 45 q 283 39 259 41 l 283 -1 l -7 -1 l -7 39 q 78 63 45 42 q 136 146 111 84 l 473 1003 l 538 1003 l 879 146 q 933 62 904 83 q 1010 39 962 42 l 1010 -1 l 637 -1 l 637 39 m 301 1325 l 340 1325 q 385 1264 355 1288 q 443 1233 414 1240 q 504 1225 472 1225 q 566 1233 536 1225 q 624 1264 595 1240 q 667 1325 652 1288 l 707 1325 q 644 1184 701 1242 q 504 1126 587 1126 q 362 1184 420 1126 q 301 1325 305 1242 m 309 407 l 611 407 l 458 793 l 309 407 z "},"ă":{"ha":651,"x_min":32,"x_max":639,"o":"m 240 -12 q 90 43 147 -12 q 32 180 32 98 q 83 314 32 258 q 224 393 134 370 q 427 400 315 416 l 427 475 q 387 577 427 544 q 286 611 348 611 q 175 582 230 611 q 79 490 120 553 l 45 501 q 149 645 73 587 q 325 704 226 703 q 498 646 426 705 q 570 488 570 586 l 570 129 q 573 90 570 102 q 589 78 577 78 q 619 90 599 78 l 639 64 q 592 11 623 32 q 524 -11 561 -11 q 457 13 483 -11 q 428 72 432 37 q 240 -12 352 -12 m 123 1021 l 163 1021 q 207 960 178 983 q 265 929 236 937 q 326 921 294 921 q 388 929 359 921 q 446 960 417 937 q 489 1021 475 983 l 529 1021 q 467 880 524 937 q 326 822 410 822 q 185 880 242 822 q 123 1021 127 938 m 175 199 q 204 107 175 144 q 292 71 233 71 q 427 146 373 71 l 427 343 q 243 320 312 360 q 175 199 175 279 z "},"Ą":{"ha":998,"x_min":-7,"x_max":1010,"o":"m 637 39 q 674 43 661 41 q 703 52 688 45 q 723 68 718 58 q 728 95 729 78 q 718 136 728 113 l 635 346 l 285 346 l 203 136 q 193 95 193 112 q 197 67 192 77 q 216 52 202 58 q 245 43 231 45 q 283 39 259 41 l 283 -1 l -7 -1 l -7 39 q 78 63 45 42 q 136 146 111 84 l 473 1003 l 538 1003 l 879 146 q 933 62 904 83 q 1010 39 962 42 l 1010 -1 l 892 -1 q 827 -56 848 -31 q 806 -111 806 -82 q 830 -158 806 -144 q 890 -163 854 -172 q 962 -125 927 -154 l 962 -167 q 888 -223 933 -201 q 802 -245 842 -245 q 725 -220 755 -245 q 694 -151 694 -194 q 725 -71 694 -109 q 806 -1 756 -32 l 637 -1 l 637 39 m 309 407 l 611 407 l 458 793 l 309 407 z "},"ą":{"ha":651,"x_min":32,"x_max":639,"o":"m 240 -12 q 90 43 147 -12 q 32 180 32 98 q 83 314 32 258 q 224 393 134 370 q 427 400 315 416 l 427 475 q 387 577 427 544 q 286 611 348 611 q 175 582 230 611 q 79 490 120 553 l 45 501 q 149 645 73 587 q 325 704 226 703 q 498 646 426 705 q 570 488 570 586 l 570 129 q 573 90 570 102 q 589 78 577 78 q 619 90 599 78 l 639 64 q 600 16 626 36 q 541 -9 573 -5 q 480 -63 500 -38 q 461 -115 461 -87 q 485 -162 461 -148 q 546 -167 509 -176 q 618 -129 583 -158 l 618 -171 q 543 -228 589 -205 q 457 -250 497 -250 q 380 -224 411 -250 q 350 -155 350 -198 q 385 -70 350 -111 q 473 1 419 -30 q 428 72 435 24 q 240 -12 352 -12 m 175 199 q 204 107 175 144 q 292 71 233 71 q 427 146 373 71 l 427 343 q 243 320 312 360 q 175 199 175 279 z "},"Ć":{"ha":887,"x_min":43,"x_max":856,"o":"m 493 -18 q 322 17 404 -18 q 178 117 241 53 q 79 277 116 181 q 43 488 43 374 q 102 759 43 639 q 270 948 161 880 q 518 1017 378 1017 q 818 945 648 1017 l 821 673 l 782 673 q 685 881 755 808 q 517 954 614 954 q 349 894 420 954 q 242 735 277 834 q 207 511 207 635 q 233 338 207 418 q 302 201 258 257 q 407 113 347 144 q 534 81 467 81 q 702 131 625 81 q 822 260 778 181 l 856 233 q 822 165 843 199 q 769 98 802 132 q 697 39 736 64 q 605 -2 659 14 q 493 -18 552 -18 m 488 1107 l 586 1346 l 757 1346 l 757 1321 l 522 1107 l 488 1107 z "},"ć":{"ha":658,"x_min":36,"x_max":625,"o":"m 347 -11 q 228 14 284 -11 q 129 85 171 39 q 61 198 86 130 q 36 349 36 267 q 128 606 36 506 q 364 705 220 705 q 604 628 487 705 l 606 441 l 567 441 q 371 642 507 642 q 234 566 282 642 q 186 372 186 490 q 243 168 186 249 q 399 86 301 86 q 505 117 456 86 q 591 203 555 148 l 625 195 q 523 48 595 107 q 347 -11 450 -11 m 335 802 l 433 1040 l 604 1040 l 604 1015 l 370 802 l 335 802 z "},"Ċ":{"ha":887,"x_min":43,"x_max":856,"o":"m 493 -18 q 322 17 404 -18 q 178 117 241 53 q 79 277 116 181 q 43 488 43 374 q 102 759 43 639 q 270 948 161 880 q 518 1017 378 1017 q 818 945 648 1017 l 821 673 l 782 673 q 685 881 755 808 q 517 954 614 954 q 349 894 420 954 q 242 735 277 834 q 207 511 207 635 q 233 338 207 418 q 302 201 258 257 q 407 113 347 144 q 534 81 467 81 q 702 131 625 81 q 822 260 778 181 l 856 233 q 822 165 843 199 q 769 98 802 132 q 697 39 736 64 q 605 -2 659 14 q 493 -18 552 -18 m 412 1225 q 441 1294 412 1265 q 511 1322 471 1322 q 581 1294 552 1322 q 610 1225 610 1265 q 581 1156 610 1185 q 511 1128 551 1128 q 442 1157 471 1128 q 412 1225 412 1185 z "},"ċ":{"ha":658,"x_min":36,"x_max":625,"o":"m 347 -11 q 228 14 284 -11 q 129 85 171 39 q 61 198 86 130 q 36 349 36 267 q 128 606 36 506 q 364 705 220 705 q 604 628 487 705 l 606 441 l 567 441 q 371 642 507 642 q 234 566 282 642 q 186 372 186 490 q 243 168 186 249 q 399 86 301 86 q 505 117 456 86 q 591 203 555 148 l 625 195 q 523 48 595 107 q 347 -11 450 -11 m 260 920 q 289 988 260 960 q 358 1017 317 1017 q 428 988 399 1017 q 457 920 457 960 q 428 851 457 880 q 358 822 398 822 q 289 851 318 822 q 260 920 260 880 z "},"Č":{"ha":887,"x_min":43,"x_max":856,"o":"m 493 -18 q 322 17 404 -18 q 178 117 241 53 q 79 277 116 181 q 43 488 43 374 q 102 759 43 639 q 270 948 161 880 q 518 1017 378 1017 q 818 945 648 1017 l 821 673 l 782 673 q 685 881 755 808 q 517 954 614 954 q 349 894 420 954 q 242 735 277 834 q 207 511 207 635 q 233 338 207 418 q 302 201 258 257 q 407 113 347 144 q 534 81 467 81 q 702 131 625 81 q 822 260 778 181 l 856 233 q 822 165 843 199 q 769 98 802 132 q 697 39 736 64 q 605 -2 659 14 q 493 -18 552 -18 m 277 1297 l 304 1322 l 510 1223 l 717 1322 l 747 1297 l 524 1109 l 498 1109 l 277 1297 z "},"č":{"ha":658,"x_min":36,"x_max":625,"o":"m 347 -11 q 228 14 284 -11 q 129 85 171 39 q 61 198 86 130 q 36 349 36 267 q 128 606 36 506 q 364 705 220 705 q 604 628 487 705 l 606 441 l 567 441 q 371 642 507 642 q 234 566 282 642 q 186 372 186 490 q 243 168 186 249 q 399 86 301 86 q 505 117 456 86 q 591 203 555 148 l 625 195 q 523 48 595 107 q 347 -11 450 -11 m 131 982 l 158 1007 l 357 911 l 558 1007 l 587 982 l 371 800 l 347 800 l 131 982 z "},"Ď":{"ha":958,"x_min":35,"x_max":914,"o":"m 35 -1 l 35 39 q 73 42 58 40 q 104 52 87 45 q 129 70 120 58 q 144 100 138 81 q 150 147 150 119 l 150 854 q 142 910 150 888 q 116 942 134 932 q 81 957 98 953 q 35 962 64 960 l 35 1003 l 449 1003 q 624 966 540 1003 q 773 866 709 930 q 876 707 837 802 q 914 505 914 613 q 876 298 914 394 q 772 137 837 201 q 624 35 708 72 q 449 -1 540 -1 l 35 -1 m 211 1297 l 239 1322 l 444 1223 l 652 1322 l 682 1297 l 458 1109 l 433 1109 l 211 1297 m 301 61 l 410 61 q 587 119 510 61 q 706 279 665 177 q 746 507 747 380 q 704 728 745 630 q 586 883 663 826 q 410 940 509 940 l 301 940 l 301 61 z "},"ď":{"ha":928,"x_min":40,"x_max":933,"o":"m 539 -1 q 507 90 514 50 q 304 -14 423 -14 q 115 80 191 -14 q 40 338 40 174 q 64 494 40 425 q 129 609 88 564 q 224 677 170 654 q 339 701 278 701 q 501 656 427 701 l 501 864 q 475 938 501 923 q 390 946 449 952 l 385 983 l 647 1031 l 647 143 q 674 61 647 81 q 760 37 701 41 l 760 -1 l 539 -1 m 196 372 q 238 157 196 238 q 361 75 279 75 q 501 157 441 75 l 501 454 q 458 591 495 543 q 357 639 420 639 q 239 568 282 639 q 196 372 196 497 m 722 926 q 752 994 722 966 q 822 1022 782 1022 q 901 986 869 1022 q 933 895 933 950 q 881 769 933 829 q 745 688 829 709 l 734 722 q 803 767 780 743 q 825 811 825 791 q 804 835 825 829 q 746 867 769 842 q 722 926 722 891 z "},"Đ":{"ha":990,"x_min":28,"x_max":946,"o":"m 46 -1 l 46 39 q 84 43 70 41 q 115 52 98 45 q 142 69 133 58 q 158 100 151 80 q 164 147 164 119 l 164 464 l 28 464 l 28 534 l 164 534 l 164 854 q 158 902 164 882 q 142 932 151 922 q 115 949 133 943 q 84 958 98 956 q 46 962 71 960 l 46 1003 l 476 1003 q 654 966 568 1003 q 804 866 739 930 q 907 707 869 802 q 946 505 946 613 q 921 335 946 416 q 852 194 897 255 q 749 89 808 134 q 621 22 690 45 q 476 -1 551 -1 l 46 -1 m 315 69 l 446 69 q 624 126 548 69 q 739 281 700 182 q 778 507 779 380 q 738 726 777 631 q 623 877 699 821 q 446 932 547 932 l 315 932 l 315 534 l 561 534 l 561 464 l 315 464 l 315 69 z "},"đ":{"ha":772,"x_min":40,"x_max":771,"o":"m 275 817 l 275 885 l 500 885 q 469 941 495 930 q 390 946 444 952 l 385 983 l 647 1031 l 647 885 l 771 885 l 771 817 l 647 817 l 647 143 q 674 61 647 81 q 760 37 701 41 l 760 -1 l 539 -1 q 507 90 514 50 q 304 -14 423 -14 q 115 80 191 -14 q 40 338 40 174 q 64 494 40 425 q 129 609 88 564 q 224 677 170 654 q 339 701 278 701 q 501 656 427 701 l 501 817 l 275 817 m 196 372 q 238 157 196 238 q 361 75 279 75 q 501 157 441 75 l 501 454 q 458 591 495 543 q 357 639 420 639 q 239 568 282 639 q 196 372 196 497 z "},"Ē":{"ha":829,"x_min":35,"x_max":799,"o":"m 35 39 q 81 45 64 41 q 116 59 98 49 q 142 92 134 70 q 150 147 150 113 l 150 854 q 142 910 150 888 q 116 942 134 932 q 81 957 98 953 q 35 962 64 960 l 35 1003 l 766 1003 l 772 954 l 791 732 l 750 728 q 683 889 730 838 q 536 940 636 940 l 301 940 l 301 547 l 479 547 q 535 555 513 547 q 568 579 557 563 q 584 614 579 596 q 590 659 588 631 l 631 659 l 631 374 l 590 374 q 584 419 588 401 q 568 453 579 437 q 535 478 557 470 q 479 486 513 486 l 301 486 l 301 61 l 533 61 q 631 79 590 61 q 697 130 673 96 q 735 203 722 164 q 757 294 749 241 l 799 292 l 778 46 l 774 -1 l 35 -1 l 35 39 m 212 1153 l 212 1214 l 657 1214 l 657 1153 l 212 1153 z "},"ē":{"ha":676,"x_min":41,"x_max":635,"o":"m 357 -11 q 236 14 293 -11 q 136 85 179 39 q 67 199 92 130 q 41 349 41 267 q 128 607 41 508 q 347 705 214 705 q 557 608 481 705 q 629 359 633 511 l 191 359 q 252 159 195 231 q 400 87 309 87 q 602 200 520 87 l 635 192 q 534 49 609 109 q 357 -11 460 -11 m 126 846 l 126 907 l 571 907 l 571 846 l 126 846 m 192 419 l 484 419 q 440 581 478 517 q 343 646 402 646 q 268 613 301 646 q 216 530 235 580 q 192 419 197 479 z "},"Ė":{"ha":829,"x_min":35,"x_max":799,"o":"m 35 39 q 81 45 64 41 q 116 59 98 49 q 142 92 134 70 q 150 147 150 113 l 150 854 q 142 910 150 888 q 116 942 134 932 q 81 957 98 953 q 35 962 64 960 l 35 1003 l 766 1003 l 772 954 l 791 732 l 750 728 q 683 889 730 838 q 536 940 636 940 l 301 940 l 301 547 l 479 547 q 535 555 513 547 q 568 579 557 563 q 584 614 579 596 q 590 659 588 631 l 631 659 l 631 374 l 590 374 q 584 419 588 401 q 568 453 579 437 q 535 478 557 470 q 479 486 513 486 l 301 486 l 301 61 l 533 61 q 631 79 590 61 q 697 130 673 96 q 735 203 722 164 q 757 294 749 241 l 799 292 l 778 46 l 774 -1 l 35 -1 l 35 39 m 335 1227 q 364 1296 335 1267 q 433 1325 393 1325 q 503 1296 474 1325 q 532 1227 532 1267 q 503 1159 532 1187 q 433 1131 473 1131 q 364 1159 393 1131 q 335 1227 335 1188 z "},"ė":{"ha":676,"x_min":41,"x_max":635,"o":"m 357 -11 q 236 14 293 -11 q 136 85 179 39 q 67 199 92 130 q 41 349 41 267 q 128 607 41 508 q 347 705 214 705 q 557 608 481 705 q 629 359 633 511 l 191 359 q 252 159 195 231 q 400 87 309 87 q 602 200 520 87 l 635 192 q 534 49 609 109 q 357 -11 460 -11 m 192 419 l 484 419 q 440 581 478 517 q 343 646 402 646 q 268 613 301 646 q 216 530 235 580 q 192 419 197 479 m 250 920 q 279 988 250 960 q 349 1017 308 1017 q 418 988 389 1017 q 447 920 447 960 q 418 850 447 879 q 349 822 389 822 q 279 851 309 822 q 250 920 250 880 z "},"Ę":{"ha":829,"x_min":35,"x_max":799,"o":"m 35 39 q 81 45 64 41 q 116 59 98 49 q 142 92 134 70 q 150 147 150 113 l 150 854 q 142 910 150 888 q 116 942 134 932 q 81 957 98 953 q 35 962 64 960 l 35 1003 l 766 1003 l 772 954 l 791 732 l 750 728 q 683 889 730 838 q 536 940 636 940 l 301 940 l 301 547 l 479 547 q 535 555 513 547 q 568 579 557 563 q 584 614 579 596 q 590 659 588 631 l 631 659 l 631 374 l 590 374 q 584 419 588 401 q 568 453 579 437 q 535 478 557 470 q 479 486 513 486 l 301 486 l 301 61 l 533 61 q 631 79 590 61 q 697 130 673 96 q 735 203 722 164 q 757 294 749 241 l 799 292 l 778 46 l 777 35 l 786 35 l 777 29 l 774 -1 l 728 -1 q 663 -56 684 -31 q 642 -111 642 -82 q 666 -158 642 -144 q 727 -163 690 -172 q 799 -125 764 -154 l 799 -167 q 724 -223 770 -201 q 637 -245 678 -245 q 561 -220 591 -245 q 530 -151 530 -194 q 561 -71 530 -109 q 642 -1 592 -32 l 35 -1 l 35 39 z "},"ę":{"ha":676,"x_min":41,"x_max":635,"o":"m 355 -245 q 279 -220 309 -245 q 249 -151 249 -194 q 276 -76 249 -113 q 346 -11 302 -40 q 228 18 283 -8 q 132 89 173 44 q 66 201 90 134 q 41 349 41 269 q 128 607 41 508 q 347 705 214 705 q 557 608 481 705 q 629 359 633 511 l 191 359 q 252 159 195 231 q 400 87 309 87 q 602 200 520 87 l 635 192 q 570 81 616 132 q 458 7 524 31 q 383 -53 407 -26 q 359 -111 359 -81 q 384 -158 359 -144 q 445 -163 408 -172 q 517 -125 481 -154 l 517 -167 q 442 -223 488 -201 q 355 -245 396 -245 m 192 419 l 484 419 q 440 581 478 517 q 343 646 402 646 q 268 613 301 646 q 216 530 235 580 q 192 419 197 479 z "},"Ě":{"ha":829,"x_min":35,"x_max":799,"o":"m 35 39 q 81 45 64 41 q 116 59 98 49 q 142 92 134 70 q 150 147 150 113 l 150 854 q 142 910 150 888 q 116 942 134 932 q 81 957 98 953 q 35 962 64 960 l 35 1003 l 766 1003 l 772 954 l 791 732 l 750 728 q 683 889 730 838 q 536 940 636 940 l 301 940 l 301 547 l 479 547 q 535 555 513 547 q 568 579 557 563 q 584 614 579 596 q 590 659 588 631 l 631 659 l 631 374 l 590 374 q 584 419 588 401 q 568 453 579 437 q 535 478 557 470 q 479 486 513 486 l 301 486 l 301 61 l 533 61 q 631 79 590 61 q 697 130 673 96 q 735 203 722 164 q 757 294 749 241 l 799 292 l 778 46 l 774 -1 l 35 -1 l 35 39 m 199 1299 l 227 1324 l 432 1225 l 639 1324 l 669 1299 l 446 1111 l 421 1111 l 199 1299 z "},"ě":{"ha":676,"x_min":41,"x_max":635,"o":"m 357 -11 q 236 14 293 -11 q 136 85 179 39 q 67 199 92 130 q 41 349 41 267 q 128 607 41 508 q 347 705 214 705 q 557 608 481 705 q 629 359 633 511 l 191 359 q 252 159 195 231 q 400 87 309 87 q 602 200 520 87 l 635 192 q 534 49 609 109 q 357 -11 460 -11 m 121 982 l 147 1007 l 347 911 l 547 1007 l 578 982 l 359 800 l 336 800 l 121 982 m 192 419 l 484 419 q 440 581 478 517 q 343 646 402 646 q 268 613 301 646 q 216 530 235 580 q 192 419 197 479 z "},"Ğ":{"ha":972,"x_min":43,"x_max":964,"o":"m 708 354 q 694 407 708 386 q 653 440 681 429 q 592 456 625 451 q 510 463 559 461 l 510 503 l 964 503 l 964 463 q 918 456 935 460 q 884 441 900 452 q 860 409 867 431 q 852 354 852 388 l 852 98 l 860 93 q 856 90 859 92 q 852 87 854 88 l 852 83 l 844 82 q 705 11 787 41 q 525 -18 624 -18 q 373 4 446 -18 q 240 70 300 26 q 136 175 180 114 q 67 317 92 236 q 43 492 43 399 q 105 760 43 640 q 280 948 168 880 q 533 1017 393 1017 q 842 945 678 1017 l 842 684 l 804 684 q 707 882 782 809 q 533 954 633 954 q 361 895 436 954 q 248 735 287 835 q 208 514 208 635 q 250 279 208 387 q 368 109 292 172 q 536 46 444 46 q 708 97 626 46 l 708 354 m 326 1329 l 366 1329 q 410 1268 380 1292 q 468 1237 439 1244 q 529 1229 497 1229 q 591 1237 562 1229 q 649 1268 620 1244 q 692 1329 677 1292 l 732 1329 q 669 1188 726 1246 q 529 1131 612 1131 q 388 1188 445 1131 q 326 1329 330 1246 z "},"ğ":{"ha":712,"x_min":36,"x_max":686,"o":"m 347 -302 q 199 -283 268 -302 q 83 -221 130 -263 q 36 -121 36 -178 q 63 -41 36 -76 q 136 16 91 -7 q 70 69 91 36 q 49 136 49 102 q 78 216 49 181 q 158 273 107 252 q 64 460 64 344 q 104 590 64 533 q 208 676 145 648 q 340 705 271 705 q 482 672 416 705 q 568 753 510 728 q 686 761 627 778 l 672 644 l 653 644 q 529 642 591 677 q 619 460 619 573 q 577 329 619 386 q 473 242 536 271 q 340 214 410 214 q 208 243 267 214 q 157 180 157 216 q 185 139 157 156 q 268 121 213 123 l 467 111 q 618 59 564 107 q 673 -71 673 12 q 583 -241 673 -180 q 347 -302 492 -302 m 154 -96 q 213 -200 154 -158 q 374 -241 273 -241 q 519 -205 468 -241 q 571 -114 571 -168 q 537 -46 571 -72 q 437 -17 503 -20 l 248 -7 l 200 -3 q 154 -96 154 -41 m 154 1019 l 193 1019 q 237 959 208 982 q 296 927 267 935 q 357 920 325 920 q 418 927 389 920 q 476 959 448 935 q 519 1019 505 982 l 559 1019 q 497 878 554 936 q 357 821 440 821 q 215 879 273 821 q 154 1019 158 937 m 211 458 q 247 325 211 376 q 340 273 282 273 q 435 325 399 273 q 471 458 471 376 q 435 594 471 543 q 340 646 399 646 q 247 594 282 646 q 211 458 211 543 z "},"Ġ":{"ha":972,"x_min":43,"x_max":964,"o":"m 708 354 q 694 407 708 386 q 653 440 681 429 q 592 456 625 451 q 510 463 559 461 l 510 503 l 964 503 l 964 463 q 918 456 935 460 q 884 441 900 452 q 860 409 867 431 q 852 354 852 388 l 852 98 l 860 93 q 856 90 859 92 q 852 87 854 88 l 852 83 l 844 82 q 705 11 787 41 q 525 -18 624 -18 q 373 4 446 -18 q 240 70 300 26 q 136 175 180 114 q 67 317 92 236 q 43 492 43 399 q 105 760 43 640 q 280 948 168 880 q 533 1017 393 1017 q 842 945 678 1017 l 842 684 l 804 684 q 707 882 782 809 q 533 954 633 954 q 361 895 436 954 q 248 735 287 835 q 208 514 208 635 q 250 279 208 387 q 368 109 292 172 q 536 46 444 46 q 708 97 626 46 l 708 354 m 432 1229 q 461 1298 432 1269 q 530 1326 490 1326 q 600 1298 571 1326 q 629 1229 629 1269 q 600 1160 629 1189 q 530 1132 570 1132 q 461 1161 490 1132 q 432 1229 432 1190 z "},"ġ":{"ha":712,"x_min":36,"x_max":686,"o":"m 347 -302 q 199 -283 268 -302 q 83 -221 130 -263 q 36 -121 36 -178 q 63 -41 36 -76 q 136 16 91 -7 q 70 69 91 36 q 49 136 49 102 q 78 216 49 181 q 158 273 107 252 q 64 460 64 344 q 104 590 64 533 q 208 676 145 648 q 340 705 271 705 q 482 672 416 705 q 568 753 510 728 q 686 761 627 778 l 672 644 l 653 644 q 529 642 591 677 q 619 460 619 573 q 577 329 619 386 q 473 242 536 271 q 340 214 410 214 q 208 243 267 214 q 157 180 157 216 q 185 139 157 156 q 268 121 213 123 l 467 111 q 618 59 564 107 q 673 -71 673 12 q 583 -241 673 -180 q 347 -302 492 -302 m 154 -96 q 213 -200 154 -158 q 374 -241 273 -241 q 519 -205 468 -241 q 571 -114 571 -168 q 537 -46 571 -72 q 437 -17 503 -20 l 248 -7 l 200 -3 q 154 -96 154 -41 m 211 458 q 247 325 211 376 q 340 273 282 273 q 435 325 399 273 q 471 458 471 376 q 435 594 471 543 q 340 646 399 646 q 247 594 282 646 q 211 458 211 543 m 260 921 q 289 989 260 961 q 358 1018 317 1018 q 428 989 399 1018 q 457 921 457 961 q 428 852 457 881 q 358 823 398 823 q 289 852 318 823 q 260 921 260 882 z "},"Ģ":{"ha":972,"x_min":43,"x_max":964,"o":"m 708 354 q 694 407 708 386 q 653 440 681 429 q 592 456 625 451 q 510 463 559 461 l 510 503 l 964 503 l 964 463 q 918 456 935 460 q 884 441 900 452 q 860 409 867 431 q 852 354 852 388 l 852 98 l 860 93 q 856 90 859 92 q 852 87 854 88 l 852 83 l 844 82 q 705 11 787 41 q 525 -18 624 -18 q 373 4 446 -18 q 240 70 300 26 q 136 175 180 114 q 67 317 92 236 q 43 492 43 399 q 105 760 43 640 q 280 948 168 880 q 533 1017 393 1017 q 842 945 678 1017 l 842 684 l 804 684 q 707 882 782 809 q 533 954 633 954 q 361 895 436 954 q 248 735 287 835 q 208 514 208 635 q 250 279 208 387 q 368 109 292 172 q 536 46 444 46 q 708 97 626 46 l 708 354 m 425 -143 q 452 -82 425 -107 q 515 -57 479 -57 q 585 -90 557 -57 q 614 -172 614 -122 q 567 -284 614 -231 q 444 -357 521 -338 l 436 -326 q 496 -286 476 -308 q 517 -245 517 -264 q 498 -225 517 -231 q 446 -197 467 -219 q 425 -143 425 -174 z "},"ģ":{"ha":712,"x_min":36,"x_max":686,"o":"m 347 -302 q 199 -283 268 -302 q 83 -221 130 -263 q 36 -121 36 -178 q 63 -41 36 -76 q 136 16 91 -7 q 70 69 91 36 q 49 136 49 102 q 78 216 49 181 q 158 273 107 252 q 64 460 64 344 q 104 590 64 533 q 208 676 145 648 q 340 705 271 705 q 482 672 416 705 q 568 753 510 728 q 686 761 627 778 l 672 644 l 653 644 q 529 642 591 677 q 619 460 619 573 q 577 329 619 386 q 473 242 536 271 q 340 214 410 214 q 208 243 267 214 q 157 180 157 216 q 185 139 157 156 q 268 121 213 123 l 467 111 q 618 59 564 107 q 673 -71 673 12 q 583 -241 673 -180 q 347 -302 492 -302 m 154 -96 q 213 -200 154 -158 q 374 -241 273 -241 q 519 -205 468 -241 q 571 -114 571 -168 q 537 -46 571 -72 q 437 -17 503 -20 l 248 -7 l 200 -3 q 154 -96 154 -41 m 211 458 q 247 325 211 376 q 340 273 282 273 q 435 325 399 273 q 471 458 471 376 q 435 594 471 543 q 340 646 399 646 q 247 594 282 646 q 211 458 211 543 m 244 925 q 296 1050 244 991 q 432 1131 347 1109 l 441 1097 q 374 1053 397 1077 q 351 1008 351 1029 q 372 985 351 990 q 431 953 408 977 q 454 893 454 928 q 425 826 454 853 q 354 799 395 799 q 276 834 307 799 q 244 925 244 869 z "},"Ħ":{"ha":1027,"x_min":36,"x_max":994,"o":"m 37 677 l 37 739 l 150 739 l 150 854 q 142 911 150 889 q 116 943 134 932 q 81 957 98 954 q 36 962 64 960 l 36 1003 l 415 1003 l 415 962 q 370 957 387 960 q 335 942 353 953 q 309 910 317 932 q 301 854 301 888 l 301 739 l 729 739 l 729 854 q 721 910 729 888 q 696 942 713 931 q 662 957 680 953 q 615 962 644 960 l 615 1003 l 994 1003 l 994 962 q 949 957 966 960 q 915 943 932 954 q 888 911 897 932 q 880 854 880 889 l 880 739 l 991 739 l 991 677 l 880 677 l 880 147 q 887 100 880 119 q 902 69 893 80 q 927 51 911 58 q 958 42 944 45 q 994 39 972 40 l 994 -1 l 615 -1 l 615 39 q 662 45 644 41 q 696 59 680 49 q 721 92 713 70 q 729 147 729 113 l 729 473 l 301 473 l 301 147 q 307 100 301 119 q 322 70 313 81 q 347 52 331 58 q 378 42 363 45 q 415 39 393 40 l 415 -1 l 36 -1 l 36 39 q 72 42 58 40 q 103 51 86 45 q 128 69 119 58 q 143 100 137 80 q 150 147 150 119 l 150 677 l 37 677 m 301 536 l 729 536 l 729 677 l 301 677 l 301 536 z "},"ħ":{"ha":805,"x_min":11,"x_max":791,"o":"m 18 37 q 62 43 45 39 q 95 58 79 47 q 118 90 111 68 q 125 143 125 111 l 125 770 l 45 770 l 45 827 l 125 827 l 125 864 q 112 925 125 905 q 75 947 98 945 q 20 946 52 949 l 11 982 l 268 1031 l 268 827 l 513 827 l 513 770 l 268 770 l 268 600 q 472 705 351 705 q 550 691 513 705 q 620 651 588 677 q 670 581 651 625 q 689 481 689 536 l 689 143 q 696 90 689 111 q 719 58 703 68 q 750 43 734 47 q 791 37 766 39 l 791 -1 l 450 -1 l 450 37 q 524 61 501 41 q 547 143 547 81 l 547 467 q 510 567 547 532 q 418 603 472 602 q 268 524 341 603 l 268 143 q 293 61 268 81 q 372 37 317 41 l 372 -1 l 18 -1 l 18 37 z "},"Ī":{"ha":465,"x_min":14,"x_max":454,"o":"m 41 39 q 89 44 71 41 q 125 59 106 48 q 152 91 143 69 q 160 147 160 113 l 160 854 q 152 910 160 888 q 125 942 143 932 q 89 957 106 953 q 41 962 71 960 l 41 1003 l 424 1003 l 424 962 q 376 957 394 960 q 340 942 358 953 q 314 910 322 931 q 306 854 306 888 l 306 147 q 312 101 306 120 q 328 70 318 81 q 353 52 337 59 q 385 42 370 45 q 424 39 401 40 l 424 -1 l 41 -1 l 41 39 m 14 1149 l 14 1210 l 454 1210 l 454 1149 l 14 1149 z "},"ī":{"ha":416,"x_min":-21,"x_max":411,"o":"m 26 37 q 74 44 56 39 q 108 59 92 48 q 132 91 124 70 q 139 143 139 111 l 139 553 q 132 605 139 585 q 108 637 124 626 q 74 653 92 648 q 28 660 56 658 l 28 697 l 279 697 l 279 143 q 307 61 279 82 q 392 37 334 41 l 392 -1 l 26 -1 l 26 37 m -21 844 l -21 904 l 411 904 l 411 844 l -21 844 z "},"Į":{"ha":465,"x_min":41,"x_max":424,"o":"m 41 39 q 89 44 71 41 q 125 59 106 48 q 152 91 143 69 q 160 147 160 113 l 160 854 q 152 910 160 888 q 125 942 143 932 q 89 957 106 953 q 41 962 71 960 l 41 1003 l 424 1003 l 424 962 q 376 957 394 960 q 340 942 358 953 q 314 910 322 931 q 306 854 306 888 l 306 147 q 312 101 306 120 q 328 70 318 81 q 353 52 337 59 q 385 42 370 45 q 424 39 401 40 l 424 -1 l 292 -1 q 227 -56 248 -31 q 205 -111 205 -82 q 230 -158 205 -144 q 291 -163 254 -172 q 363 -125 328 -154 l 363 -167 q 288 -223 334 -201 q 201 -245 242 -245 q 125 -220 155 -245 q 94 -151 94 -194 q 125 -71 94 -109 q 205 -1 156 -32 l 41 -1 l 41 39 z "},"į":{"ha":416,"x_min":26,"x_max":392,"o":"m 26 37 q 74 44 56 39 q 108 59 92 48 q 132 91 124 70 q 139 143 139 111 l 139 553 q 132 605 139 585 q 108 637 124 626 q 74 653 92 648 q 28 660 56 658 l 28 697 l 279 697 l 279 143 q 307 61 279 82 q 392 37 334 41 l 392 -1 l 264 -1 q 199 -56 220 -31 q 178 -111 178 -82 q 202 -158 178 -144 q 263 -163 226 -172 q 335 -125 300 -154 l 335 -167 q 260 -223 306 -201 q 174 -245 214 -245 q 97 -220 127 -245 q 66 -151 66 -194 q 97 -71 66 -109 q 178 -1 128 -32 l 26 -1 l 26 37 m 96 924 q 125 992 96 964 q 195 1021 154 1021 q 264 992 235 1021 q 293 924 293 964 q 264 855 293 884 q 195 827 235 827 q 125 856 155 827 q 96 924 96 884 z "},"İ":{"ha":465,"x_min":41,"x_max":424,"o":"m 41 39 q 89 44 71 41 q 125 59 106 48 q 152 91 143 69 q 160 147 160 113 l 160 854 q 152 910 160 888 q 125 942 143 932 q 89 957 106 953 q 41 962 71 960 l 41 1003 l 424 1003 l 424 962 q 376 957 394 960 q 340 942 358 953 q 314 910 322 931 q 306 854 306 888 l 306 147 q 312 101 306 120 q 328 70 318 81 q 353 52 337 59 q 385 42 370 45 q 424 39 401 40 l 424 -1 l 41 -1 l 41 39 m 135 1225 q 164 1294 135 1265 q 233 1322 193 1322 q 303 1294 274 1322 q 332 1225 332 1265 q 302 1156 332 1185 q 233 1128 273 1128 q 164 1157 193 1128 q 135 1225 135 1185 z "},"ı":{"ha":416,"x_min":26,"x_max":392,"o":"m 26 37 q 74 44 56 39 q 108 59 92 48 q 132 91 124 70 q 139 143 139 111 l 139 553 q 132 605 139 585 q 108 637 124 626 q 74 653 92 648 q 28 660 56 658 l 28 697 l 279 697 l 279 143 q 307 61 279 82 q 392 37 334 41 l 392 -1 l 26 -1 l 26 37 z "},"Ķ":{"ha":968,"x_min":35,"x_max":977,"o":"m 726 -1 l 311 503 l 302 509 l 304 510 l 304 511 l 314 519 l 656 869 q 690 921 687 901 q 673 950 693 941 q 610 961 652 959 l 610 1003 l 942 1003 l 942 961 q 887 952 912 958 q 820 920 862 945 q 734 852 778 895 l 450 570 l 811 132 q 893 60 857 77 q 977 39 930 42 l 977 -1 l 726 -1 m 35 -1 l 35 39 q 73 42 58 40 q 104 52 87 45 q 129 70 120 58 q 144 100 138 81 q 150 147 150 119 l 150 854 q 142 910 150 888 q 116 942 134 932 q 81 957 98 953 q 35 962 64 960 l 35 1003 l 419 1003 l 419 962 q 372 957 389 960 q 336 942 354 953 q 310 910 318 932 q 301 854 301 888 l 301 147 q 310 91 301 113 q 336 59 318 69 q 372 44 354 48 q 419 39 390 41 l 419 -1 l 35 -1 m 406 -139 q 432 -78 406 -103 q 494 -53 458 -53 q 566 -85 536 -53 q 595 -168 595 -118 q 548 -280 595 -227 q 425 -353 501 -334 l 416 -322 q 477 -282 457 -303 q 497 -241 497 -260 q 478 -221 497 -227 q 427 -192 448 -215 q 406 -139 406 -170 z "},"ķ":{"ha":765,"x_min":-3,"x_max":771,"o":"m 524 -1 l 269 357 l 254 375 l 254 143 q 280 61 254 81 q 363 37 307 41 l 363 -1 l 4 -1 l 4 37 q 50 44 33 39 q 82 59 66 48 q 105 90 98 69 q 113 143 113 111 l 113 864 q 99 925 113 905 q 62 947 85 945 q 5 946 38 949 l -3 982 l 254 1031 l 254 380 l 471 558 q 522 616 522 600 q 395 656 522 646 l 395 697 l 720 697 l 720 676 l 399 415 l 604 131 q 680 60 644 77 q 771 37 716 42 l 771 -1 l 524 -1 m 285 -139 q 311 -78 285 -103 q 374 -53 338 -53 q 444 -85 415 -53 q 473 -168 473 -118 q 427 -280 473 -227 q 304 -353 380 -334 l 296 -322 q 356 -282 336 -303 q 376 -241 376 -260 q 357 -221 376 -227 q 306 -193 326 -215 q 285 -139 285 -170 z "},"Ĺ":{"ha":772,"x_min":35,"x_max":732,"o":"m 35 39 q 71 43 58 41 q 101 52 84 45 q 126 69 117 58 q 141 100 135 80 q 147 147 147 119 l 147 854 q 139 911 147 889 q 113 943 131 932 q 79 957 96 954 q 35 962 63 960 l 35 1003 l 404 1003 l 404 962 q 359 957 376 960 q 325 942 342 953 q 299 910 307 932 q 292 854 292 888 l 292 61 l 468 61 q 566 79 525 61 q 631 130 606 96 q 669 203 656 164 q 690 294 682 241 l 732 292 l 711 46 l 707 -1 l 35 -1 l 35 39 m 248 1107 l 346 1346 l 517 1346 l 517 1321 l 282 1107 l 248 1107 z "},"ĺ":{"ha":402,"x_min":11,"x_max":449,"o":"m 20 37 q 105 61 78 41 q 132 143 132 81 l 132 864 q 118 924 132 905 q 79 946 104 944 q 20 945 54 948 l 11 981 l 272 1031 l 272 143 q 280 90 272 111 q 304 58 288 68 q 339 43 321 47 q 385 37 356 39 l 385 -1 l 20 -1 l 20 37 m 179 1108 l 278 1348 l 449 1348 l 449 1322 l 214 1108 l 179 1108 z "},"Ļ":{"ha":772,"x_min":35,"x_max":732,"o":"m 35 39 q 71 43 58 41 q 101 52 84 45 q 126 69 117 58 q 141 100 135 80 q 147 147 147 119 l 147 854 q 139 911 147 889 q 113 943 131 932 q 79 957 96 954 q 35 962 63 960 l 35 1003 l 404 1003 l 404 962 q 359 957 376 960 q 325 942 342 953 q 299 910 307 932 q 292 854 292 888 l 292 61 l 468 61 q 566 79 525 61 q 631 130 606 96 q 669 203 656 164 q 690 294 682 241 l 732 292 l 711 46 l 707 -1 l 35 -1 l 35 39 m 325 -139 q 351 -78 325 -103 q 415 -53 378 -53 q 485 -85 456 -53 q 514 -168 514 -118 q 468 -280 514 -227 q 345 -353 421 -334 l 336 -322 q 397 -282 377 -303 q 416 -241 416 -260 q 399 -221 416 -227 q 346 -193 368 -215 q 325 -139 325 -170 z "},"ļ":{"ha":402,"x_min":11,"x_max":385,"o":"m 20 37 q 105 61 78 41 q 132 143 132 81 l 132 864 q 118 924 132 905 q 79 946 104 944 q 20 945 54 948 l 11 981 l 272 1031 l 272 143 q 280 90 272 111 q 304 58 288 68 q 339 43 321 47 q 385 37 356 39 l 385 -1 l 20 -1 l 20 37 m 110 -139 q 136 -78 110 -103 q 199 -53 163 -53 q 270 -85 241 -53 q 298 -168 298 -118 q 252 -280 298 -227 q 129 -353 205 -334 l 121 -322 q 181 -282 161 -303 q 201 -241 201 -260 q 182 -221 201 -227 q 131 -193 151 -215 q 110 -139 110 -170 z "},"Ľ":{"ha":760,"x_min":35,"x_max":732,"o":"m 35 39 q 71 43 58 41 q 101 52 84 45 q 126 69 117 58 q 141 100 135 80 q 147 147 147 119 l 147 854 q 139 911 147 889 q 113 943 131 932 q 79 957 96 954 q 35 962 63 960 l 35 1003 l 404 1003 l 404 962 q 359 957 376 960 q 325 942 342 953 q 299 910 307 932 q 292 854 292 888 l 292 61 l 468 61 q 566 79 525 61 q 631 130 606 96 q 669 203 656 164 q 690 294 682 241 l 732 292 l 711 46 l 707 -1 l 35 -1 l 35 39 m 515 925 q 545 993 515 965 q 615 1021 575 1021 q 694 985 662 1021 q 726 893 726 949 q 674 767 726 827 q 538 686 623 707 l 528 721 q 595 765 572 741 q 618 810 618 789 q 597 833 618 828 q 539 865 562 841 q 515 925 515 890 z "},"ľ":{"ha":555,"x_min":11,"x_max":542,"o":"m 20 37 q 105 61 78 41 q 132 143 132 81 l 132 864 q 118 924 132 905 q 79 946 104 944 q 20 945 54 948 l 11 981 l 272 1031 l 272 143 q 280 90 272 111 q 304 58 288 68 q 339 43 321 47 q 385 37 356 39 l 385 -1 l 20 -1 l 20 37 m 338 935 q 367 1001 338 974 q 435 1028 395 1028 q 510 992 479 1028 q 542 904 542 957 q 492 783 542 840 q 359 705 441 726 l 350 739 q 415 782 393 759 q 437 823 437 804 q 416 847 437 842 q 360 877 383 853 q 338 935 338 901 z "},"Ł":{"ha":825,"x_min":56,"x_max":794,"o":"m 56 335 l 56 407 l 210 496 l 210 854 q 201 911 210 889 q 176 943 193 932 q 142 957 158 954 q 97 962 125 960 l 97 1003 l 467 1003 l 467 962 q 421 957 438 960 q 387 942 404 953 q 362 910 370 932 q 354 854 354 888 l 354 579 l 619 732 l 619 659 l 354 505 l 354 61 l 530 61 q 628 79 587 61 q 693 130 669 96 q 731 203 718 164 q 753 294 745 241 l 794 292 l 774 46 l 770 -1 l 97 -1 l 97 39 q 133 43 120 41 q 163 52 146 45 q 189 69 180 58 q 203 100 197 80 q 210 147 210 119 l 210 424 l 56 335 z "},"ł":{"ha":508,"x_min":20,"x_max":486,"o":"m 20 326 l 20 400 l 183 500 l 183 864 q 169 924 183 905 q 130 946 155 944 q 71 945 105 948 l 62 981 l 323 1031 l 323 585 l 486 684 l 486 611 l 323 513 l 323 143 q 331 90 323 111 q 356 58 339 68 q 390 43 373 47 q 436 37 408 39 l 436 -1 l 71 -1 l 71 37 q 156 61 129 41 q 183 143 183 81 l 183 427 l 20 326 z "},"Ń":{"ha":1010,"x_min":35,"x_max":983,"o":"m 803 -1 l 222 808 l 222 147 q 231 92 222 113 q 258 59 239 70 q 294 45 277 49 q 342 40 312 42 l 342 -1 l 35 -1 l 35 40 q 82 45 65 42 q 118 59 100 49 q 145 91 137 69 q 154 147 154 113 l 154 854 q 148 902 154 882 q 132 932 141 922 q 105 949 122 943 q 73 958 87 956 q 35 961 59 960 l 35 1003 l 273 1003 l 798 265 l 799 854 q 793 901 799 882 q 777 931 787 920 q 751 948 768 942 q 719 957 734 955 q 679 961 703 960 l 679 1003 l 983 1003 l 983 962 q 937 957 954 960 q 901 942 919 953 q 875 910 883 932 q 867 854 867 888 l 867 -1 l 803 -1 m 485 1107 l 583 1346 l 754 1346 l 754 1321 l 519 1107 l 485 1107 z "},"ń":{"ha":795,"x_min":14,"x_max":782,"o":"m 440 37 q 514 61 491 41 q 536 143 536 81 l 536 467 q 500 568 536 532 q 411 603 464 603 q 260 522 330 603 l 260 143 q 282 61 260 81 q 355 37 304 41 l 355 -1 l 14 -1 l 14 37 q 92 61 66 41 q 117 143 117 82 l 117 553 q 109 607 117 586 q 86 639 102 629 q 54 654 70 650 q 14 660 39 658 l 14 697 l 260 697 l 260 599 q 355 679 302 652 q 465 705 409 705 q 543 691 505 705 q 611 651 581 677 q 660 580 642 624 q 679 481 679 536 l 679 143 q 704 61 679 81 q 782 37 728 41 l 782 -1 l 440 -1 l 440 37 m 370 802 l 468 1040 l 639 1040 l 639 1015 l 404 802 l 370 802 z "},"Ņ":{"ha":1010,"x_min":35,"x_max":983,"o":"m 803 -1 l 222 808 l 222 147 q 231 92 222 113 q 258 59 239 70 q 294 45 277 49 q 342 40 312 42 l 342 -1 l 35 -1 l 35 40 q 82 45 65 42 q 118 59 100 49 q 145 91 137 69 q 154 147 154 113 l 154 854 q 148 902 154 882 q 132 932 141 922 q 105 949 122 943 q 73 958 87 956 q 35 961 59 960 l 35 1003 l 273 1003 l 798 265 l 799 854 q 793 901 799 882 q 777 931 787 920 q 751 948 768 942 q 719 957 734 955 q 679 961 703 960 l 679 1003 l 983 1003 l 983 962 q 937 957 954 960 q 901 942 919 953 q 875 910 883 932 q 867 854 867 888 l 867 -1 l 803 -1 m 422 -139 q 450 -78 422 -103 q 513 -53 477 -53 q 583 -85 554 -53 q 611 -168 611 -118 q 565 -280 611 -227 q 443 -353 519 -334 l 433 -322 q 495 -282 475 -303 q 515 -241 515 -260 q 496 -221 515 -227 q 444 -193 465 -215 q 422 -139 422 -170 z "},"ņ":{"ha":795,"x_min":14,"x_max":782,"o":"m 440 37 q 514 61 491 41 q 536 143 536 81 l 536 467 q 500 568 536 532 q 411 603 464 603 q 260 522 330 603 l 260 143 q 282 61 260 81 q 355 37 304 41 l 355 -1 l 14 -1 l 14 37 q 92 61 66 41 q 117 143 117 82 l 117 553 q 109 607 117 586 q 86 639 102 629 q 54 654 70 650 q 14 660 39 658 l 14 697 l 260 697 l 260 599 q 355 679 302 652 q 465 705 409 705 q 543 691 505 705 q 611 651 581 677 q 660 580 642 624 q 679 481 679 536 l 679 143 q 704 61 679 81 q 782 37 728 41 l 782 -1 l 440 -1 l 440 37 m 301 -139 q 328 -78 301 -103 q 392 -53 355 -53 q 463 -85 433 -53 q 492 -168 492 -118 q 445 -280 492 -227 q 322 -353 398 -334 l 313 -322 q 374 -282 354 -303 q 395 -241 395 -260 q 375 -221 395 -227 q 323 -192 345 -214 q 301 -139 301 -170 z "},"Ň":{"ha":1010,"x_min":35,"x_max":983,"o":"m 803 -1 l 222 808 l 222 147 q 231 92 222 113 q 258 59 239 70 q 294 45 277 49 q 342 40 312 42 l 342 -1 l 35 -1 l 35 40 q 82 45 65 42 q 118 59 100 49 q 145 91 137 69 q 154 147 154 113 l 154 854 q 148 902 154 882 q 132 932 141 922 q 105 949 122 943 q 73 958 87 956 q 35 961 59 960 l 35 1003 l 273 1003 l 798 265 l 799 854 q 793 901 799 882 q 777 931 787 920 q 751 948 768 942 q 719 957 734 955 q 679 961 703 960 l 679 1003 l 983 1003 l 983 962 q 937 957 954 960 q 901 942 919 953 q 875 910 883 932 q 867 854 867 888 l 867 -1 l 803 -1 m 273 1297 l 301 1322 l 507 1223 l 714 1322 l 745 1297 l 521 1109 l 496 1109 l 273 1297 z "},"ň":{"ha":795,"x_min":14,"x_max":782,"o":"m 440 37 q 514 61 491 41 q 536 143 536 81 l 536 467 q 500 568 536 532 q 411 603 464 603 q 260 522 330 603 l 260 143 q 282 61 260 81 q 355 37 304 41 l 355 -1 l 14 -1 l 14 37 q 92 61 66 41 q 117 143 117 82 l 117 553 q 109 607 117 586 q 86 639 102 629 q 54 654 70 650 q 14 660 39 658 l 14 697 l 260 697 l 260 599 q 355 679 302 652 q 465 705 409 705 q 543 691 505 705 q 611 651 581 677 q 660 580 642 624 q 679 481 679 536 l 679 143 q 704 61 679 81 q 782 37 728 41 l 782 -1 l 440 -1 l 440 37 m 165 983 l 192 1007 l 392 911 l 593 1007 l 623 983 l 406 802 l 380 802 l 165 983 z "},"Ŋ":{"ha":1010,"x_min":35,"x_max":983,"o":"m 503 -187 l 525 -71 l 549 -71 q 617 -97 580 -87 q 693 -104 654 -106 q 762 -75 732 -102 q 799 4 791 -47 l 222 808 l 222 147 q 231 92 222 113 q 258 59 239 70 q 294 45 277 49 q 342 40 312 42 l 342 -1 l 35 -1 l 35 40 q 82 45 65 42 q 118 59 100 49 q 145 91 137 69 q 154 147 154 113 l 154 854 q 148 902 154 882 q 132 932 141 922 q 105 949 122 943 q 73 958 87 956 q 35 961 59 960 l 35 1003 l 273 1003 l 798 265 l 799 854 q 793 901 799 882 q 777 931 787 920 q 751 948 768 942 q 719 957 734 955 q 679 961 703 960 l 679 1003 l 983 1003 l 983 962 q 937 957 954 960 q 901 942 919 953 q 875 910 883 932 q 867 854 867 888 l 867 -1 q 847 -112 865 -65 q 799 -184 828 -159 q 732 -221 769 -209 q 654 -231 694 -234 q 575 -217 614 -229 q 503 -187 536 -206 z "},"ŋ":{"ha":748,"x_min":14,"x_max":682,"o":"m 539 467 q 503 566 539 530 q 412 603 467 602 q 260 521 330 603 l 260 143 q 282 61 260 81 q 355 37 304 41 l 355 -1 l 14 -1 l 14 37 q 92 61 66 41 q 117 143 117 82 l 117 553 q 109 607 117 586 q 86 639 102 629 q 54 654 70 650 q 14 660 39 658 l 14 697 l 260 697 l 260 596 q 467 705 347 705 q 544 691 507 705 q 613 651 582 677 q 663 580 644 624 q 682 481 682 536 l 682 -22 q 665 -138 682 -89 q 617 -214 647 -187 q 550 -254 588 -240 q 471 -265 513 -267 q 391 -252 430 -263 q 317 -221 351 -241 l 340 -103 l 366 -103 q 422 -127 391 -118 q 487 -137 454 -137 q 549 -125 521 -137 q 595 -82 576 -114 q 615 -1 614 -51 l 539 -1 l 539 467 z "},"Ō":{"ha":1009,"x_min":43,"x_max":965,"o":"m 504 -17 q 326 23 411 -17 q 179 133 241 64 q 80 299 117 201 q 43 504 43 396 q 80 709 43 613 q 179 872 117 805 q 327 978 242 939 q 504 1017 411 1017 q 681 978 596 1017 q 828 872 765 939 q 928 709 890 805 q 965 504 965 613 q 928 299 965 396 q 828 133 890 201 q 681 23 766 64 q 504 -17 596 -17 m 212 504 q 232 330 212 412 q 289 183 252 247 q 381 82 325 120 q 504 45 437 45 q 661 110 593 45 q 764 278 729 174 q 799 505 799 382 q 764 728 799 627 q 661 892 729 829 q 504 954 593 954 q 381 918 437 954 q 289 819 325 881 q 232 675 252 756 q 212 504 212 594 m 285 1152 l 285 1213 l 729 1213 l 729 1152 l 285 1152 z "},"ō":{"ha":736,"x_min":36,"x_max":700,"o":"m 368 -11 q 240 15 300 -11 q 134 87 179 41 q 62 202 89 134 q 36 350 36 270 q 62 497 36 430 q 134 610 89 565 q 240 680 179 655 q 368 705 300 705 q 604 607 507 705 q 700 350 700 508 q 654 160 700 243 q 533 33 608 77 q 368 -11 458 -11 m 147 840 l 147 901 l 591 901 l 591 840 l 147 840 m 195 350 q 205 236 195 290 q 237 141 216 183 q 292 74 258 98 q 368 49 326 49 q 465 92 425 49 q 524 202 505 135 q 543 350 543 269 q 524 496 543 430 q 465 604 505 562 q 368 646 425 646 q 271 604 311 646 q 213 496 231 562 q 195 350 195 431 z "},"Ő":{"ha":1009,"x_min":43,"x_max":965,"o":"m 504 -17 q 326 23 411 -17 q 179 133 241 64 q 80 299 117 201 q 43 504 43 396 q 80 709 43 613 q 179 872 117 805 q 327 978 242 939 q 504 1017 411 1017 q 681 978 596 1017 q 828 872 765 939 q 928 709 890 805 q 965 504 965 613 q 928 299 965 396 q 828 133 890 201 q 681 23 766 64 q 504 -17 596 -17 m 212 504 q 232 330 212 412 q 289 183 252 247 q 381 82 325 120 q 504 45 437 45 q 661 110 593 45 q 764 278 729 174 q 799 505 799 382 q 764 728 799 627 q 661 892 729 829 q 504 954 593 954 q 381 918 437 954 q 289 819 325 881 q 232 675 252 756 q 212 504 212 594 m 363 1112 l 457 1341 l 623 1341 l 623 1320 l 396 1112 l 363 1112 m 629 1112 l 725 1341 l 889 1341 l 889 1320 l 663 1112 l 629 1112 z "},"ő":{"ha":736,"x_min":36,"x_max":751,"o":"m 368 -11 q 240 15 300 -11 q 134 87 179 41 q 62 202 89 134 q 36 350 36 270 q 62 497 36 430 q 134 610 89 565 q 240 680 179 655 q 368 705 300 705 q 604 607 507 705 q 700 350 700 508 q 654 160 700 243 q 533 33 608 77 q 368 -11 458 -11 m 195 350 q 205 236 195 290 q 237 141 216 183 q 292 74 258 98 q 368 49 326 49 q 465 92 425 49 q 524 202 505 135 q 543 350 543 269 q 524 496 543 430 q 465 604 505 562 q 368 646 425 646 q 271 604 311 646 q 213 496 231 562 q 195 350 195 431 m 225 802 l 319 1031 l 485 1031 l 485 1008 l 258 802 l 225 802 m 492 802 l 587 1031 l 751 1031 l 751 1008 l 525 802 l 492 802 z "},"Œ":{"ha":1358,"x_min":43,"x_max":1328,"o":"m 542 -1 q 350 36 441 -1 q 191 140 259 74 q 83 300 123 205 q 43 504 43 395 q 83 707 43 612 q 192 865 123 801 q 351 966 260 930 q 542 1003 442 1003 l 1295 1003 l 1301 954 l 1321 732 l 1279 728 q 1259 811 1271 777 q 1223 877 1246 845 q 1160 924 1200 908 q 1065 940 1121 940 l 831 940 l 831 547 l 1008 547 q 1065 555 1042 547 q 1098 580 1087 564 q 1114 614 1109 597 q 1120 659 1118 631 l 1160 659 l 1160 374 l 1120 374 q 1113 419 1118 401 q 1098 453 1109 437 q 1064 478 1086 470 q 1008 486 1042 486 l 831 486 l 831 61 l 1063 61 q 1215 118 1165 61 q 1284 294 1265 175 l 1328 292 l 1307 46 l 1303 -1 l 542 -1 m 212 504 q 252 282 212 381 q 372 121 292 182 q 562 60 453 60 l 679 60 l 679 879 q 671 909 678 897 q 654 927 663 921 q 627 937 644 934 q 597 941 610 941 q 562 942 584 942 q 413 907 480 942 q 302 812 346 872 q 236 673 259 752 q 212 504 212 594 z "},"œ":{"ha":1180,"x_min":36,"x_max":1139,"o":"m 368 -11 q 240 15 300 -11 q 134 87 179 41 q 62 202 89 134 q 36 350 36 270 q 62 497 36 430 q 134 610 89 565 q 240 680 179 655 q 368 705 300 705 q 507 675 442 705 q 618 590 572 646 q 720 675 660 646 q 851 705 780 705 q 1061 608 985 705 q 1133 359 1137 511 l 700 359 l 700 350 q 699 311 700 323 q 767 146 712 204 q 904 87 821 87 q 1105 200 1024 87 l 1139 192 q 1039 49 1113 109 q 861 -11 964 -11 q 726 20 790 -11 q 619 109 663 52 q 507 21 573 52 q 368 -11 441 -11 m 195 350 q 205 236 195 290 q 237 141 216 183 q 292 74 258 98 q 368 49 326 49 q 465 92 425 49 q 524 202 505 135 q 543 350 543 269 q 524 496 543 430 q 465 604 505 562 q 368 646 425 646 q 271 604 311 646 q 213 496 231 562 q 195 350 195 431 m 696 419 l 987 419 q 944 581 982 517 q 847 646 906 646 q 772 613 805 646 q 720 530 739 580 q 696 419 701 479 z "},"Ŕ":{"ha":926,"x_min":35,"x_max":953,"o":"m 35 39 q 73 42 58 40 q 104 52 87 45 q 129 70 120 58 q 144 100 138 81 q 150 147 150 119 l 150 854 q 142 910 150 888 q 116 942 134 932 q 81 957 98 953 q 35 962 64 960 l 35 1003 l 493 1003 q 718 928 629 1003 q 806 733 806 852 q 743 559 806 631 q 581 467 681 488 l 804 138 q 877 61 844 79 q 953 39 909 42 l 953 -1 l 724 -1 l 425 453 l 301 453 l 301 147 q 307 101 301 120 q 323 70 313 81 q 349 52 332 59 q 380 42 365 45 q 418 39 395 40 l 418 -1 l 35 -1 l 35 39 m 301 513 l 473 513 q 599 570 551 513 q 647 726 647 627 q 595 885 647 827 q 446 943 543 943 l 301 943 l 301 513 m 410 1107 l 509 1346 l 679 1346 l 679 1321 l 444 1107 l 410 1107 z "},"ŕ":{"ha":570,"x_min":24,"x_max":545,"o":"m 24 37 q 106 61 79 41 q 132 143 132 82 l 132 553 q 106 634 132 614 q 24 660 81 655 l 24 697 l 273 697 l 273 507 q 319 596 292 556 q 381 663 346 635 q 457 699 416 690 q 545 696 498 708 l 524 551 l 504 551 q 450 564 477 563 q 397 554 422 564 q 349 521 372 544 q 310 465 326 498 q 283 385 293 433 q 273 279 273 336 l 273 143 q 299 61 273 81 q 382 37 326 41 l 382 -1 l 24 -1 l 24 37 m 268 802 l 367 1040 l 538 1040 l 538 1015 l 302 802 l 268 802 z "},"Ŗ":{"ha":926,"x_min":35,"x_max":953,"o":"m 35 39 q 73 42 58 40 q 104 52 87 45 q 129 70 120 58 q 144 100 138 81 q 150 147 150 119 l 150 854 q 142 910 150 888 q 116 942 134 932 q 81 957 98 953 q 35 962 64 960 l 35 1003 l 493 1003 q 718 928 629 1003 q 806 733 806 852 q 743 559 806 631 q 581 467 681 488 l 804 138 q 877 61 844 79 q 953 39 909 42 l 953 -1 l 724 -1 l 425 453 l 301 453 l 301 147 q 307 101 301 120 q 323 70 313 81 q 349 52 332 59 q 380 42 365 45 q 418 39 395 40 l 418 -1 l 35 -1 l 35 39 m 301 513 l 473 513 q 599 570 551 513 q 647 726 647 627 q 595 885 647 827 q 446 943 543 943 l 301 943 l 301 513 m 399 -139 q 425 -78 399 -103 q 488 -53 452 -53 q 558 -85 529 -53 q 587 -168 587 -118 q 541 -280 587 -227 q 418 -353 494 -334 l 410 -322 q 470 -282 450 -303 q 490 -241 490 -260 q 471 -221 490 -227 q 419 -193 440 -215 q 399 -139 399 -170 z "},"ŗ":{"ha":570,"x_min":24,"x_max":545,"o":"m 24 37 q 106 61 79 41 q 132 143 132 82 l 132 553 q 106 634 132 614 q 24 660 81 655 l 24 697 l 273 697 l 273 507 q 319 596 292 556 q 381 663 346 635 q 457 699 416 690 q 545 696 498 708 l 524 551 l 504 551 q 450 564 477 563 q 397 554 422 564 q 349 521 372 544 q 310 465 326 498 q 283 385 293 433 q 273 279 273 336 l 273 143 q 299 61 273 81 q 382 37 326 41 l 382 -1 l 24 -1 l 24 37 m 110 -139 q 136 -78 110 -103 q 199 -53 163 -53 q 270 -85 241 -53 q 298 -168 298 -118 q 252 -280 298 -227 q 129 -353 205 -334 l 121 -322 q 181 -282 161 -303 q 201 -241 201 -260 q 183 -221 201 -227 q 131 -193 152 -215 q 110 -139 110 -170 z "},"Ř":{"ha":926,"x_min":35,"x_max":953,"o":"m 35 39 q 73 42 58 40 q 104 52 87 45 q 129 70 120 58 q 144 100 138 81 q 150 147 150 119 l 150 854 q 142 910 150 888 q 116 942 134 932 q 81 957 98 953 q 35 962 64 960 l 35 1003 l 493 1003 q 718 928 629 1003 q 806 733 806 852 q 743 559 806 631 q 581 467 681 488 l 804 138 q 877 61 844 79 q 953 39 909 42 l 953 -1 l 724 -1 l 425 453 l 301 453 l 301 147 q 307 101 301 120 q 323 70 313 81 q 349 52 332 59 q 380 42 365 45 q 418 39 395 40 l 418 -1 l 35 -1 l 35 39 m 199 1297 l 227 1322 l 432 1223 l 639 1322 l 669 1297 l 446 1109 l 421 1109 l 199 1297 m 301 513 l 473 513 q 599 570 551 513 q 647 726 647 627 q 595 885 647 827 q 446 943 543 943 l 301 943 l 301 513 z "},"ř":{"ha":570,"x_min":24,"x_max":545,"o":"m 24 37 q 106 61 79 41 q 132 143 132 82 l 132 553 q 106 634 132 614 q 24 660 81 655 l 24 697 l 273 697 l 273 507 q 319 596 292 556 q 381 663 346 635 q 457 699 416 690 q 545 696 498 708 l 524 551 l 504 551 q 450 564 477 563 q 397 554 422 564 q 349 521 372 544 q 310 465 326 498 q 283 385 293 433 q 273 279 273 336 l 273 143 q 299 61 273 81 q 382 37 326 41 l 382 -1 l 24 -1 l 24 37 m 64 982 l 90 1007 l 290 911 l 490 1007 l 521 982 l 302 800 l 279 800 l 64 982 z "},"Ś":{"ha":754,"x_min":40,"x_max":707,"o":"m 372 -17 q 45 72 212 -17 l 41 332 l 83 332 q 122 198 94 254 q 191 109 151 141 q 275 62 231 77 q 370 47 319 47 q 520 94 467 47 q 572 220 574 140 q 563 275 572 249 q 535 322 554 300 q 495 360 517 343 q 441 395 474 378 q 379 426 408 412 q 307 456 350 439 q 104 581 168 509 q 41 747 40 652 q 135 941 43 865 q 382 1017 227 1017 q 675 942 527 1017 l 677 693 l 639 693 q 380 954 595 954 q 231 910 286 954 q 175 798 175 866 q 239 682 174 734 q 447 575 304 631 q 644 448 581 520 q 707 268 707 376 q 688 162 706 210 q 639 81 670 114 q 566 26 608 48 q 475 -7 524 3 q 372 -17 427 -17 m 355 1107 l 454 1346 l 625 1346 l 625 1321 l 390 1107 l 355 1107 z "},"ś":{"ha":591,"x_min":49,"x_max":553,"o":"m 307 -12 q 49 57 201 -12 l 53 257 l 92 257 q 310 47 147 47 q 401 75 368 47 q 435 153 435 102 q 433 174 435 164 q 427 192 432 183 q 418 208 422 201 q 404 223 414 215 q 389 236 394 231 q 368 249 383 241 q 345 260 352 256 q 317 272 338 264 q 289 284 297 281 q 256 297 280 288 q 187 327 214 314 q 131 358 160 339 q 86 396 102 376 q 59 442 70 415 q 49 501 49 469 q 118 648 49 593 q 298 704 188 704 q 528 647 409 704 l 524 460 l 486 460 q 296 646 444 646 q 202 620 237 646 q 167 549 167 593 q 171 522 167 534 q 185 499 175 510 q 206 481 196 488 q 236 463 216 473 q 271 447 257 453 q 314 429 285 441 q 361 410 343 417 q 439 377 408 393 q 498 336 471 360 q 539 279 526 313 q 553 203 553 246 q 484 45 553 103 q 307 -12 414 -12 m 271 800 l 370 1039 l 541 1039 l 541 1014 l 306 800 l 271 800 z "},"Ş":{"ha":754,"x_min":40,"x_max":707,"o":"m 399 -264 q 264 -207 317 -264 l 264 -161 q 312 -187 290 -178 q 349 -196 334 -195 q 374 -191 363 -196 q 390 -176 385 -185 q 395 -154 395 -166 q 273 -96 395 -96 l 329 -16 q 45 72 184 -3 l 41 332 l 83 332 q 122 198 94 254 q 191 109 151 141 q 275 62 231 77 q 370 47 319 47 q 520 94 467 47 q 572 220 574 140 q 563 275 572 249 q 535 322 554 300 q 495 360 517 343 q 441 395 474 378 q 379 426 408 412 q 307 456 350 439 q 104 581 168 509 q 41 747 40 652 q 135 941 43 865 q 382 1017 227 1017 q 675 942 527 1017 l 677 693 l 639 693 q 380 954 595 954 q 231 910 286 954 q 175 798 175 866 q 239 682 174 734 q 447 575 304 631 q 644 448 581 520 q 707 268 707 376 q 682 145 706 199 q 616 58 658 92 q 520 6 574 24 q 403 -16 467 -12 l 380 -47 q 477 -84 439 -55 q 514 -163 514 -113 q 481 -236 514 -210 q 399 -264 448 -262 z "},"ş":{"ha":591,"x_min":49,"x_max":553,"o":"m 313 -268 q 178 -211 231 -268 l 178 -165 q 225 -191 203 -182 q 262 -200 248 -199 q 288 -195 277 -200 q 303 -180 298 -189 q 309 -158 309 -170 q 187 -100 309 -100 l 252 -8 q 49 57 166 5 l 53 257 l 92 257 q 310 47 147 47 q 401 75 368 47 q 435 153 435 102 q 433 174 435 164 q 427 192 432 183 q 418 208 422 201 q 404 223 414 215 q 389 236 394 231 q 368 249 383 241 q 345 260 352 256 q 317 272 338 264 q 289 284 297 281 q 256 297 280 288 q 187 327 214 314 q 131 358 160 339 q 86 396 102 376 q 59 442 70 415 q 49 501 49 469 q 118 648 49 593 q 298 704 188 704 q 528 647 409 704 l 524 460 l 486 460 q 296 646 444 646 q 202 620 237 646 q 167 549 167 593 q 171 522 167 534 q 185 499 175 510 q 206 481 196 488 q 236 463 216 473 q 271 447 257 453 q 314 429 285 441 q 361 410 343 417 q 439 377 408 393 q 498 336 471 360 q 539 279 526 313 q 553 203 553 246 q 488 50 553 107 q 322 -12 424 -8 l 294 -52 q 391 -88 353 -59 q 428 -167 428 -117 q 395 -240 428 -214 q 313 -268 362 -267 z "},"Š":{"ha":754,"x_min":40,"x_max":707,"o":"m 372 -17 q 45 72 212 -17 l 41 332 l 83 332 q 122 198 94 254 q 191 109 151 141 q 275 62 231 77 q 370 47 319 47 q 520 94 467 47 q 572 220 574 140 q 563 275 572 249 q 535 322 554 300 q 495 360 517 343 q 441 395 474 378 q 379 426 408 412 q 307 456 350 439 q 104 581 168 509 q 41 747 40 652 q 135 941 43 865 q 382 1017 227 1017 q 675 942 527 1017 l 677 693 l 639 693 q 380 954 595 954 q 231 910 286 954 q 175 798 175 866 q 239 682 174 734 q 447 575 304 631 q 644 448 581 520 q 707 268 707 376 q 688 162 706 210 q 639 81 670 114 q 566 26 608 48 q 475 -7 524 3 q 372 -17 427 -17 m 149 1291 l 176 1314 l 376 1218 l 579 1314 l 608 1291 l 390 1107 l 367 1107 l 149 1291 z "},"š":{"ha":591,"x_min":49,"x_max":553,"o":"m 307 -12 q 49 57 201 -12 l 53 257 l 92 257 q 310 47 147 47 q 401 75 368 47 q 435 153 435 102 q 433 174 435 164 q 427 192 432 183 q 418 208 422 201 q 404 223 414 215 q 389 236 394 231 q 368 249 383 241 q 345 260 352 256 q 317 272 338 264 q 289 284 297 281 q 256 297 280 288 q 187 327 214 314 q 131 358 160 339 q 86 396 102 376 q 59 442 70 415 q 49 501 49 469 q 118 648 49 593 q 298 704 188 704 q 528 647 409 704 l 524 460 l 486 460 q 296 646 444 646 q 202 620 237 646 q 167 549 167 593 q 171 522 167 534 q 185 499 175 510 q 206 481 196 488 q 236 463 216 473 q 271 447 257 453 q 314 429 285 441 q 361 410 343 417 q 439 377 408 393 q 498 336 471 360 q 539 279 526 313 q 553 203 553 246 q 484 45 553 103 q 307 -12 414 -12 m 66 982 l 93 1006 l 293 909 l 494 1006 l 524 982 l 307 800 l 282 800 l 66 982 z "},"Ţ":{"ha":905,"x_min":25,"x_max":879,"o":"m 257 39 q 304 44 286 41 q 340 59 322 48 q 367 91 358 69 q 375 147 375 113 l 375 940 l 283 940 q 186 925 227 940 q 122 880 145 910 q 86 817 98 850 q 66 734 73 783 l 25 737 l 37 953 l 41 1003 l 863 1003 l 867 953 l 879 737 l 839 734 q 819 817 831 783 q 784 880 807 850 q 720 925 760 910 q 623 940 680 940 l 526 940 l 526 147 q 532 101 526 120 q 548 70 538 81 q 574 52 557 59 q 606 42 590 45 q 644 39 621 40 l 644 -1 l 486 -1 l 453 -47 q 549 -84 511 -55 q 586 -163 586 -113 q 553 -236 586 -210 q 471 -264 520 -262 q 336 -207 389 -264 l 336 -161 q 384 -187 362 -178 q 420 -196 406 -195 q 446 -191 435 -196 q 462 -176 457 -185 q 467 -154 467 -166 q 346 -96 467 -96 l 411 -1 l 257 -1 l 257 39 z "},"ţ":{"ha":487,"x_min":3,"x_max":461,"o":"m 3 631 l 3 672 l 18 675 q 130 744 80 693 q 208 876 179 795 l 248 876 l 248 697 l 437 697 l 437 631 l 248 631 l 248 200 q 267 115 248 143 q 332 86 287 86 q 429 134 380 86 l 461 125 q 288 -11 398 -3 l 260 -50 q 356 -87 319 -58 q 393 -165 393 -116 q 360 -239 393 -213 q 278 -267 328 -265 q 143 -210 196 -267 l 143 -164 q 191 -190 169 -181 q 227 -198 212 -198 q 253 -193 242 -199 q 269 -178 264 -188 q 273 -157 273 -169 q 153 -98 273 -98 l 218 -3 q 133 63 163 14 q 103 184 103 113 l 103 631 l 3 631 z "},"Ť":{"ha":905,"x_min":25,"x_max":879,"o":"m 257 39 q 304 44 286 41 q 340 59 322 48 q 367 91 358 69 q 375 147 375 113 l 375 940 l 283 940 q 186 925 227 940 q 122 880 145 910 q 86 817 98 850 q 66 734 73 783 l 25 737 l 37 953 l 41 1003 l 863 1003 l 867 953 l 879 737 l 839 734 q 819 817 831 783 q 784 880 807 850 q 720 925 760 910 q 623 940 680 940 l 526 940 l 526 147 q 532 101 526 120 q 548 70 538 81 q 574 52 557 59 q 606 42 590 45 q 644 39 621 40 l 644 -1 l 257 -1 l 257 39 m 215 1297 l 243 1322 l 449 1223 l 656 1322 l 686 1297 l 463 1109 l 437 1109 l 215 1297 z "},"ť":{"ha":515,"x_min":3,"x_max":526,"o":"m 273 -11 q 148 43 192 -11 q 103 184 103 96 l 103 631 l 3 631 l 3 672 l 18 675 q 130 744 80 693 q 208 876 179 795 l 248 876 l 248 697 l 437 697 l 437 631 l 248 631 l 248 200 q 267 115 248 143 q 332 86 287 86 q 429 134 380 86 l 461 125 q 273 -11 393 -11 m 323 1010 q 352 1075 323 1048 q 419 1101 380 1101 q 495 1067 464 1101 q 526 979 526 1032 q 476 858 526 916 q 345 779 427 800 l 335 812 q 401 856 379 833 q 422 899 422 879 q 403 921 422 915 q 346 952 369 928 q 323 1010 323 976 z "},"Ŧ":{"ha":905,"x_min":25,"x_max":879,"o":"m 155 522 l 155 589 l 375 589 l 375 940 l 283 940 q 186 925 227 940 q 122 880 145 910 q 86 817 98 850 q 66 734 73 783 l 25 737 l 37 953 l 41 1003 l 863 1003 l 867 953 l 879 737 l 839 734 q 819 817 831 783 q 784 880 807 850 q 720 925 760 910 q 623 940 680 940 l 526 940 l 526 589 l 749 589 l 749 522 l 526 522 l 526 147 q 532 101 526 120 q 548 70 538 81 q 574 52 557 59 q 606 42 590 45 q 644 39 621 40 l 644 -1 l 257 -1 l 257 39 q 304 44 286 41 q 340 59 322 48 q 367 91 358 69 q 375 147 375 113 l 375 522 l 155 522 z "},"ŧ":{"ha":547,"x_min":3,"x_max":461,"o":"m 31 425 l 31 497 l 103 497 l 103 631 l 3 631 l 3 672 l 18 675 q 130 744 80 693 q 208 876 179 795 l 248 876 l 248 697 l 437 697 l 437 631 l 248 631 l 248 497 l 411 497 l 411 425 l 248 425 l 248 200 q 267 115 248 143 q 332 86 287 86 q 429 134 380 86 l 461 125 q 273 -11 393 -11 q 148 43 192 -11 q 103 184 103 96 l 103 425 l 31 425 z "},"Ū":{"ha":993,"x_min":24,"x_max":971,"o":"m 504 -18 q 369 5 432 -18 q 253 75 305 28 q 171 200 201 121 q 140 382 140 279 l 140 854 q 132 910 140 888 q 106 942 124 932 q 70 957 87 953 q 24 962 53 960 l 24 1003 l 408 1003 l 408 962 q 361 957 379 960 q 326 942 344 953 q 300 910 308 932 q 292 854 292 888 l 292 380 q 355 151 292 230 q 533 72 419 72 q 630 89 586 72 q 710 140 675 106 q 766 232 746 174 q 786 367 786 290 l 786 854 q 778 909 786 888 q 751 941 769 930 q 714 955 732 951 q 665 961 696 959 l 665 1003 l 971 1003 l 971 961 q 931 957 947 960 q 899 948 916 955 q 872 931 882 942 q 856 901 863 920 q 850 854 850 882 l 850 358 q 823 193 850 266 q 749 75 796 121 q 640 5 702 29 q 504 -18 577 -18 m 293 1156 l 293 1217 l 737 1217 l 737 1156 l 293 1156 z "},"ū":{"ha":846,"x_min":31,"x_max":806,"o":"m 350 -9 q 271 4 309 -9 q 202 45 233 18 q 152 116 171 72 q 134 215 134 160 l 134 553 q 126 607 134 586 q 103 639 119 629 q 71 654 87 650 q 31 660 56 658 l 31 697 l 277 697 l 277 229 q 313 129 277 163 q 403 94 349 94 q 561 178 491 94 l 561 553 q 537 636 561 615 q 464 660 514 656 l 464 697 l 703 697 l 703 143 q 708 98 703 117 q 722 68 713 79 q 745 50 730 57 q 772 41 759 43 q 806 37 785 39 l 806 -1 l 596 -1 q 566 104 574 45 q 467 20 522 50 q 350 -9 411 -9 m 179 846 l 179 907 l 624 907 l 624 846 l 179 846 z "},"Ů":{"ha":993,"x_min":24,"x_max":971,"o":"m 504 -18 q 369 5 432 -18 q 253 75 305 28 q 171 200 201 121 q 140 382 140 279 l 140 854 q 132 910 140 888 q 106 942 124 932 q 70 957 87 953 q 24 962 53 960 l 24 1003 l 408 1003 l 408 962 q 361 957 379 960 q 326 942 344 953 q 300 910 308 932 q 292 854 292 888 l 292 380 q 355 151 292 230 q 533 72 419 72 q 630 89 586 72 q 710 140 675 106 q 766 232 746 174 q 786 367 786 290 l 786 854 q 778 909 786 888 q 751 941 769 930 q 714 955 732 951 q 665 961 696 959 l 665 1003 l 971 1003 l 971 961 q 931 957 947 960 q 899 948 916 955 q 872 931 882 942 q 856 901 863 920 q 850 854 850 882 l 850 358 q 823 193 850 266 q 749 75 796 121 q 640 5 702 29 q 504 -18 577 -18 m 379 1243 q 418 1336 379 1297 q 513 1375 458 1375 q 606 1336 566 1375 q 646 1243 646 1297 q 606 1151 646 1190 q 513 1112 566 1112 q 418 1151 458 1112 q 379 1243 379 1190 m 466 1290 q 457 1280 466 1290 q 447 1243 447 1270 q 466 1197 447 1217 q 513 1178 486 1178 q 558 1197 539 1178 q 578 1243 578 1217 q 558 1290 578 1270 q 513 1310 539 1310 q 466 1290 486 1310 z "},"ů":{"ha":846,"x_min":31,"x_max":806,"o":"m 350 -9 q 271 4 309 -9 q 202 45 233 18 q 152 116 171 72 q 134 215 134 160 l 134 553 q 126 607 134 586 q 103 639 119 629 q 71 654 87 650 q 31 660 56 658 l 31 697 l 277 697 l 277 229 q 313 129 277 163 q 403 94 349 94 q 561 178 491 94 l 561 553 q 537 636 561 615 q 464 660 514 656 l 464 697 l 703 697 l 703 143 q 708 98 703 117 q 722 68 713 79 q 745 50 730 57 q 772 41 759 43 q 806 37 785 39 l 806 -1 l 596 -1 q 566 104 574 45 q 467 20 522 50 q 350 -9 411 -9 m 267 935 q 306 1028 267 989 q 400 1067 345 1067 q 493 1027 453 1067 q 533 935 533 988 q 494 843 533 882 q 400 804 454 804 q 306 843 345 804 q 267 935 267 882 m 354 981 q 345 971 354 981 q 335 935 335 961 q 354 889 335 908 q 400 869 374 869 q 446 889 427 869 q 465 935 465 908 q 446 981 465 961 q 400 1002 427 1002 q 354 981 373 1002 z "},"Ű":{"ha":993,"x_min":24,"x_max":971,"o":"m 504 -18 q 369 5 432 -18 q 253 75 305 28 q 171 200 201 121 q 140 382 140 279 l 140 854 q 132 910 140 888 q 106 942 124 932 q 70 957 87 953 q 24 962 53 960 l 24 1003 l 408 1003 l 408 962 q 361 957 379 960 q 326 942 344 953 q 300 910 308 932 q 292 854 292 888 l 292 380 q 355 151 292 230 q 533 72 419 72 q 630 89 586 72 q 710 140 675 106 q 766 232 746 174 q 786 367 786 290 l 786 854 q 778 909 786 888 q 751 941 769 930 q 714 955 732 951 q 665 961 696 959 l 665 1003 l 971 1003 l 971 961 q 931 957 947 960 q 899 948 916 955 q 872 931 882 942 q 856 901 863 920 q 850 854 850 882 l 850 358 q 823 193 850 266 q 749 75 796 121 q 640 5 702 29 q 504 -18 577 -18 m 371 1117 l 465 1346 l 629 1346 l 629 1324 l 404 1117 l 371 1117 m 637 1117 l 732 1346 l 897 1346 l 897 1324 l 671 1117 l 637 1117 z "},"ű":{"ha":846,"x_min":31,"x_max":806,"o":"m 350 -9 q 271 4 309 -9 q 202 45 233 18 q 152 116 171 72 q 134 215 134 160 l 134 553 q 126 607 134 586 q 103 639 119 629 q 71 654 87 650 q 31 660 56 658 l 31 697 l 277 697 l 277 229 q 313 129 277 163 q 403 94 349 94 q 561 178 491 94 l 561 553 q 537 636 561 615 q 464 660 514 656 l 464 697 l 703 697 l 703 143 q 708 98 703 117 q 722 68 713 79 q 745 50 730 57 q 772 41 759 43 q 806 37 785 39 l 806 -1 l 596 -1 q 566 104 574 45 q 467 20 522 50 q 350 -9 411 -9 m 257 808 l 353 1038 l 517 1038 l 517 1014 l 290 808 l 257 808 m 525 808 l 619 1038 l 785 1038 l 785 1014 l 558 808 l 525 808 z "},"Ų":{"ha":993,"x_min":24,"x_max":971,"o":"m 504 -18 q 369 5 432 -18 q 253 75 305 28 q 171 200 201 121 q 140 382 140 279 l 140 854 q 132 910 140 888 q 106 942 124 932 q 70 957 87 953 q 24 962 53 960 l 24 1003 l 408 1003 l 408 962 q 361 957 379 960 q 326 942 344 953 q 300 910 308 932 q 292 854 292 888 l 292 380 q 355 151 292 230 q 533 72 419 72 q 630 89 586 72 q 710 140 675 106 q 766 232 746 174 q 786 367 786 290 l 786 854 q 778 909 786 888 q 751 941 769 930 q 714 955 732 951 q 665 961 696 959 l 665 1003 l 971 1003 l 971 961 q 931 957 947 960 q 899 948 916 955 q 872 931 882 942 q 856 901 863 920 q 850 854 850 882 l 850 358 q 796 137 850 225 q 650 9 743 49 q 572 -52 596 -25 q 547 -111 547 -79 q 571 -158 547 -144 q 632 -163 595 -172 q 704 -125 669 -154 l 704 -167 q 629 -223 675 -201 q 543 -245 584 -245 q 467 -220 497 -245 q 436 -151 436 -194 q 524 -18 436 -79 l 504 -18 z "},"ų":{"ha":846,"x_min":31,"x_max":806,"o":"m 350 -9 q 271 4 309 -9 q 202 45 233 18 q 152 116 171 72 q 134 215 134 160 l 134 553 q 126 607 134 586 q 103 639 119 629 q 71 654 87 650 q 31 660 56 658 l 31 697 l 277 697 l 277 229 q 313 129 277 163 q 403 94 349 94 q 561 178 491 94 l 561 553 q 537 636 561 615 q 464 660 514 656 l 464 697 l 703 697 l 703 143 q 708 98 703 117 q 722 68 713 79 q 745 50 730 57 q 772 41 759 43 q 806 37 785 39 l 806 -1 l 711 -1 q 646 -56 667 -31 q 625 -111 625 -82 q 649 -158 625 -144 q 710 -163 673 -172 q 782 -125 747 -154 l 782 -167 q 707 -223 753 -201 q 621 -245 661 -245 q 544 -220 574 -245 q 514 -151 514 -194 q 545 -71 514 -109 q 625 -1 576 -32 l 596 -1 q 566 104 574 45 q 467 20 522 50 q 350 -9 411 -9 z "},"Ŵ":{"ha":1441,"x_min":8,"x_max":1443,"o":"m 144 857 q 93 938 123 918 q 8 962 62 958 l 8 1003 l 383 1003 l 383 962 q 346 958 359 960 q 317 949 332 956 q 296 932 302 943 q 291 904 291 922 q 300 861 291 886 l 521 237 l 686 725 l 640 857 q 587 938 619 918 q 497 962 555 958 l 497 1003 l 882 1003 l 882 962 q 844 959 859 961 q 815 949 829 956 q 794 932 800 943 q 788 904 788 922 q 796 861 787 886 l 1018 233 l 1234 863 q 1242 905 1242 888 q 1236 933 1242 923 q 1216 949 1230 943 q 1186 958 1201 956 q 1147 961 1171 960 l 1147 1003 l 1443 1003 l 1443 962 q 1398 956 1415 960 q 1361 942 1381 952 q 1326 910 1341 931 q 1300 856 1312 889 l 1007 7 l 1006 -1 l 942 -1 l 721 628 l 511 9 l 509 -1 l 444 -1 l 444 1 l 144 857 m 488 1126 l 710 1314 l 734 1314 l 958 1126 l 928 1101 l 721 1200 l 515 1101 l 488 1126 z "},"ŵ":{"ha":1156,"x_min":18,"x_max":1139,"o":"m 139 555 q 92 636 118 616 q 18 660 66 655 l 18 697 l 370 697 l 370 660 q 333 655 347 658 q 305 647 319 653 q 286 630 291 640 q 281 603 281 620 q 289 561 281 585 l 400 227 l 550 697 l 675 697 l 831 218 l 947 561 q 955 603 956 585 q 949 631 955 621 q 929 647 943 641 q 901 655 915 653 q 865 659 886 658 l 865 697 l 1139 697 l 1139 660 q 1087 649 1107 656 q 1049 619 1068 642 q 1015 555 1029 596 l 822 -1 l 757 -1 l 571 549 l 396 8 l 395 -1 l 330 -1 l 139 555 m 370 812 l 585 994 l 610 994 l 827 812 l 798 787 l 596 884 l 396 787 l 370 812 z "},"Ŷ":{"ha":983,"x_min":-4,"x_max":986,"o":"m 164 861 q 129 912 147 892 q 88 942 111 932 q 45 956 65 952 q -4 962 26 960 l -4 1003 l 395 1003 l 395 961 q 348 955 366 959 q 318 941 331 951 q 307 910 305 930 q 323 860 309 890 l 525 456 l 749 869 q 766 917 764 899 q 754 944 768 935 q 725 956 741 953 q 677 962 709 960 l 677 1003 l 986 1003 l 986 962 q 936 956 956 960 q 893 942 916 952 q 852 912 871 932 q 817 861 833 892 l 562 393 l 562 147 q 571 91 562 113 q 597 59 579 69 q 634 44 616 48 q 681 39 652 41 l 681 -1 l 293 -1 l 293 39 q 340 44 322 41 q 376 59 358 48 q 402 91 394 69 q 411 147 411 113 l 411 382 l 164 861 m 261 1122 l 484 1310 l 509 1310 l 732 1122 l 701 1097 l 494 1196 l 289 1097 l 261 1122 z "},"ŷ":{"ha":798,"x_min":17,"x_max":785,"o":"m 66 -233 l 89 -123 l 111 -110 q 268 -146 203 -162 q 361 -53 332 -130 l 371 -26 l 138 555 q 87 636 113 616 q 17 660 61 655 l 17 697 l 358 697 l 358 660 q 315 653 330 657 q 290 638 300 648 q 279 610 279 629 q 292 564 280 592 l 444 168 l 595 562 q 596 636 616 618 q 522 659 576 655 l 522 697 l 785 697 l 785 660 q 713 635 741 655 q 661 555 685 616 l 425 -58 q 66 -233 305 -368 m 193 812 l 408 994 l 433 994 l 650 812 l 621 787 l 419 884 l 220 787 l 193 812 z "},"Ÿ":{"ha":983,"x_min":-4,"x_max":986,"o":"m 164 861 q 129 912 147 892 q 88 942 111 932 q 45 956 65 952 q -4 962 26 960 l -4 1003 l 395 1003 l 395 961 q 348 955 366 959 q 318 941 331 951 q 307 910 305 930 q 323 860 309 890 l 525 456 l 749 869 q 766 917 764 899 q 754 944 768 935 q 725 956 741 953 q 677 962 709 960 l 677 1003 l 986 1003 l 986 962 q 936 956 956 960 q 893 942 916 952 q 852 912 871 932 q 817 861 833 892 l 562 393 l 562 147 q 571 91 562 113 q 597 59 579 69 q 634 44 616 48 q 681 39 652 41 l 681 -1 l 293 -1 l 293 39 q 340 44 322 41 q 376 59 358 48 q 402 91 394 69 q 411 147 411 113 l 411 382 l 164 861 m 264 1198 q 292 1264 264 1237 q 359 1292 321 1292 q 428 1264 399 1292 q 456 1198 456 1237 q 428 1132 456 1159 q 359 1104 399 1104 q 292 1132 320 1104 q 264 1198 264 1159 m 533 1198 q 561 1264 533 1237 q 629 1292 589 1292 q 696 1264 668 1292 q 725 1198 725 1237 q 697 1132 725 1159 q 629 1104 669 1104 q 561 1132 589 1104 q 533 1198 533 1159 z "},"Ź":{"ha":827,"x_min":31,"x_max":794,"o":"m 31 -1 l 589 940 l 319 940 q 239 927 274 940 q 180 895 203 915 q 140 842 157 874 q 113 777 123 810 q 97 700 104 743 l 56 701 l 77 956 l 81 1003 l 794 1003 l 235 60 l 507 60 q 589 72 553 60 q 649 105 625 85 q 689 158 672 126 q 715 224 706 191 q 730 300 724 257 l 774 298 l 751 45 l 747 -1 l 31 -1 m 396 1108 l 494 1348 l 665 1348 l 665 1322 l 431 1108 l 396 1108 z "},"ź":{"ha":642,"x_min":29,"x_max":608,"o":"m 29 -1 l 404 636 l 260 636 q 177 624 211 636 q 124 586 144 612 q 94 531 104 560 q 77 457 84 502 l 37 460 l 53 653 l 57 697 l 608 697 l 232 60 l 392 60 q 505 104 470 60 q 554 239 539 148 l 593 236 l 579 45 l 574 -1 l 29 -1 m 302 802 l 401 1040 l 572 1040 l 572 1015 l 338 802 l 302 802 z "},"Ż":{"ha":827,"x_min":31,"x_max":794,"o":"m 31 -1 l 589 940 l 319 940 q 239 927 274 940 q 180 895 203 915 q 140 842 157 874 q 113 777 123 810 q 97 700 104 743 l 56 701 l 77 956 l 81 1003 l 794 1003 l 235 60 l 507 60 q 589 72 553 60 q 649 105 625 85 q 689 158 672 126 q 715 224 706 191 q 730 300 724 257 l 774 298 l 751 45 l 747 -1 l 31 -1 m 321 1227 q 350 1296 321 1267 q 419 1325 378 1325 q 489 1296 460 1325 q 518 1227 518 1267 q 489 1159 518 1187 q 419 1131 459 1131 q 350 1159 379 1131 q 321 1227 321 1188 z "},"ż":{"ha":642,"x_min":29,"x_max":608,"o":"m 29 -1 l 404 636 l 260 636 q 177 624 211 636 q 124 586 144 612 q 94 531 104 560 q 77 457 84 502 l 37 460 l 53 653 l 57 697 l 608 697 l 232 60 l 392 60 q 505 104 470 60 q 554 239 539 148 l 593 236 l 579 45 l 574 -1 l 29 -1 m 228 920 q 257 988 228 960 q 326 1017 286 1017 q 396 988 367 1017 q 425 920 425 960 q 396 851 425 880 q 326 822 366 822 q 257 851 286 822 q 228 920 228 880 z "},"Ž":{"ha":827,"x_min":31,"x_max":794,"o":"m 31 -1 l 589 940 l 319 940 q 239 927 274 940 q 180 895 203 915 q 140 842 157 874 q 113 777 123 810 q 97 700 104 743 l 56 701 l 77 956 l 81 1003 l 794 1003 l 235 60 l 507 60 q 589 72 553 60 q 649 105 625 85 q 689 158 672 126 q 715 224 706 191 q 730 300 724 257 l 774 298 l 751 45 l 747 -1 l 31 -1 m 184 1299 l 212 1324 l 418 1225 l 625 1324 l 656 1299 l 432 1111 l 407 1111 l 184 1299 z "},"ž":{"ha":642,"x_min":29,"x_max":608,"o":"m 29 -1 l 404 636 l 260 636 q 177 624 211 636 q 124 586 144 612 q 94 531 104 560 q 77 457 84 502 l 37 460 l 53 653 l 57 697 l 608 697 l 232 60 l 392 60 q 505 104 470 60 q 554 239 539 148 l 593 236 l 579 45 l 574 -1 l 29 -1 m 97 982 l 125 1007 l 325 911 l 525 1007 l 555 982 l 338 800 l 314 800 l 97 982 z "},"ƒ":{"ha":899,"x_min":77,"x_max":808,"o":"m 484 154 q 450 -4 473 62 q 394 -106 427 -70 q 323 -159 361 -143 q 240 -176 286 -176 q 197 -174 216 -176 q 158 -165 177 -172 q 130 -156 139 -159 q 101 -143 121 -153 q 77 -131 81 -133 l 110 37 l 142 37 q 181 -84 159 -47 q 237 -121 203 -121 q 296 -72 273 -119 q 330 83 318 -25 l 374 458 l 224 458 l 233 517 l 380 517 l 400 686 q 643 1018 437 1015 q 686 1015 666 1018 q 725 1006 707 1013 q 754 996 743 1000 q 784 983 766 991 q 808 971 802 974 l 774 804 l 742 804 q 703 925 725 888 q 646 961 680 962 q 587 915 608 960 q 553 758 565 871 l 525 517 l 684 517 l 675 458 l 518 458 l 484 154 z "},"Ș":{"ha":754,"x_min":40,"x_max":707,"o":"m 372 -17 q 45 72 212 -17 l 41 332 l 83 332 q 122 198 94 254 q 191 109 151 141 q 275 62 231 77 q 370 47 319 47 q 520 94 467 47 q 572 220 574 140 q 563 275 572 249 q 535 322 554 300 q 495 360 517 343 q 441 395 474 378 q 379 426 408 412 q 307 456 350 439 q 104 581 168 509 q 41 747 40 652 q 135 941 43 865 q 382 1017 227 1017 q 675 942 527 1017 l 677 693 l 639 693 q 380 954 595 954 q 231 910 286 954 q 175 798 175 866 q 239 682 174 734 q 447 575 304 631 q 644 448 581 520 q 707 268 707 376 q 688 162 706 210 q 639 81 670 114 q 566 26 608 48 q 475 -7 524 3 q 372 -17 427 -17 m 285 -139 q 312 -78 285 -103 q 375 -53 339 -53 q 445 -85 416 -53 q 473 -168 473 -118 q 428 -280 473 -227 q 306 -353 382 -334 l 296 -322 q 357 -282 337 -303 q 378 -241 378 -260 q 358 -221 378 -227 q 306 -192 328 -215 q 285 -139 285 -170 z "},"ș":{"ha":591,"x_min":49,"x_max":553,"o":"m 307 -12 q 49 57 201 -12 l 53 257 l 92 257 q 310 47 147 47 q 401 75 368 47 q 435 153 435 102 q 433 174 435 164 q 427 192 432 183 q 418 208 422 201 q 404 223 414 215 q 389 236 394 231 q 368 249 383 241 q 345 260 352 256 q 317 272 338 264 q 289 284 297 281 q 256 297 280 288 q 187 327 214 314 q 131 358 160 339 q 86 396 102 376 q 59 442 70 415 q 49 501 49 469 q 118 648 49 593 q 298 704 188 704 q 528 647 409 704 l 524 460 l 486 460 q 296 646 444 646 q 202 620 237 646 q 167 549 167 593 q 171 522 167 534 q 185 499 175 510 q 206 481 196 488 q 236 463 216 473 q 271 447 257 453 q 314 429 285 441 q 361 410 343 417 q 439 377 408 393 q 498 336 471 360 q 539 279 526 313 q 553 203 553 246 q 484 45 553 103 q 307 -12 414 -12 m 199 -143 q 226 -83 199 -108 q 289 -58 253 -58 q 359 -91 330 -58 q 389 -172 389 -123 q 342 -285 389 -232 q 220 -357 296 -338 l 210 -326 q 271 -287 251 -307 q 292 -248 292 -266 q 272 -227 292 -231 q 220 -197 241 -219 q 199 -143 199 -175 z "},"Ț":{"ha":905,"x_min":25,"x_max":879,"o":"m 257 39 q 304 44 286 41 q 340 59 322 48 q 367 91 358 69 q 375 147 375 113 l 375 940 l 283 940 q 186 925 227 940 q 122 880 145 910 q 86 817 98 850 q 66 734 73 783 l 25 737 l 37 953 l 41 1003 l 863 1003 l 867 953 l 879 737 l 839 734 q 819 817 831 783 q 784 880 807 850 q 720 925 760 910 q 623 940 680 940 l 526 940 l 526 147 q 532 101 526 120 q 548 70 538 81 q 574 52 557 59 q 606 42 590 45 q 644 39 621 40 l 644 -1 l 257 -1 l 257 39 m 358 -139 q 385 -78 358 -103 q 447 -53 411 -53 q 518 -85 488 -53 q 547 -168 547 -118 q 500 -280 547 -227 q 378 -353 454 -334 l 370 -322 q 430 -282 410 -303 q 450 -241 450 -260 q 431 -221 450 -227 q 379 -192 400 -215 q 358 -139 358 -170 z "},"ț":{"ha":487,"x_min":3,"x_max":461,"o":"m 273 -11 q 148 43 192 -11 q 103 184 103 96 l 103 631 l 3 631 l 3 672 l 18 675 q 130 744 80 693 q 208 876 179 795 l 248 876 l 248 697 l 437 697 l 437 631 l 248 631 l 248 200 q 267 115 248 143 q 332 86 287 86 q 429 134 380 86 l 461 125 q 273 -11 393 -11 m 164 -142 q 191 -81 164 -106 q 254 -56 218 -56 q 325 -88 296 -56 q 354 -170 354 -121 q 307 -283 354 -229 q 184 -355 260 -336 l 175 -323 q 237 -283 216 -304 q 257 -244 257 -262 q 237 -224 257 -228 q 185 -194 206 -216 q 164 -142 164 -172 z "},"ˆ":{"ha":868,"x_min":204,"x_max":675,"o":"m 204 839 l 427 1026 l 452 1026 l 675 839 l 644 814 l 437 913 l 232 814 l 204 839 z "},"ˇ":{"ha":868,"x_min":204,"x_max":675,"o":"m 204 1013 l 232 1038 l 437 939 l 644 1038 l 675 1013 l 452 825 l 427 825 l 204 1013 z "},"˘":{"ha":868,"x_min":62,"x_max":468,"o":"m 265 833 q 124 891 181 833 q 62 1032 66 949 l 102 1032 q 146 971 117 995 q 204 940 175 947 q 265 932 233 932 q 327 940 298 932 q 385 971 356 947 q 428 1032 414 995 l 468 1032 q 406 891 463 949 q 265 833 349 833 z "},"˙":{"ha":355,"x_min":79,"x_max":277,"o":"m 247 865 q 232 850 247 865 q 178 836 218 836 q 109 865 138 836 q 79 933 79 894 q 108 1002 79 973 q 178 1031 137 1031 q 248 1002 218 1031 q 277 933 277 973 q 247 865 277 893 z "},"˚":{"ha":700,"x_min":257,"x_max":524,"o":"m 390 817 q 296 855 335 817 q 257 947 257 894 q 296 1040 257 1002 q 390 1079 335 1079 q 484 1040 444 1079 q 524 947 524 1001 q 484 856 524 895 q 390 817 444 817 m 344 994 q 334 984 344 994 q 325 947 325 974 q 344 901 325 921 q 390 882 363 882 q 436 901 416 882 q 456 947 456 921 q 436 994 456 974 q 390 1014 416 1014 q 344 994 363 1014 z "},"˛":{"ha":868,"x_min":304,"x_max":572,"o":"m 411 -222 q 335 -196 365 -222 q 304 -127 304 -170 q 360 -19 304 -70 q 489 58 416 31 l 559 58 q 448 -19 481 12 q 415 -87 415 -50 q 439 -134 415 -120 q 500 -139 463 -148 q 572 -102 537 -131 l 572 -143 q 497 -200 543 -177 q 411 -222 452 -222 z "},"˜":{"ha":868,"x_min":197,"x_max":681,"o":"m 197 838 q 208 894 198 865 q 234 948 217 923 q 280 990 252 974 q 345 1006 309 1006 q 448 978 386 1006 q 539 950 509 950 q 648 1026 608 950 l 681 1026 q 631 893 674 939 q 529 848 589 848 q 459 863 495 848 q 392 891 424 877 q 335 905 360 905 q 229 838 277 905 l 197 838 z "},"˝":{"ha":868,"x_min":195,"x_max":722,"o":"m 496 823 l 463 823 l 557 1053 l 722 1053 l 722 1029 l 496 823 m 195 823 l 290 1053 l 454 1053 l 454 1029 l 228 823 l 195 823 z "},"̀":{"ha":0,"x_min":-18,"x_max":252,"o":"m 216 807 l -18 1021 l -18 1044 l 153 1044 l 252 807 l 216 807 z "},"́":{"ha":0,"x_min":201,"x_max":471,"o":"m 201 814 l 300 1053 l 471 1053 l 471 1028 l 236 814 l 201 814 z "},"̂":{"ha":0,"x_min":204,"x_max":675,"o":"m 204 839 l 427 1026 l 452 1026 l 675 839 l 644 814 l 437 913 l 232 814 l 204 839 z "},"̃":{"ha":0,"x_min":197,"x_max":681,"o":"m 197 838 q 208 894 198 865 q 234 948 217 923 q 280 990 252 974 q 345 1006 309 1006 q 448 978 386 1006 q 539 950 509 950 q 648 1026 608 950 l 681 1026 q 631 893 674 939 q 529 848 589 848 q 459 863 495 848 q 392 891 424 877 q 335 905 360 905 q 229 838 277 905 l 197 838 z "},"̄":{"ha":0,"x_min":228,"x_max":672,"o":"m 228 859 l 228 920 l 672 920 l 672 859 l 228 859 z "},"̆":{"ha":0,"x_min":62,"x_max":468,"o":"m 265 833 q 124 891 181 833 q 62 1032 66 949 l 102 1032 q 146 971 117 995 q 204 940 175 947 q 265 932 233 932 q 327 940 298 932 q 385 971 356 947 q 428 1032 414 995 l 468 1032 q 406 891 463 949 q 265 833 349 833 z "},"̇":{"ha":0,"x_min":79,"x_max":277,"o":"m 247 865 q 232 850 247 865 q 178 836 218 836 q 109 865 138 836 q 79 933 79 894 q 108 1002 79 973 q 178 1031 137 1031 q 248 1002 218 1031 q 277 933 277 973 q 247 865 277 893 z "},"̈":{"ha":0,"x_min":197,"x_max":659,"o":"m 562 811 q 494 839 522 811 q 467 905 467 866 q 495 971 467 944 q 562 999 523 999 q 630 971 601 999 q 659 905 659 944 q 630 839 659 866 q 562 811 602 811 m 197 905 q 226 971 197 944 q 293 999 254 999 q 360 971 332 999 q 389 905 389 944 q 361 839 389 866 q 293 811 333 811 q 225 839 254 811 q 197 905 197 866 z "},"̊":{"ha":0,"x_min":257,"x_max":524,"o":"m 390 817 q 296 855 335 817 q 257 947 257 894 q 296 1040 257 1002 q 390 1079 335 1079 q 484 1040 444 1079 q 524 947 524 1001 q 484 856 524 895 q 390 817 444 817 m 344 994 q 334 984 344 994 q 325 947 325 974 q 344 901 325 921 q 390 882 363 882 q 436 901 416 882 q 456 947 456 921 q 436 994 456 974 q 390 1014 416 1014 q 344 994 363 1014 z "},"̋":{"ha":0,"x_min":195,"x_max":722,"o":"m 496 823 l 463 823 l 557 1053 l 722 1053 l 722 1029 l 496 823 m 195 823 l 290 1053 l 454 1053 l 454 1029 l 228 823 l 195 823 z "},"̌":{"ha":0,"x_min":204,"x_max":675,"o":"m 204 1013 l 232 1038 l 437 939 l 644 1038 l 675 1013 l 452 825 l 427 825 l 204 1013 z "},"̒":{"ha":0,"x_min":279,"x_max":490,"o":"m 478 1108 q 410 1064 433 1088 q 387 1019 387 1040 q 408 996 387 1001 q 467 964 444 988 q 490 904 490 939 q 460 837 490 865 q 390 810 430 810 q 312 845 344 810 q 279 936 279 881 q 331 1062 279 1002 q 468 1143 383 1122 l 478 1108 z "},"̦":{"ha":0,"x_min":113,"x_max":301,"o":"m 123 -322 q 184 -282 164 -303 q 204 -241 204 -260 q 186 -221 204 -227 q 134 -193 155 -215 q 113 -139 113 -170 q 139 -78 113 -103 q 201 -53 165 -53 q 272 -85 243 -53 q 301 -168 301 -118 q 255 -280 301 -227 q 132 -353 208 -334 l 123 -322 z "},"̧":{"ha":0,"x_min":286,"x_max":536,"o":"m 421 -264 q 286 -207 339 -264 l 286 -161 q 334 -187 312 -178 q 370 -196 355 -195 q 396 -191 385 -196 q 412 -176 407 -185 q 416 -154 416 -166 q 296 -96 416 -96 l 390 41 l 467 41 l 403 -47 q 499 -84 462 -55 q 536 -163 536 -113 q 504 -236 536 -210 q 421 -264 471 -262 z "},"̨":{"ha":0,"x_min":304,"x_max":572,"o":"m 411 -222 q 335 -196 365 -222 q 304 -127 304 -170 q 360 -19 304 -70 q 489 58 416 31 l 559 58 q 448 -19 481 12 q 415 -87 415 -50 q 439 -134 415 -120 q 500 -139 463 -148 q 572 -102 537 -131 l 572 -143 q 497 -200 543 -177 q 411 -222 452 -222 z "},"Δ":{"ha":855,"x_min":0,"x_max":0,"o":""},"Ξ":{"ha":826,"x_min":90,"x_max":736,"o":"m 90 -1 l 90 77 l 736 77 l 736 -1 l 90 -1 m 90 925 l 90 1003 l 736 1003 l 736 925 l 90 925 m 160 464 l 160 541 l 667 541 l 667 464 l 160 464 z "},"Ω":{"ha":855,"x_min":0,"x_max":0,"o":""},"π":{"ha":855,"x_min":0,"x_max":0,"o":""},"Ẁ":{"ha":1441,"x_min":8,"x_max":1443,"o":"m 144 857 q 93 938 123 918 q 8 962 62 958 l 8 1003 l 383 1003 l 383 962 q 346 958 359 960 q 317 949 332 956 q 296 932 302 943 q 291 904 291 922 q 300 861 291 886 l 521 237 l 686 725 l 640 857 q 587 938 619 918 q 497 962 555 958 l 497 1003 l 882 1003 l 882 962 q 844 959 859 961 q 815 949 829 956 q 794 932 800 943 q 788 904 788 922 q 796 861 787 886 l 1018 233 l 1234 863 q 1242 905 1242 888 q 1236 933 1242 923 q 1216 949 1230 943 q 1186 958 1201 956 q 1147 961 1171 960 l 1147 1003 l 1443 1003 l 1443 962 q 1398 956 1415 960 q 1361 942 1381 952 q 1326 910 1341 931 q 1300 856 1312 889 l 1007 7 l 1006 -1 l 942 -1 l 721 628 l 511 9 l 509 -1 l 444 -1 l 444 1 l 144 857 m 481 1318 l 481 1341 l 652 1341 l 750 1104 l 715 1104 l 481 1318 z "},"ẁ":{"ha":1156,"x_min":18,"x_max":1139,"o":"m 139 555 q 92 636 118 616 q 18 660 66 655 l 18 697 l 370 697 l 370 660 q 333 655 347 658 q 305 647 319 653 q 286 630 291 640 q 281 603 281 620 q 289 561 281 585 l 400 227 l 550 697 l 675 697 l 831 218 l 947 561 q 955 603 956 585 q 949 631 955 621 q 929 647 943 641 q 901 655 915 653 q 865 659 886 658 l 865 697 l 1139 697 l 1139 660 q 1087 649 1107 656 q 1049 619 1068 642 q 1015 555 1029 596 l 822 -1 l 757 -1 l 571 549 l 396 8 l 395 -1 l 330 -1 l 139 555 m 354 1008 l 354 1032 l 525 1032 l 624 794 l 589 794 l 354 1008 z "},"Ẃ":{"ha":1441,"x_min":8,"x_max":1443,"o":"m 144 857 q 93 938 123 918 q 8 962 62 958 l 8 1003 l 383 1003 l 383 962 q 346 958 359 960 q 317 949 332 956 q 296 932 302 943 q 291 904 291 922 q 300 861 291 886 l 521 237 l 686 725 l 640 857 q 587 938 619 918 q 497 962 555 958 l 497 1003 l 882 1003 l 882 962 q 844 959 859 961 q 815 949 829 956 q 794 932 800 943 q 788 904 788 922 q 796 861 787 886 l 1018 233 l 1234 863 q 1242 905 1242 888 q 1236 933 1242 923 q 1216 949 1230 943 q 1186 958 1201 956 q 1147 961 1171 960 l 1147 1003 l 1443 1003 l 1443 962 q 1398 956 1415 960 q 1361 942 1381 952 q 1326 910 1341 931 q 1300 856 1312 889 l 1007 7 l 1006 -1 l 942 -1 l 721 628 l 511 9 l 509 -1 l 444 -1 l 444 1 l 144 857 m 699 1111 l 798 1350 l 968 1350 l 968 1325 l 733 1111 l 699 1111 z "},"ẃ":{"ha":1156,"x_min":18,"x_max":1139,"o":"m 139 555 q 92 636 118 616 q 18 660 66 655 l 18 697 l 370 697 l 370 660 q 333 655 347 658 q 305 647 319 653 q 286 630 291 640 q 281 603 281 620 q 289 561 281 585 l 400 227 l 550 697 l 675 697 l 831 218 l 947 561 q 955 603 956 585 q 949 631 955 621 q 929 647 943 641 q 901 655 915 653 q 865 659 886 658 l 865 697 l 1139 697 l 1139 660 q 1087 649 1107 656 q 1049 619 1068 642 q 1015 555 1029 596 l 822 -1 l 757 -1 l 571 549 l 396 8 l 395 -1 l 330 -1 l 139 555 m 574 802 l 672 1040 l 843 1040 l 843 1015 l 608 802 l 574 802 z "},"Ẅ":{"ha":1441,"x_min":8,"x_max":1443,"o":"m 144 857 q 93 938 123 918 q 8 962 62 958 l 8 1003 l 383 1003 l 383 962 q 346 958 359 960 q 317 949 332 956 q 296 932 302 943 q 291 904 291 922 q 300 861 291 886 l 521 237 l 686 725 l 640 857 q 587 938 619 918 q 497 962 555 958 l 497 1003 l 882 1003 l 882 962 q 844 959 859 961 q 815 949 829 956 q 794 932 800 943 q 788 904 788 922 q 796 861 787 886 l 1018 233 l 1234 863 q 1242 905 1242 888 q 1236 933 1242 923 q 1216 949 1230 943 q 1186 958 1201 956 q 1147 961 1171 960 l 1147 1003 l 1443 1003 l 1443 962 q 1398 956 1415 960 q 1361 942 1381 952 q 1326 910 1341 931 q 1300 856 1312 889 l 1007 7 l 1006 -1 l 942 -1 l 721 628 l 511 9 l 509 -1 l 444 -1 l 444 1 l 144 857 m 490 1203 q 519 1269 490 1242 q 586 1296 547 1296 q 654 1269 626 1296 q 682 1203 682 1242 q 654 1136 682 1164 q 586 1108 626 1108 q 519 1136 547 1108 q 490 1203 490 1164 m 760 1203 q 788 1269 760 1242 q 856 1296 816 1296 q 923 1269 895 1296 q 951 1203 951 1242 q 923 1136 951 1164 q 856 1108 895 1108 q 788 1136 816 1108 q 760 1203 760 1164 z "},"ẅ":{"ha":1156,"x_min":18,"x_max":1139,"o":"m 139 555 q 92 636 118 616 q 18 660 66 655 l 18 697 l 370 697 l 370 660 q 333 655 347 658 q 305 647 319 653 q 286 630 291 640 q 281 603 281 620 q 289 561 281 585 l 400 227 l 550 697 l 675 697 l 831 218 l 947 561 q 955 603 956 585 q 949 631 955 621 q 929 647 943 641 q 901 655 915 653 q 865 659 886 658 l 865 697 l 1139 697 l 1139 660 q 1087 649 1107 656 q 1049 619 1068 642 q 1015 555 1029 596 l 822 -1 l 757 -1 l 571 549 l 396 8 l 395 -1 l 330 -1 l 139 555 m 366 893 q 394 959 366 932 q 461 986 422 986 q 529 959 501 986 q 557 893 557 932 q 529 826 557 854 q 461 799 501 799 q 394 826 422 799 q 366 893 366 854 m 635 893 q 663 959 635 932 q 730 986 690 986 q 798 959 769 986 q 827 893 827 932 q 798 826 827 854 q 730 799 770 799 q 663 826 690 799 q 635 893 635 854 z "},"ẞ":{"ha":908,"x_min":4,"x_max":882,"o":"m 4 39 q 51 45 33 41 q 87 61 69 50 q 114 94 105 72 q 122 150 122 116 l 122 742 q 144 854 122 804 q 201 936 165 904 q 286 990 237 968 q 385 1020 334 1011 q 490 1029 436 1029 q 689 994 600 1029 q 831 899 779 958 l 561 559 q 706 535 643 559 q 807 472 770 511 q 863 384 844 432 q 882 282 882 336 q 862 173 882 225 q 808 82 842 121 q 725 18 774 43 q 620 -13 675 -7 q 498 -2 564 -20 q 367 57 432 15 l 371 111 q 554 63 477 49 q 674 135 631 77 q 717 269 717 193 q 653 421 717 359 q 481 475 589 482 l 441 511 l 582 693 l 581 692 q 663 863 663 806 q 616 937 663 909 q 494 965 569 965 q 338 906 392 965 q 283 736 283 846 l 283 0 l 4 0 l 4 39 z "},"Ỳ":{"ha":983,"x_min":-4,"x_max":986,"o":"m 164 861 q 129 912 147 892 q 88 942 111 932 q 45 956 65 952 q -4 962 26 960 l -4 1003 l 395 1003 l 395 961 q 348 955 366 959 q 318 941 331 951 q 307 910 305 930 q 323 860 309 890 l 525 456 l 749 869 q 766 917 764 899 q 754 944 768 935 q 725 956 741 953 q 677 962 709 960 l 677 1003 l 986 1003 l 986 962 q 936 956 956 960 q 893 942 916 952 q 852 912 871 932 q 817 861 833 892 l 562 393 l 562 147 q 571 91 562 113 q 597 59 579 69 q 634 44 616 48 q 681 39 652 41 l 681 -1 l 293 -1 l 293 39 q 340 44 322 41 q 376 59 358 48 q 402 91 394 69 q 411 147 411 113 l 411 382 l 164 861 m 254 1314 l 254 1337 l 425 1337 l 524 1100 l 489 1100 l 254 1314 z "},"ỳ":{"ha":798,"x_min":17,"x_max":785,"o":"m 66 -233 l 89 -123 l 111 -110 q 268 -146 203 -162 q 361 -53 332 -130 l 371 -26 l 138 555 q 87 636 113 616 q 17 660 61 655 l 17 697 l 358 697 l 358 660 q 315 653 330 657 q 290 638 300 648 q 279 610 279 629 q 292 564 280 592 l 444 168 l 595 562 q 596 636 616 618 q 522 659 576 655 l 522 697 l 785 697 l 785 660 q 713 635 741 655 q 661 555 685 616 l 425 -58 q 66 -233 305 -368 m 178 1008 l 178 1032 l 349 1032 l 447 794 l 412 794 l 178 1008 z "},"‑":{"ha":642,"x_min":72,"x_max":570,"o":"m 72 431 l 72 490 l 570 490 l 570 431 l 72 431 z "},"–":{"ha":768,"x_min":72,"x_max":696,"o":"m 72 395 l 72 460 l 696 460 l 696 395 l 72 395 z "},"—":{"ha":1255,"x_min":72,"x_max":1182,"o":"m 72 395 l 72 460 l 1182 460 l 1182 395 l 72 395 z "},"‘":{"ha":269,"x_min":36,"x_max":239,"o":"m 227 983 q 163 934 185 963 q 140 878 140 905 q 164 856 140 861 q 217 825 195 849 q 239 768 239 802 q 210 703 239 730 q 143 676 181 676 q 67 711 98 676 q 36 799 36 747 q 85 928 36 866 q 215 1019 134 990 l 227 983 z "},"’":{"ha":351,"x_min":81,"x_max":283,"o":"m 93 708 q 157 757 134 728 q 179 814 179 786 q 155 836 179 831 q 103 867 125 843 q 81 924 81 890 q 110 988 81 962 q 176 1015 138 1015 q 253 980 222 1015 q 283 893 283 945 q 235 764 283 826 q 104 672 186 701 l 93 708 z "},"‚":{"ha":345,"x_min":72,"x_max":283,"o":"m 85 -118 q 152 -74 130 -98 q 175 -29 175 -50 q 154 -5 175 -11 q 95 26 119 2 q 72 86 72 51 q 102 154 72 126 q 172 182 132 182 q 251 146 219 182 q 283 54 283 110 q 231 -72 283 -12 q 94 -153 179 -132 l 85 -118 z "},"“":{"ha":544,"x_min":24,"x_max":515,"o":"m 214 983 q 150 934 172 963 q 127 878 127 905 q 151 856 127 861 q 204 825 182 849 q 227 768 227 802 q 198 703 227 730 q 131 676 169 676 q 55 711 86 676 q 24 799 24 747 q 73 928 24 866 q 203 1019 121 990 l 214 983 m 313 799 q 361 928 313 866 q 492 1019 410 990 l 503 983 q 439 934 461 963 q 416 878 416 905 q 440 856 416 861 q 493 825 471 849 q 515 768 515 802 q 486 703 515 730 q 419 676 457 676 q 343 711 374 676 q 313 799 313 746 z "},"”":{"ha":541,"x_min":36,"x_max":528,"o":"m 338 710 q 401 759 379 730 q 424 815 424 787 q 400 838 424 833 q 347 868 370 844 q 325 925 325 892 q 354 990 325 963 q 421 1017 382 1017 q 497 982 466 1017 q 528 895 528 947 q 479 765 528 827 q 349 673 430 703 l 338 710 m 36 925 q 65 990 36 963 q 132 1017 94 1017 q 208 982 177 1017 q 239 895 239 947 q 190 765 239 827 q 60 673 141 703 l 49 710 q 113 759 90 730 q 135 815 135 787 q 111 838 135 833 q 58 868 81 844 q 36 925 36 892 z "},"„":{"ha":350,"x_min":72,"x_max":283,"o":"m 85 -118 q 152 -74 130 -98 q 175 -29 175 -50 q 154 -5 175 -11 q 95 26 119 2 q 72 86 72 51 q 102 154 72 126 q 172 182 132 182 q 251 146 219 182 q 283 54 283 110 q 231 -72 283 -12 q 94 -153 179 -132 l 85 -118 z "},"†":{"ha":615,"x_min":72,"x_max":542,"o":"m 278 367 l 278 749 l 72 749 l 72 810 l 278 810 l 278 1003 l 339 1003 l 339 810 l 542 810 l 542 749 l 339 749 l 339 367 l 278 367 z "},"‡":{"ha":615,"x_min":72,"x_max":542,"o":"m 278 367 l 278 558 l 72 558 l 72 619 l 278 619 l 278 750 l 72 750 l 72 812 l 278 812 l 278 1003 l 339 1003 l 339 812 l 542 812 l 542 750 l 339 750 l 339 619 l 542 619 l 542 558 l 339 558 l 339 367 l 278 367 z "},"•":{"ha":490,"x_min":87,"x_max":401,"o":"m 249 330 q 135 375 183 330 q 87 485 87 421 q 134 594 87 548 q 244 639 181 640 q 356 592 310 637 q 401 485 401 547 q 356 376 401 420 q 249 330 311 332 z "},"…":{"ha":970,"x_min":79,"x_max":913,"o":"m 180 -11 q 109 19 139 -11 q 79 89 79 48 q 109 161 79 131 q 180 191 139 191 q 251 160 221 191 q 281 89 281 130 q 251 19 281 48 q 180 -11 221 -11 m 390 94 q 420 166 390 136 q 492 196 450 196 q 562 166 532 196 q 591 94 591 136 q 562 24 591 54 q 492 -5 532 -5 q 420 24 450 -5 q 390 94 390 54 m 711 102 q 741 173 711 144 q 812 203 770 203 q 883 173 853 203 q 913 102 913 143 q 883 31 913 61 q 812 1 853 1 q 741 31 771 1 q 711 102 711 61 z "},"‰":{"ha":1568,"x_min":49,"x_max":1532,"o":"m 143 -3 l 847 1003 l 926 1003 l 221 -3 l 143 -3 m 112 597 q 80 632 112 597 q 49 774 49 667 q 112 949 49 880 q 269 1018 175 1018 q 428 949 363 1018 q 492 774 492 880 q 427 597 492 667 q 269 528 363 528 q 112 597 175 528 m 174 774 q 199 631 174 688 q 269 575 224 575 q 340 631 315 575 q 366 774 366 688 q 340 915 366 859 q 269 970 315 970 q 199 915 224 970 q 174 774 174 859 m 640 52 q 608 86 640 52 q 576 228 576 121 q 640 403 576 334 q 798 472 703 472 q 956 404 892 472 q 1019 228 1019 335 q 955 51 1019 121 q 798 -18 891 -18 q 640 52 703 -18 m 726 369 q 714 342 726 369 q 701 228 701 315 q 726 86 701 141 q 798 31 751 31 q 868 85 844 31 q 892 228 892 140 q 867 369 892 314 q 798 424 843 424 q 726 369 751 424 m 1152 52 q 1121 86 1152 52 q 1089 228 1089 121 q 1152 403 1089 334 q 1308 472 1215 472 q 1468 404 1403 472 q 1532 228 1532 335 q 1468 51 1532 120 q 1308 -18 1403 -18 q 1152 52 1215 -18 m 1239 369 q 1226 341 1239 369 q 1214 228 1214 313 q 1239 86 1214 142 q 1308 31 1263 31 q 1380 86 1355 31 q 1404 228 1404 141 q 1380 369 1404 314 q 1308 424 1355 424 q 1239 369 1263 424 z "},"′":{"ha":558,"x_min":79,"x_max":498,"o":"m 79 568 q 101 783 92 654 q 117 939 111 913 q 154 999 125 977 q 214 1018 182 1021 q 263 985 246 1015 q 271 913 281 955 q 239 832 264 884 q 176 704 215 781 q 111 566 138 627 l 79 568 m 296 568 q 317 781 307 651 q 334 939 327 911 q 371 999 342 977 q 431 1018 399 1021 q 480 985 463 1015 q 488 913 498 955 q 456 832 481 884 q 393 704 431 781 q 328 566 354 627 l 296 568 z "},"″":{"ha":349,"x_min":79,"x_max":498,"o":"m 79 568 q 101 783 92 654 q 117 939 111 913 q 154 999 125 977 q 214 1018 182 1021 q 263 985 246 1015 q 271 913 281 955 q 239 832 264 884 q 176 704 215 781 q 111 566 138 627 l 79 568 m 296 568 q 317 781 307 651 q 334 939 327 911 q 371 999 342 977 q 431 1018 399 1021 q 480 985 463 1015 q 488 913 498 955 q 456 832 481 884 q 393 704 431 781 q 328 566 354 627 l 296 568 z "},"‹":{"ha":451,"x_min":58,"x_max":382,"o":"m 307 115 l 58 387 l 307 660 l 382 660 l 174 387 l 382 115 l 307 115 z "},"›":{"ha":451,"x_min":66,"x_max":390,"o":"m 142 115 l 66 115 l 275 387 l 66 660 l 142 660 l 390 387 l 142 115 z "},"⁄":{"ha":241,"x_min":-239,"x_max":505,"o":"m -239 -26 l 453 1047 l 505 1022 l -186 -53 l -239 -26 z "},"€":{"ha":872,"x_min":-8,"x_max":842,"o":"m -8 382 l -8 444 l 74 444 q 72 489 72 465 q 75 546 72 500 l -8 546 l -8 608 l 82 608 q 232 904 113 791 q 519 1017 351 1017 q 802 945 642 1017 l 806 673 l 768 673 q 676 882 742 810 q 518 953 611 953 q 324 856 401 953 q 229 608 248 759 l 611 608 l 590 546 l 224 546 l 224 519 q 228 444 224 480 l 574 444 l 553 382 l 237 382 q 351 162 267 243 q 541 81 434 81 q 696 131 624 81 q 807 258 768 181 l 842 233 q 810 167 829 199 q 760 100 791 134 q 693 40 729 66 q 606 -2 656 14 q 500 -18 555 -18 q 313 29 401 -18 q 163 168 225 76 q 81 382 100 260 l -8 382 z "},"₹":{"ha":779,"x_min":85,"x_max":690,"o":"m 468 -1 l 100 453 l 93 453 l 93 461 l 85 471 l 93 472 l 93 513 l 268 513 q 387 563 339 513 q 440 701 434 613 l 90 701 l 90 761 l 440 761 q 378 894 431 846 q 237 942 326 942 l 90 942 l 90 1003 l 671 1003 l 671 942 l 494 942 q 599 761 589 873 l 671 761 l 671 701 l 599 701 q 497 526 587 591 q 286 460 408 461 l 279 458 l 542 139 q 618 61 588 82 q 690 39 649 41 l 690 -1 l 468 -1 z "},"₿":{"ha":900,"x_min":35,"x_max":852,"o":"m 35 -1 l 35 39 q 73 42 58 40 q 104 52 87 45 q 129 70 120 58 q 144 100 138 81 q 150 147 150 119 l 150 854 q 142 910 150 888 q 116 942 134 932 q 81 957 98 953 q 35 962 64 960 l 35 1003 l 323 1003 l 323 1139 l 385 1139 l 385 1003 l 490 1003 l 490 1139 l 551 1139 l 551 1000 q 736 917 665 987 q 807 743 807 846 q 759 605 807 662 q 639 517 711 547 q 794 427 736 490 q 852 271 852 363 q 811 132 852 192 q 704 40 770 73 q 551 0 637 8 l 551 -138 l 490 -138 l 490 -1 l 385 -1 l 385 -138 l 323 -138 l 323 -1 l 35 -1 m 301 60 l 468 60 q 640 112 587 60 q 693 268 693 163 q 634 428 693 375 q 472 481 576 481 l 301 481 l 301 60 m 301 546 l 479 546 q 608 599 568 546 q 648 743 648 652 q 469 942 648 942 l 301 942 l 301 546 z "},"™":{"ha":852,"x_min":62,"x_max":787,"o":"m 383 677 q 405 682 398 679 q 417 700 412 686 q 422 741 422 713 l 422 940 q 419 950 420 946 q 414 958 417 955 q 409 963 411 961 q 403 966 408 964 q 398 967 399 967 q 391 968 397 968 l 385 970 l 385 1003 l 510 1003 l 589 786 l 660 1004 l 787 1004 l 787 972 q 767 968 773 971 q 757 952 762 965 q 753 909 753 939 l 753 742 q 757 701 753 714 q 767 685 762 688 q 787 681 773 682 l 787 650 l 628 650 l 628 681 q 641 683 638 682 q 650 686 644 683 q 657 695 656 690 q 661 713 659 701 q 663 742 663 724 l 663 878 l 587 648 l 547 648 l 465 867 l 465 741 q 468 706 465 719 q 477 687 470 693 q 489 680 484 682 q 505 677 494 679 l 505 647 l 383 647 l 383 677 m 62 886 l 68 1003 l 379 1003 l 383 886 l 353 886 q 351 899 352 889 q 349 911 349 908 q 346 921 348 913 q 342 930 345 928 q 337 938 340 932 q 330 944 334 943 q 320 949 326 946 q 306 952 314 951 q 289 953 298 953 l 269 953 l 269 741 q 274 699 269 713 q 285 682 279 685 q 306 677 292 679 l 306 647 l 143 647 l 143 677 q 163 682 157 679 q 174 699 170 685 q 179 741 179 713 l 179 953 l 158 953 q 134 951 144 953 q 117 944 124 949 q 107 935 111 939 q 100 921 103 932 q 97 906 98 910 q 94 886 96 901 l 62 886 z "},"⅐":{"ha":1156,"x_min":43,"x_max":1150,"o":"m 68 425 q 122 443 106 429 q 139 504 139 457 l 139 896 l 43 896 l 43 935 q 119 962 86 945 q 199 1011 151 979 l 244 1011 l 244 504 q 261 443 244 458 q 317 425 279 429 l 317 392 l 68 392 l 68 425 m 144 -26 l 836 1047 l 889 1022 l 197 -53 l 144 -26 m 703 456 l 718 532 l 734 614 l 1150 614 q 998 342 1053 488 q 926 -5 943 197 l 800 -5 q 886 293 824 157 q 1019 514 948 429 l 869 514 q 810 509 834 514 q 773 494 787 505 q 754 474 760 484 q 742 447 748 465 l 703 456 z "},"⅑":{"ha":1160,"x_min":43,"x_max":1108,"o":"m 68 425 q 122 443 106 429 q 139 504 139 457 l 139 896 l 43 896 l 43 935 q 119 962 86 945 q 199 1011 151 979 l 244 1011 l 244 504 q 261 443 244 458 q 317 425 279 429 l 317 392 l 68 392 l 68 425 m 144 -26 l 836 1047 l 889 1022 l 197 -53 l 144 -26 m 673 410 q 735 561 673 499 q 886 623 797 623 q 1047 546 985 623 q 1108 346 1108 469 q 1008 91 1108 191 q 755 -16 907 -9 l 734 28 q 908 103 845 37 q 986 271 970 170 q 852 220 927 220 q 724 272 774 221 q 673 410 673 323 m 787 427 q 815 325 787 361 q 889 290 843 289 q 990 342 943 292 q 963 508 989 448 q 885 568 937 568 q 815 529 843 568 q 787 427 787 490 z "},"⅒":{"ha":1586,"x_min":43,"x_max":1531,"o":"m 68 425 q 122 443 106 429 q 139 504 139 457 l 139 896 l 43 896 l 43 935 q 119 962 86 945 q 199 1011 151 979 l 244 1011 l 244 504 q 261 443 244 458 q 317 425 279 429 l 317 392 l 68 392 l 68 425 m 147 -26 l 839 1047 l 892 1022 l 200 -53 l 147 -26 m 697 498 l 697 538 q 773 566 741 549 q 852 614 806 583 l 899 614 l 899 107 q 916 46 899 61 q 971 28 933 31 l 971 -5 l 722 -5 l 722 28 q 776 46 760 31 q 793 107 793 60 l 793 498 l 697 498 m 1063 306 q 1129 533 1063 441 q 1296 624 1196 624 q 1463 532 1396 624 q 1531 306 1531 441 q 1464 76 1531 168 q 1296 -16 1398 -16 q 1128 76 1194 -16 q 1063 306 1063 168 m 1181 306 q 1193 172 1181 231 q 1232 77 1205 113 q 1296 40 1258 40 q 1361 77 1334 40 q 1400 173 1388 113 q 1413 307 1413 232 q 1382 493 1413 418 q 1296 567 1352 567 q 1211 492 1241 567 q 1181 306 1181 417 z "},"⅓":{"ha":1184,"x_min":43,"x_max":1132,"o":"m 68 425 q 122 443 106 429 q 139 504 139 457 l 139 896 l 43 896 l 43 935 q 119 962 86 945 q 199 1011 151 979 l 244 1011 l 244 504 q 261 443 244 458 q 317 425 279 429 l 317 392 l 68 392 l 68 425 m 147 -26 l 839 1047 l 892 1022 l 200 -53 l 147 -26 m 717 167 l 758 176 q 900 66 808 66 q 985 102 952 66 q 1018 192 1018 138 q 974 289 1018 260 q 854 294 930 318 l 831 335 l 996 514 l 893 514 q 835 509 857 514 q 801 494 812 505 q 786 473 790 484 q 781 444 783 463 l 742 444 l 742 614 l 1125 614 l 1125 570 l 936 358 q 1078 312 1024 362 q 1131 182 1132 262 q 1071 42 1130 98 q 926 -14 1012 -14 q 794 34 851 -14 q 717 167 736 82 z "},"⅔":{"ha":1301,"x_min":50,"x_max":1265,"o":"m 50 393 l 50 435 l 140 536 q 283 725 243 658 q 322 842 322 793 q 297 913 322 888 q 232 937 273 937 q 151 910 187 937 q 92 829 114 882 l 52 839 q 130 971 72 924 q 264 1019 188 1019 q 388 975 338 1019 q 437 861 437 930 q 426 801 437 831 q 400 745 415 770 q 347 677 385 720 q 281 606 310 635 q 191 514 252 576 l 178 494 l 301 494 q 375 503 347 494 q 415 524 404 511 q 436 558 427 536 l 473 547 l 452 471 l 428 393 l 50 393 m 282 -26 l 974 1047 l 1026 1022 l 335 -53 l 282 -26 m 850 167 l 892 176 q 1034 66 941 66 q 1119 102 1086 66 q 1152 192 1152 138 q 1107 289 1152 260 q 987 294 1063 318 l 964 335 l 1129 514 l 1026 514 q 968 509 990 514 q 935 494 945 505 q 920 473 924 484 q 914 444 916 463 l 875 444 l 875 614 l 1258 614 l 1258 570 l 1069 358 q 1212 312 1158 362 q 1264 182 1265 262 q 1204 42 1263 98 q 1060 -14 1145 -14 q 927 34 985 -14 q 850 167 869 82 z "},"⅕":{"ha":1136,"x_min":43,"x_max":1092,"o":"m 68 425 q 122 443 106 429 q 139 504 139 457 l 139 896 l 43 896 l 43 935 q 119 962 86 945 q 199 1011 151 979 l 244 1011 l 244 504 q 261 443 244 458 q 317 425 279 429 l 317 392 l 68 392 l 68 425 m 144 -26 l 836 1047 l 889 1022 l 197 -53 l 144 -26 m 669 158 l 714 168 q 774 87 738 115 q 852 60 810 60 q 940 101 907 60 q 972 207 972 142 q 945 301 972 267 q 867 335 917 335 q 758 283 802 335 l 705 300 l 760 614 l 1092 614 l 1076 514 l 799 514 l 772 359 q 905 399 831 399 q 1034 348 985 397 q 1083 208 1083 298 q 1022 48 1083 110 q 879 -14 962 -14 q 752 32 810 -14 q 669 158 694 77 z "},"⅖":{"ha":1261,"x_min":50,"x_max":1227,"o":"m 50 393 l 50 435 l 140 536 q 283 725 243 658 q 322 842 322 793 q 297 913 322 888 q 232 937 273 937 q 151 910 187 937 q 92 829 114 882 l 52 839 q 130 971 72 924 q 264 1019 188 1019 q 388 975 338 1019 q 437 861 437 930 q 426 801 437 831 q 400 745 415 770 q 347 677 385 720 q 281 606 310 635 q 191 514 252 576 l 178 494 l 301 494 q 375 503 347 494 q 415 524 404 511 q 436 558 427 536 l 473 547 l 452 471 l 428 393 l 50 393 m 282 -26 l 974 1047 l 1026 1022 l 335 -53 l 282 -26 m 806 158 l 850 168 q 910 87 873 115 q 989 60 946 60 q 1076 101 1043 60 q 1108 207 1108 142 q 1080 301 1108 267 q 1003 335 1053 335 q 895 283 938 335 l 842 300 l 896 614 l 1227 614 l 1213 514 l 935 514 l 908 359 q 1042 399 966 399 q 1171 348 1122 397 q 1219 208 1219 298 q 1159 48 1219 110 q 1015 -14 1098 -14 q 888 32 946 -14 q 806 158 831 77 z "},"⅗":{"ha":1276,"x_min":54,"x_max":1232,"o":"m 264 383 q 131 431 189 383 q 54 564 74 479 l 96 574 q 237 464 145 464 q 322 499 290 464 q 355 589 355 534 q 311 686 355 657 q 192 692 267 715 l 168 732 l 334 911 l 231 911 q 142 895 163 911 q 118 842 121 878 l 79 842 l 79 1011 l 463 1011 l 463 966 l 273 755 q 415 709 361 760 q 468 579 469 659 q 408 439 467 496 q 264 383 349 383 m 285 -26 l 977 1047 l 1029 1022 l 338 -53 l 285 -26 m 810 158 l 854 168 q 914 87 878 115 q 993 60 950 60 q 1080 101 1047 60 q 1112 207 1112 142 q 1084 301 1112 267 q 1007 335 1057 335 q 899 283 942 335 l 846 300 l 900 614 l 1232 614 l 1217 514 l 939 514 l 913 359 q 1046 399 971 399 q 1175 348 1126 397 q 1223 208 1223 298 q 1163 48 1223 110 q 1019 -14 1102 -14 q 892 32 950 -14 q 810 158 835 77 z "},"⅘":{"ha":1323,"x_min":52,"x_max":1279,"o":"m 52 524 l 52 574 l 326 1011 l 424 1011 l 424 608 l 511 608 l 511 524 l 424 524 q 442 451 426 467 q 494 431 458 434 l 494 392 l 243 392 l 243 431 q 270 436 260 433 q 291 448 280 439 q 307 475 301 456 q 313 524 312 494 l 52 524 m 139 608 l 313 608 l 313 885 l 139 608 m 332 -26 l 1023 1047 l 1076 1022 l 385 -53 l 332 -26 m 857 158 l 901 168 q 961 87 925 115 q 1040 60 998 60 q 1127 101 1095 60 q 1160 207 1160 142 q 1132 301 1160 267 q 1054 335 1104 335 q 946 283 989 335 l 893 300 l 947 614 l 1279 614 l 1264 514 l 986 514 l 960 359 q 1093 399 1018 399 q 1222 348 1173 397 q 1271 208 1271 298 q 1210 48 1271 110 q 1067 -14 1149 -14 q 940 32 998 -14 q 857 158 882 77 z "},"⅙":{"ha":1124,"x_min":43,"x_max":1089,"o":"m 68 425 q 122 443 106 429 q 139 504 139 457 l 139 896 l 43 896 l 43 935 q 119 962 86 945 q 199 1011 151 979 l 244 1011 l 244 504 q 261 443 244 458 q 317 425 279 429 l 317 392 l 68 392 l 68 425 m 147 -26 l 839 1047 l 892 1022 l 200 -53 l 147 -26 m 654 262 q 701 447 654 366 q 827 572 747 528 q 1007 621 907 617 l 1026 579 q 855 506 918 570 q 775 338 791 441 q 908 387 836 387 q 1038 335 986 386 q 1089 200 1089 283 q 1027 47 1089 109 q 873 -16 965 -16 q 714 61 774 -16 q 654 262 654 138 m 771 265 q 799 99 772 159 q 875 40 825 40 q 946 78 919 40 q 974 182 974 117 q 945 282 974 246 q 871 317 917 318 q 771 265 819 315 z "},"⅚":{"ha":1258,"x_min":45,"x_max":1214,"o":"m 254 383 q 127 429 185 383 q 45 555 70 475 l 89 566 q 149 485 113 513 q 228 457 185 457 q 315 498 282 457 q 347 604 347 540 q 319 698 347 665 q 241 732 292 732 q 134 681 176 732 l 81 697 l 135 1011 l 467 1011 l 452 911 l 174 911 l 147 757 q 281 796 205 796 q 410 745 361 795 q 458 606 458 696 q 398 445 458 507 q 254 383 337 383 m 272 -26 l 964 1047 l 1017 1022 l 325 -53 l 272 -26 m 779 262 q 826 447 779 366 q 952 572 872 528 q 1132 621 1032 617 l 1152 579 q 980 506 1044 570 q 900 338 916 441 q 1034 387 960 387 q 1163 335 1112 386 q 1214 200 1214 283 q 1152 47 1214 109 q 999 -16 1090 -16 q 840 61 900 -16 q 779 262 779 138 m 896 265 q 924 99 897 159 q 1000 40 950 40 q 1072 78 1044 40 q 1099 182 1099 117 q 1070 282 1099 246 q 996 317 1042 318 q 896 265 943 315 z "}}}
